<svg xmlns="http://www.w3.org/2000/svg" fill="none" viewBox="0 0 256 256"><path fill="currentColor" d="m53.196 61.917-5.026-8.645-.029.017-.029.017 5.084 8.611Zm22.63-15.377 6.55 7.557-6.55-7.556Zm48.161-29.447 4.725 8.813-4.725-8.813Zm9.832-3.978-.18-9.999.18 9.999Zm7.851 4.155-5.647 8.253 5.647-8.253Zm22.387 17.148-6.392 7.69 6.392-7.69Zm38.168 36.415-6.432 7.657 6.432-7.657ZM221.17 83.78l9.479-3.184-.346-1.03-.558-.931-8.575 5.145Zm-77.382 156.075 5.692 8.222-5.692-8.222Zm-19.435-3.577-5.935 8.049 5.935-8.049ZM73.848 197.05l-5.214 8.533 5.214-8.533Zm-38.874-25.574-8.638 5.038 8.638-5.038Zm-1.832-8.815h-10 10Zm.325-89.864-6.292-7.773 6.292 7.773Zm101.926 169.998-1.561 9.877 1.561-9.877Zm-84.506-60.902 5.492-8.356-.124-.082-.127-.078-5.241 8.516Zm2.31-119.976 5.025 8.645c5.89-3.423 18.607-11.657 24.154-16.465l-6.55-7.556-6.55-7.557C65.19 42.527 53.79 50.005 48.17 53.272l5.026 8.645Zm22.63-15.377 6.549 7.557c5.97-5.175 15.037-12.352 21.565-15.788l-4.657-8.849-4.658-8.849c-8.726 4.593-19.277 13.11-25.35 18.373l6.55 7.556Zm23.457-17.08 4.657 8.85c3.669-1.932 8.681-4.406 13.413-6.732 4.58-2.25 9.085-4.453 11.358-5.672l-4.725-8.813-4.725-8.814c-1.868 1.002-5.9 2.976-10.73 5.35-4.677 2.3-9.947 4.899-13.906 6.982l4.658 8.85Zm24.703-12.367 4.725 8.813c1.387-.743 3.1-1.59 4.586-2.223.749-.319 1.308-.527 1.662-.64.173-.054.207-.057.127-.04-.036.008-.444.099-1.088.11l-.18-9.998-.18-9.999c-1.985.036-3.782.564-4.733.866-1.174.373-2.365.84-3.445 1.3a80.446 80.446 0 0 0-6.199 2.997l4.725 8.814Zm9.832-3.978.18 9.998a6.529 6.529 0 0 1-1.625-.164 3.43 3.43 0 0 1-.487-.147c-.006-.002.207.09.685.378a31.6 31.6 0 0 1 1.572 1.033c.3.208.592.413.91.636.303.212.642.45.969.674l5.647-8.253 5.647-8.253c-.666-.456-2.667-1.907-4.407-2.958-.943-.57-2.15-1.24-3.49-1.784-1.22-.496-3.296-1.203-5.781-1.159l.18 9.999Zm7.851 4.155-5.647 8.253c2.659 1.819 13.084 9.472 21.642 16.585l6.392-7.69 6.392-7.69c-9.027-7.504-19.949-15.533-23.132-17.711l-5.647 8.253Zm22.387 17.148-6.392 7.69c4.146 3.446 10.382 9.691 17.511 16.808 6.854 6.841 14.429 14.376 20.617 19.574l6.432-7.657 6.432-7.657c-5.393-4.53-12.312-11.389-19.351-18.415-6.764-6.75-13.822-13.849-18.857-18.034l-6.392 7.69Zm38.168 36.415-6.432 7.657c5.263 4.42 10.235 7.392 13.789 9.445 1.911 1.104 3.022 1.725 3.882 2.279 1.23.792.104.333-.869-1.29l8.575-5.144 8.575-5.145c-1.708-2.846-4.424-4.574-5.451-5.235-1.397-.9-3.212-1.919-4.707-2.783-3.26-1.883-7.025-4.161-10.93-7.441l-6.432 7.657ZM221.17 83.78l-9.48 3.184c.217.647.379 1.23.501 2.102.133.951.244 2.43.197 4.824l9.998.196 9.998.196c.127-6.498-.579-10.246-1.735-13.686l-9.479 3.184Zm1.216 10.306-9.998-.196c-.101 5.134-.701 24.003.506 35.415l9.945-1.051 9.944-1.052c-1.038-9.819-.515-26.987-.399-32.92l-9.998-.196Zm.453 34.168-9.945 1.051c1.043 9.856.631 26.794-.395 33.568l9.887 1.498 9.887 1.497c1.307-8.629 1.714-27.291.51-38.666l-9.944 1.052Zm-.453 36.117-9.887-1.498c-.483 3.186-1.051 4.711-1.471 5.56-.414.834-.926 1.536-2.273 3.075l7.526 6.585 7.526 6.585c1.568-1.792 3.524-4.1 5.143-7.369 1.612-3.254 2.639-6.925 3.323-11.441l-9.887-1.497Zm-6.105 13.722-7.526-6.585c.231-.264-.053.054-1.604 1.369a314.438 314.438 0 0 1-5.093 4.199c-4.151 3.368-9.495 7.624-15.006 12.015-10.675 8.508-22.693 18.08-26.372 21.639l6.954 7.186 6.955 7.186c2.774-2.684 13.622-11.36 24.928-20.37 5.481-4.368 10.906-8.688 15.141-12.124a346.812 346.812 0 0 0 5.429-4.477c1.18-1.001 2.761-2.357 3.72-3.453l-7.526-6.585Zm-48.647 39.823-6.954-7.186a967.76 967.76 0 0 1-13.176 12.465 458.871 458.871 0 0 1-6.411 5.856c-.896.798-1.645 1.453-2.226 1.945-.668.564-.869.705-.771.637l5.692 8.222 5.692 8.222c1.288-.892 3.211-2.572 4.923-4.098a473.026 473.026 0 0 0 6.705-6.124 989.91 989.91 0 0 0 13.481-12.753l-6.955-7.186Zm-43.281 18.362 5.935-8.048c-4.216-3.109-10.761-9.034-20.141-16.838-8.939-7.437-19.752-15.95-31.085-22.875l-5.214 8.533-5.214 8.533c10.083 6.161 20.015 13.939 28.722 21.183 8.265 6.877 16.265 14.023 21.062 17.561l5.935-8.049Zm-89.38-64.802 8.639-5.039c-.286-.491-.363-.807-.408-1.123a7.763 7.763 0 0 1-.061-.917c-.012-.539 0-.873 0-1.736h-20c0 2.182-.376 7.735 3.193 13.853l8.638-5.038Zm-1.83-8.815h10c0-2.319-.152-6.964-.292-11.482-.145-4.698-.281-9.387-.281-12.216h-20c0 3.208.15 8.25.29 12.832.148 4.763.282 8.949.282 10.866h10Zm-.573-23.698h10c0-2.855.218-11.18.445-20.379.223-9.025.452-18.796.452-24.152h-20c0 5.05-.22 14.528-.446 23.658-.22 8.954-.451 17.692-.451 20.873h10Zm.897-44.531h10c0-5.67-.604-11.376-.84-14.758-.136-1.933-.147-2.948-.11-3.433.019-.229.02.102-.185.718-.193.58-.826 2.196-2.574 3.61l-6.291-7.772-6.292-7.773c-2.292 1.855-3.333 4.153-3.823 5.628-.502 1.512-.689 2.952-.773 4.021-.166 2.11-.04 4.443.096 6.397.307 4.393.792 8.623.792 13.362h10Zm0-21.635 6.291 7.773.016-.012.047-.036a17.555 17.555 0 0 1 .8-.542 48.33 48.33 0 0 1 1.99-1.19c1.595-.911 3.505-1.928 5.5-2.962 3.609-1.87 8.253-4.169 10.169-5.3l-5.084-8.61-5.084-8.612c-1.296.765-4.675 2.417-9.207 4.767-3.735 1.936-8.922 4.679-11.73 6.951l6.292 7.773Zm110.321 167.058-5.692-8.222c-.146.101-.285.2-.392.276l-.309.221c-.19.135-.346.245-.498.346-.308.205-.53.331-.691.409-.366.175-.016-.088.749.033l-1.562 9.877-1.561 9.877c8.64 1.366 15.507-4.498 15.648-4.595l-5.692-8.222Zm-8.395 2.94 1.562-9.877c.307.048.268.095-.188-.125-.429-.206-1.002-.537-1.73-1.027a47.561 47.561 0 0 1-2.277-1.652c-.692-.528-1.708-1.321-2.472-1.884l-5.935 8.048-5.935 8.049c.729.537 3.355 2.624 5.47 4.044 2.162 1.451 5.754 3.639 9.944 4.301l1.561-9.877ZM73.848 197.05l5.214-8.533c-4.39-2.682-13.85-9.175-22.683-14.98l-5.492 8.356-5.492 8.357c8.106 5.328 18.512 12.445 23.239 15.333l5.214-8.533Zm-22.961-15.157 5.24-8.516c-1.656-1.02-3.436-2.037-5.078-2.968-1.698-.964-3.234-1.828-4.64-2.664-1.426-.847-2.458-1.513-3.143-2.023-.966-.718-.347-.472.346.715l-8.638 5.039-8.638 5.038c1.494 2.561 3.76 4.338 4.997 5.258 1.518 1.129 3.248 2.209 4.857 3.165 3.886 2.31 6.268 3.511 9.456 5.473l5.24-8.517Z"/></svg>
