<svg xmlns="http://www.w3.org/2000/svg" fill="none" viewBox="0 0 256 256">
  <style>
    path { fill: #0c0a09 }

    @media (prefers-color-scheme: dark) {
      path { fill: #ffffff }
    }
  </style>

  <path d="M134.131 1.12c2.633.05 4.79.797 6.037 1.305 1.476.6 2.782 1.327 3.771 1.925 1.804 1.089 3.922 2.622 4.503 3.019 3.131 2.142 14.275 10.13 23.403 17.926 9.891 8.447 17.231 16.016 23.147 22.294 6.155 6.532 10.034 10.826 13.87 13.994 3.697 3.053 7.488 5.235 10.96 7.117 1.549.84 3.567 1.9 5.094 2.819.809.487 1.829 1.137 2.827 1.932.901.718 2.465 2.08 3.712 4.157l.67 1.118.416 1.236c1.239 3.69 1.969 7.67 1.837 14.362-.117 6.013-.633 23.011.389 32.67 1.219 11.528.814 30.361-.521 39.177-.705 4.648-1.778 8.534-3.509 12.028-1.74 3.512-3.84 5.982-5.43 7.799-1.078 1.232-2.788 2.691-3.932 3.661a337.583 337.583 0 0 1-5.461 4.505c-4.244 3.443-9.678 7.769-15.156 12.135-11.368 9.06-22.1 17.646-24.784 20.243a981.595 981.595 0 0 1-13.511 12.782 476.675 476.675 0 0 1-6.734 6.151c-1.682 1.499-3.705 3.273-5.115 4.25-.058.04-2.341 1.774-4.912 3.005-2.749 1.317-7.042 2.734-12.187 1.92-4.643-.734-8.54-3.134-10.747-4.616-2.15-1.444-4.943-3.653-5.542-4.095-4.855-3.58-13-10.848-21.154-17.632-8.684-7.225-18.528-14.93-28.486-21.014-4.728-2.889-15.116-9.989-23.127-15.258-3.157-1.935-5.295-2.999-9.295-5.376-1.627-.967-3.428-2.088-5.03-3.279-1.265-.941-3.818-2.92-5.53-5.855-3.88-6.65-3.467-12.744-3.467-14.862 0-1.826-.126-5.808-.27-10.461-.143-4.666-.302-9.915-.302-13.236 0-3.214.232-11.993.452-20.923.226-9.141.444-18.588.444-23.609 0-4.645-.471-8.727-.786-13.221a78.466 78.466 0 0 1-.148-2.718 12.13 12.13 0 0 1-.06-.64l-.912-14.14c-.426-6.614 4.589-12.32 11.202-12.747a11.976 11.976 0 0 1 9.76 4.027c3.276-1.676 5.58-2.821 6.574-3.408l.069-.041c5.592-3.252 16.86-10.654 20.802-14.07 6.083-5.272 16.781-13.924 25.728-18.632 3.987-2.099 9.283-4.71 13.954-7.007 4.855-2.387 8.84-4.338 10.668-5.318 1.801-.965 4.12-2.12 6.36-3.074a41.509 41.509 0 0 1 3.623-1.366c.99-.314 3.015-.919 5.303-.96l.533.001Zm-1.006 24.827a62.412 62.412 0 0 0-3.472 1.725c-2.314 1.24-6.867 3.465-11.421 5.704-4.738 2.329-9.724 4.79-13.364 6.706-6.309 3.32-15.227 10.363-21.188 15.53-5.692 4.933-18.54 13.242-24.457 16.682v-.001c-2.018 1.18-6.72 3.51-10.197 5.313-1.56.809-3.054 1.6-4.379 2.334.248 3.343.814 8.961.814 14.495 0 5.387-.23 15.186-.452 24.201-.228 9.224-.444 17.507-.444 20.33 0 2.863.142 7.677.291 12.495.135 4.375.281 8.896.281 11.202 0 .32-.003.784-.004.997 0 .286 0 .504.004.697.002.093.007.175.01.246a49.4 49.4 0 0 0 2.278 1.425c1.385.823 2.898 1.675 4.607 2.645 1.23.698 2.555 1.453 3.853 2.226l1.286.778.152.093.15.098c8.904 5.853 18.272 12.284 22.627 14.945 11.458 7.001 22.36 15.588 31.321 23.044 9.491 7.897 15.89 13.7 20.048 16.766.78.575 1.842 1.402 2.499 1.903a45.773 45.773 0 0 0 2.179 1.582c.116.078.226.15.331.217l.06-.041a24.3 24.3 0 0 1 .415-.293c-.058.04.77-.617 2.804-2.431 1.774-1.58 4-3.618 6.381-5.829a971.746 971.746 0 0 0 13.147-12.435c3.769-3.648 15.904-13.308 26.516-21.766 5.513-4.393 10.85-8.644 14.992-12.005a312.271 312.271 0 0 0 5.06-4.171c1.194-1.012 1.576-1.385 1.544-1.337 1.2-1.381 1.553-1.902 1.834-2.469.301-.609.823-1.919 1.285-4.972.998-6.588 1.411-23.354.385-33.058-1.224-11.572-.617-30.61-.518-35.665a39.54 39.54 0 0 0-.04-2.997c-.548-.295-1.189-.64-1.958-1.056-3.825-2.074-9.272-5.141-14.806-9.712-5.328-4.4-10.623-10.276-16.054-16.04-5.672-6.019-12.333-12.873-21.266-20.502-8.259-7.054-18.658-14.514-21.37-16.37-.338-.23-.686-.475-.988-.687l-.776-.542Z" />
</svg>
