<svg xmlns="http://www.w3.org/2000/svg" fill="none" viewBox="0 0 256 256">
  <style>
    .icon-path { fill: #0c0a09 }

    @media (prefers-color-scheme: dark) {
      .icon-path { fill: #ffffff }
    }
  </style>

  <path class="icon-path" d="m53.196 61.917-6.031-10.374-.035.02-.034.02 6.1 10.334Zm22.63-15.377 7.86 9.069-7.86-9.069Zm48.161-29.447 5.67 10.576-5.67-10.576Zm9.832-3.978-.216-11.998.216 11.998Zm7.851 4.155-6.776 9.904 6.776-9.904Zm22.387 17.148-7.67 9.228 7.67-9.228Zm38.168 36.415-7.718 9.188 7.718-9.188ZM221.17 83.78l11.375-3.821-.415-1.236-.67-1.117-10.29 6.174Zm-77.382 156.075 6.83 9.866-6.83-9.866Zm-19.435-3.577-7.122 9.658 7.122-9.658ZM73.848 197.05l-6.257 10.24 6.257-10.24Zm-38.874-25.574-10.365 6.046 10.365-6.046Zm-1.832-8.815h-12 12Zm.325-89.864-7.55-9.327 7.55 9.327Zm101.926 169.998-1.873 11.853 1.873-11.853Zm-84.506-60.902 6.59-10.028-.149-.098-.152-.093-6.29 10.219Zm2.31-119.976 6.03 10.374c5.917-3.44 18.766-11.749 24.458-16.682l-7.859-9.069-7.86-9.068c-3.941 3.417-15.208 10.82-20.801 14.071l6.031 10.374Zm22.63-15.377 7.858 9.069c5.961-5.166 14.88-12.21 21.188-15.53l-5.59-10.619-5.588-10.619c-8.947 4.71-19.645 13.36-25.728 18.631l7.86 9.069Zm23.457-17.08 5.589 10.62c3.64-1.916 8.626-4.378 13.364-6.707 4.554-2.239 9.107-4.464 11.42-5.704l-5.67-10.576-5.67-10.576c-1.828.98-5.813 2.93-10.668 5.317-4.671 2.297-9.966 4.909-13.954 7.007l5.589 10.62Zm24.703-12.367 5.67 10.576a58.672 58.672 0 0 1 4.425-2.146 18.286 18.286 0 0 1 1.483-.573c.132-.042.102-.026-.058.008a7.71 7.71 0 0 1-1.472.155l-.216-11.998-.216-11.998c-2.288.04-4.314.645-5.303.96-1.255.398-2.51.892-3.623 1.366-2.24.954-4.559 2.108-6.36 3.074l5.67 10.576Zm9.832-3.978.216 11.998a8.525 8.525 0 0 1-2.124-.218 5.432 5.432 0 0 1-.778-.24c-.14-.057-.026-.023.405.237.399.241.877.557 1.469.966.293.203.579.404.899.628.301.212.65.456.988.688l6.776-9.904 6.776-9.904c-.581-.397-2.698-1.93-4.502-3.019-.99-.597-2.296-1.325-3.771-1.925-1.331-.541-3.696-1.357-6.57-1.305l.216 11.998Zm7.851 4.155-6.776 9.904c2.606 1.783 12.982 9.398 21.493 16.472l7.67-9.228 7.671-9.229c-9.074-7.542-20.046-15.61-23.282-17.823l-6.776 9.904Zm22.387 17.148-7.67 9.228c4.057 3.372 10.21 9.532 17.377 16.686 6.835 6.822 14.475 14.424 20.743 19.689l7.718-9.188 7.718-9.189c-5.314-4.463-12.167-11.254-19.225-18.298-6.726-6.715-13.867-13.898-18.99-18.157l-7.671 9.229Zm38.168 36.415-7.718 9.188c5.398 4.535 10.491 7.575 14.074 9.645 1.953 1.128 2.994 1.71 3.8 2.23.357.23.357.253.184.106-.111-.093-.916-.766-1.685-2.048l10.29-6.174 10.29-6.174c-1.976-3.293-5.076-5.24-6.083-5.888-1.451-.934-3.336-1.993-4.79-2.833-3.23-1.866-6.874-4.075-10.644-7.24l-7.718 9.188ZM221.17 83.78l-11.376 3.82c.187.558.315 1.019.416 1.744.115.819.224 2.186.178 4.507l11.998.235 11.998.235c.131-6.691-.599-10.672-1.839-14.362l-11.375 3.82Zm1.216 10.306-11.998-.235c-.099 5.054-.707 24.093.517 35.665l11.934-1.262 11.933-1.263c-1.021-9.659-.506-26.657-.388-32.67l-11.998-.235Zm.453 34.168-11.934 1.262c1.027 9.704.614 26.469-.384 33.057l11.865 1.798 11.865 1.797c1.335-8.815 1.741-27.649.521-39.177l-11.933 1.263Zm-.453 36.117-11.865-1.798c-.462 3.053-.984 4.364-1.286 4.972-.292.591-.661 1.132-1.985 2.646l9.031 7.902 9.031 7.902c1.59-1.817 3.691-4.286 5.43-7.798 1.731-3.495 2.804-7.381 3.509-12.029l-11.865-1.797Zm-6.105 13.722-9.031-7.902c.35-.4.195-.185-1.393 1.161a316.903 316.903 0 0 1-5.059 4.171c-4.143 3.361-9.479 7.611-14.992 12.004-10.613 8.458-22.748 18.119-26.517 21.766l8.345 8.623 8.345 8.624c2.684-2.598 13.416-11.184 24.784-20.244 5.478-4.365 10.912-8.692 15.155-12.135a338.155 338.155 0 0 0 5.462-4.505c1.144-.97 2.854-2.429 3.932-3.661l-9.031-7.902Zm-48.647 39.823-8.345-8.623a958.51 958.51 0 0 1-13.146 12.436 456.086 456.086 0 0 1-6.38 5.829c-2.035 1.814-2.863 2.471-2.806 2.431l6.831 9.866 6.83 9.866c1.411-.976 3.434-2.749 5.115-4.249a469.98 469.98 0 0 0 6.736-6.151 987.302 987.302 0 0 0 13.51-12.781l-8.345-8.624Zm-43.281 18.362 7.122-9.658c-4.158-3.066-10.558-8.869-20.049-16.766-8.962-7.456-19.863-16.042-31.321-23.043l-6.257 10.239-6.257 10.24c9.958 6.085 19.802 13.789 28.485 21.014 8.155 6.784 16.3 14.052 21.155 17.632l7.122-9.658Zm-89.38-64.802 10.366-6.047a1.413 1.413 0 0 1-.126-.256.717.717 0 0 1-.028-.139 5.875 5.875 0 0 1-.043-.679 28.96 28.96 0 0 1-.004-.698c0-.214.004-.677.004-.996h-24c0 2.118-.413 8.21 3.467 14.861l10.365-6.046Zm-1.83-8.815h12c0-2.359-.154-7.05-.293-11.544-.145-4.71-.28-9.363-.28-12.154h-24c0 3.245.15 8.323.292 12.894.147 4.787.28 8.927.28 10.804h12Zm-.573-23.698h12c0-2.822.217-11.106.445-20.33.222-9.014.452-18.814.452-24.201h-24c0 5.02-.22 14.468-.445 23.608-.22 8.931-.452 17.709-.452 20.923h12Zm.897-44.531h12c0-5.763-.616-11.616-.846-14.897-.135-1.931-.135-2.815-.11-3.137.012-.145-.006.362-.281 1.192-.261.784-1.061 2.792-3.213 4.534l-7.55-9.327-7.55-9.327c-2.696 2.182-3.904 4.871-4.463 6.551-.573 1.725-.778 3.343-.868 4.495-.18 2.274-.043 4.737.094 6.694.314 4.494.787 8.577.787 13.222h12Zm0-21.635 7.55 9.327c-.034.027.151-.12.68-.458a46.254 46.254 0 0 1 1.905-1.14c1.56-.89 3.442-1.892 5.43-2.922 3.516-1.823 8.287-4.186 10.265-5.353l-6.1-10.334-6.101-10.333c-1.235.728-4.487 2.316-9.111 4.713-3.669 1.902-9.067 4.744-12.068 7.173l7.55 9.327Zm110.321 167.058-6.831-9.866c-.157.109-.306.215-.415.292l-.307.22c-.183.13-.321.226-.448.311a4.125 4.125 0 0 1-.445.269c-.049.023.098-.055.419-.12.346-.07.875-.119 1.506-.019l-1.874 11.853-1.873 11.853c5.144.813 9.438-.604 12.187-1.921 2.571-1.231 4.853-2.965 4.911-3.006l-6.83-9.866Zm-8.395 2.94 1.874-11.853c.561.089.714.216.366.049-.314-.151-.801-.428-1.482-.885-.67-.45-1.38-.974-2.178-1.582-.658-.502-1.718-1.329-2.498-1.904l-7.122 9.658-7.122 9.658c.6.442 3.391 2.651 5.542 4.095 2.207 1.482 6.103 3.883 10.747 4.617l1.873-11.853ZM73.848 197.05l6.257-10.239c-4.355-2.662-13.722-9.093-22.628-14.946l-6.59 10.028-6.59 10.029c8.033 5.28 18.533 12.459 23.294 15.368l6.257-10.24Zm-22.961-15.157 6.289-10.219c-1.691-1.041-3.499-2.073-5.14-3.004-1.709-.97-3.222-1.822-4.606-2.644-1.407-.837-2.369-1.461-2.97-1.909-.293-.217-.345-.279-.255-.191.04.038.573.541 1.134 1.503l-10.365 6.047-10.365 6.046c1.712 2.936 4.266 4.915 5.53 5.855 1.602 1.191 3.402 2.313 5.029 3.28 4.056 2.411 6.199 3.468 9.43 5.456l6.289-10.22Z" />
</svg>
