<svg width="79" height="35" viewBox="0 0 79 35" fill="none" xmlns="http://www.w3.org/2000/svg">
  <style>
    path { color: #0c0a09 }

    @media (prefers-color-scheme: dark) {
      path { color: #ffffff }
    }
  </style>

  <path d="M9.08006 0.809998H8.46006C6.43006 0.809998 4.73006 1.81 4.00006 3.36C1.95006 7.67 0.810059 12.42 0.810059 17.4C0.810059 22.38 1.95006 27.13 3.99006 31.44C4.73006 32.99 6.42006 33.99 8.30006 33.99H70.1201C71.9901 33.99 73.6901 32.99 74.4301 31.44C76.4801 27.13 77.6101 22.39 77.6101 17.4C77.6101 12.41 76.4701 7.67 74.4301 3.36C73.6901 1.81 72.0001 0.809998 70.1201 0.809998H14.1401" stroke="currentColor" stroke-width="1.63" stroke-linecap="round" stroke-linejoin="round"/>
  <path d="M16.5001 15.77C17.1401 15.77 17.5401 15.34 17.5401 14.72C17.5401 14.1 17.1301 13.68 16.4101 13.68H15.0601V15.77H16.5001ZM16.2701 12.34C16.7701 12.34 17.1101 12.06 17.1101 11.62C17.1101 11.18 16.8301 10.9 16.3501 10.9H15.0601V12.33H16.2701V12.34ZM13.4901 9.52997H16.4301C17.8501 9.52997 18.6501 10.43 18.6501 11.5C18.6501 12.21 18.2401 12.69 17.5701 12.9C18.6101 13.15 19.1201 13.84 19.1201 14.79C19.1201 16.14 18.1601 17.14 16.5701 17.14H13.4901V9.52997Z" fill="currentColor"/>
  <path d="M21.3601 14.39V9.52997H22.9301V14.3C22.9301 15.41 23.4101 15.83 24.4501 15.83C25.4901 15.83 25.9501 15.41 25.9501 14.3V9.52997H27.5201V14.39C27.5201 16.32 26.1901 17.24 24.4501 17.24C22.7101 17.24 21.3601 16.31 21.3601 14.39Z" fill="currentColor"/>
  <path d="M32.2701 13.88C33.5501 13.88 34.1101 13.48 34.1101 12.4C34.1101 11.32 33.5301 10.9 32.2701 10.9H31.7801V13.88H32.2701ZM35.8301 17.14H34.0201L32.7701 15.21C32.6201 15.23 32.4701 15.24 32.3201 15.24H31.7801V17.13H30.2101V9.52002H32.3201C34.4501 9.52002 35.7201 10.54 35.7201 12.4C35.7201 13.59 35.1901 14.34 34.2501 14.76L35.8301 17.13V17.14Z" fill="currentColor"/>
  <path d="M40.19 13.88C41.47 13.88 42.03 13.48 42.03 12.4C42.03 11.32 41.45 10.9 40.19 10.9H39.7V13.88H40.19ZM43.75 17.14H41.94L40.69 15.21C40.54 15.23 40.39 15.24 40.24 15.24H39.7V17.13H38.13V9.52002H40.24C42.37 9.52002 43.64 10.54 43.64 12.4C43.64 13.59 43.11 14.34 42.17 14.76L43.75 17.13V17.14Z" fill="currentColor"/>
  <path d="M47.6501 9.52997H46.0801V17.14H47.6501V9.52997Z" fill="currentColor"/>
  <path d="M51.83 10.91H49.65V9.52997H55.57V10.91H53.39V17.14H51.83V10.91Z" fill="currentColor"/>
  <path d="M63.32 13.34C63.32 11.92 62.3801 10.83 60.9901 10.83C59.6001 10.83 58.66 11.92 58.66 13.34C58.66 14.76 59.6001 15.85 60.9901 15.85C62.3801 15.85 63.32 14.76 63.32 13.34ZM57.05 13.34C57.05 11.09 58.8001 9.42999 60.9901 9.42999C63.1801 9.42999 64.93 11.09 64.93 13.34C64.93 15.59 63.1801 17.25 60.9901 17.25C58.8001 17.25 57.05 15.59 57.05 13.34Z" fill="currentColor"/>
  <path d="M21.6901 23.32C21.6901 22.15 22.5901 21.3 23.7201 21.3C24.4301 21.3 24.9401 21.56 25.3001 22.11L24.6801 22.55C24.4901 22.25 24.1701 22.03 23.7201 22.03C23.0101 22.03 22.5201 22.58 22.5201 23.32C22.5201 24.06 23.0001 24.62 23.7201 24.62C24.2301 24.62 24.5201 24.38 24.7401 24.04L25.3701 24.48C25.0301 25.01 24.4801 25.35 23.7201 25.35C22.5901 25.35 21.6901 24.49 21.6901 23.32Z" fill="currentColor"/>
  <path d="M30.1101 23.32C30.1101 22.58 29.6201 22.02 28.9001 22.02C28.1801 22.02 27.6901 22.58 27.6901 23.32C27.6901 24.06 28.1801 24.62 28.9001 24.62C29.6201 24.62 30.1101 24.06 30.1101 23.32ZM26.8601 23.32C26.8601 22.15 27.7701 21.29 28.9001 21.29C30.0301 21.29 30.9401 22.15 30.9401 23.32C30.9401 24.49 30.0401 25.35 28.9001 25.35C27.7601 25.35 26.8601 24.49 26.8601 23.32Z" fill="currentColor"/>
  <path d="M39.9201 23.68C40.5801 23.68 40.8701 23.41 40.8701 22.87C40.8701 22.33 40.5701 22.06 39.9201 22.06H39.6701V23.68H39.9201ZM38.8501 21.35H39.9401C41.0401 21.35 41.7001 21.93 41.7001 22.88C41.7001 23.83 41.0301 24.4 39.9401 24.4H39.6601V25.3H38.8501V21.35Z" fill="currentColor"/>
  <path d="M45.1301 24.17L44.8501 23.49L44.6101 22.92L44.3701 23.49L44.0801 24.17H45.1201H45.1301ZM44.5901 21.31H44.6601L46.4701 25.29H45.6201L45.4301 24.84H43.8301L43.6401 25.29H42.8601L44.6001 21.31H44.5901Z" fill="currentColor"/>
  <path d="M50.6001 23.62V23V21.35H51.3601V25.33H51.2801L48.8801 23.02V23.64V25.3H48.1201V21.31H48.2001L50.6001 23.62Z" fill="currentColor"/>
  <path d="M54.51 24.04L53.01 21.35H53.91L54.61 22.62L54.93 23.19L55.24 22.62L55.91 21.35H56.74L55.33 23.99V25.3H54.51V24.04Z" fill="currentColor"/>
  <path d="M33.5901 23.22V23.82V25.3H32.8101V21.31H32.8701L34.8001 23.46L36.7301 21.31H36.8001V25.3H36.0201V23.82V23.22L35.6201 23.69L34.8401 24.53H34.7701L33.5901 23.22Z" fill="currentColor"/>
</svg>