<svg width="153" height="33" viewBox="0 0 153 33" fill="none" xmlns="http://www.w3.org/2000/svg">
  <style>
    path { fill: #0c0a09 }

    @media (prefers-color-scheme: dark) {
      path { fill: #ffffff }
    }
  </style>

  <path fill-rule="evenodd" clip-rule="evenodd" d="M7.76278 30.5571C7.76278 31.1691 7.70776 31.5972 7.5977 31.8428C7.48631 32.0884 7.3266 32.2106 7.11723 32.2106H1.41999C1.21063 32.2106 1.02005 32.1797 0.848257 32.1193C0.681908 32.0612 0.530604 31.9668 0.405362 31.8428C0.273787 31.7066 0.173084 31.5436 0.110099 31.365C0.0318056 31.1409 -0.00547382 30.9045 4.6143e-05 30.6671V1.526C4.6143e-05 1.26832 0.036283 1.04285 0.110099 0.845556C0.183915 0.649609 0.281888 0.487214 0.405362 0.358372C0.527389 0.23073 0.679759 0.136076 0.848257 0.0832403C1.03341 0.0261934 1.22626 -0.00187516 1.41999 2.97987e-05H7.11723C7.21594 0.000297601 7.31244 0.0292033 7.39505 0.0832403C7.48094 0.138267 7.55207 0.230872 7.6071 0.358372C7.66078 0.487214 7.70105 0.656319 7.72655 0.864345C7.7507 1.07237 7.76278 1.33542 7.76278 1.65485C7.76278 2.27892 7.70776 2.71108 7.5977 2.94998C7.48631 3.18887 7.3266 3.30832 7.11723 3.30832H4.33236V28.9023H7.11723C7.21655 28.9023 7.30915 28.9291 7.39505 28.9761C7.49443 29.0422 7.56903 29.1394 7.6071 29.2526C7.66078 29.3868 7.70105 29.5586 7.72655 29.7666C7.7507 29.9746 7.76278 30.2377 7.76278 30.5584V30.5571ZM22.6816 14.425C22.0173 13.5902 21.3811 12.954 20.7732 12.5125C20.1638 12.0723 19.5277 11.8522 18.8647 11.8522C18.2607 11.8522 17.7427 12.0025 17.3065 12.3031C16.8625 12.6113 16.5015 13.0244 16.2556 13.5056C15.9809 14.0357 15.7821 14.6018 15.6651 15.1873C15.5352 15.8128 15.4704 16.4502 15.4718 17.0891C15.4718 17.7735 15.5269 18.4432 15.6369 19.0915C15.7483 19.7411 15.9295 20.3195 16.1805 20.8282C16.4328 21.3382 16.7683 21.7435 17.187 22.0495C17.6031 22.3568 18.1332 22.5085 18.7721 22.5085C19.0915 22.5085 19.4029 22.4628 19.7035 22.3716C20.0041 22.2776 20.3128 22.13 20.6255 21.922C20.9748 21.6823 21.299 21.4081 21.5932 21.1033C21.926 20.7664 22.2884 20.3531 22.6816 19.8632V14.425ZM27.2918 25.3766C27.2918 25.5108 27.2609 25.6235 27.1992 25.7161C27.1189 25.8211 27.0098 25.9004 26.8851 25.9443C26.7375 26.006 26.5388 26.0489 26.2865 26.0731C25.9768 26.1003 25.666 26.1128 25.3551 26.1107C24.9619 26.1107 24.6424 26.0973 24.3968 26.0731C24.192 26.0582 23.9901 26.0153 23.7969 25.9456C23.6673 25.9014 23.5525 25.8219 23.4654 25.7161C23.3954 25.6166 23.3601 25.4968 23.3648 25.3752V23.5567C22.5152 24.4639 21.6267 25.1672 20.6993 25.6691C19.7495 26.177 18.6868 26.4364 17.6098 26.4234C16.3576 26.4234 15.296 26.1805 14.429 25.696C13.5749 25.2247 12.8473 24.5538 12.3085 23.7405C11.7623 22.9192 11.365 21.9596 11.1194 20.8644C10.8688 19.7274 10.7451 18.5661 10.7503 17.4018C10.7503 15.9429 10.9073 14.633 11.22 13.4694C11.5341 12.3058 11.9918 11.3126 12.5944 10.4926C13.1787 9.68742 13.9515 9.03769 14.8451 8.60024C15.7416 8.15734 16.775 7.93724 17.9427 7.93724C18.8647 7.93724 19.7008 8.12513 20.4497 8.49824C21.1999 8.87269 21.9435 9.42027 22.6816 10.1423V1.26832C22.6816 1.14753 22.7152 1.03613 22.7836 0.936819C22.8791 0.819919 23.007 0.733974 23.1514 0.689872C23.3299 0.622767 23.5674 0.570424 23.8627 0.532846C24.1579 0.496609 24.531 0.479161 24.986 0.479161C25.4423 0.479161 25.8168 0.496609 26.112 0.532846C26.4073 0.570424 26.6395 0.622767 26.8126 0.689872C26.9553 0.73745 27.0823 0.822789 27.1804 0.936819C27.2534 1.03184 27.2926 1.1485 27.2918 1.26832V25.3752V25.3766ZM42.6522 15.3792C42.6897 14.0814 42.428 13.0614 41.8684 12.3192C41.3087 11.5797 40.4457 11.2093 39.2781 11.2093C38.6876 11.2093 38.1749 11.3193 37.7387 11.5394C37.3133 11.7506 36.9412 12.0553 36.6503 12.4306C36.3617 12.8051 36.1403 13.2453 35.9859 13.7539C35.8283 14.2822 35.7381 14.8283 35.7175 15.3792H42.6522ZM47.1522 16.7039C47.1522 17.2662 47.0261 17.6836 46.7738 17.952C46.5214 18.2218 46.1752 18.356 45.7323 18.356H35.7188C35.7188 19.0539 35.802 19.6887 35.9685 20.2578C36.1335 20.8282 36.3979 21.3113 36.7603 21.7099C37.1227 22.1085 37.5911 22.4105 38.1628 22.6185C38.7345 22.8279 39.419 22.9312 40.2189 22.9312C41.0295 22.9312 41.7422 22.8749 42.3569 22.7568C43.2838 22.5894 44.1919 22.3309 45.0679 21.9851C45.3632 21.8696 45.6034 21.8106 45.7873 21.8106C45.8987 21.8106 45.99 21.8321 46.0638 21.875C46.1376 21.9179 46.1993 21.9958 46.2477 22.1058C46.2973 22.2146 46.3309 22.3716 46.3497 22.5729C46.3684 22.7756 46.3765 23.0292 46.3765 23.3366C46.3765 23.605 46.3711 23.8358 46.359 24.0251C46.3456 24.2143 46.3282 24.3767 46.304 24.5122C46.2845 24.6305 46.247 24.745 46.1926 24.8518C46.1404 24.9486 46.0754 25.038 45.9994 25.1175C45.9188 25.2034 45.7014 25.3188 45.3444 25.4665C44.9874 25.6141 44.5338 25.7577 43.9795 25.8986C43.3532 26.0537 42.7193 26.1765 42.0804 26.2664C41.3691 26.3711 40.6054 26.4221 39.7948 26.4221C38.3319 26.4221 37.0502 26.2395 35.9483 25.8718C34.8478 25.5041 33.9298 24.9471 33.1917 24.1995C32.4562 23.452 31.9032 22.5085 31.5422 21.3704C31.1798 20.2296 30.9973 18.8955 30.9973 17.3642C30.9973 15.9067 31.1892 14.5927 31.5704 13.4224C31.9502 12.2548 32.5045 11.2616 33.2292 10.4456C33.9566 9.6293 34.8622 8.99142 35.8759 8.58145C36.9147 8.15198 38.085 7.93724 39.3882 7.93724C40.7652 7.93724 41.9422 8.14124 42.9206 8.54521C43.8976 8.94785 44.7002 9.51019 45.3256 10.2255C45.9648 10.9641 46.4369 11.8322 46.7093 12.7702C47.0046 13.7499 47.1522 14.8169 47.1522 15.9684V16.7039ZM61.9597 14.425C61.2953 13.5902 60.6578 12.954 60.0512 12.5125C59.4432 12.0723 58.8057 11.8522 58.1427 11.8522C57.5388 11.8522 57.0207 12.0025 56.5859 12.3031C56.1413 12.611 55.7798 13.0241 55.5337 13.5056C55.2593 14.0359 55.0605 14.6019 54.9431 15.1873C54.8136 15.8129 54.7488 16.4502 54.7499 17.0891C54.7499 17.7735 54.8036 18.4432 54.915 19.0915C55.0264 19.7411 55.2075 20.3195 55.4599 20.8282C55.7108 21.3382 56.0464 21.7435 56.4638 22.0495C56.8825 22.3568 57.4113 22.5085 58.0501 22.5085C58.3695 22.5085 58.6809 22.4628 58.9815 22.3716C59.3089 22.2667 59.6194 22.1153 59.9036 21.922C60.2163 21.7126 60.5397 21.4388 60.8712 21.1033C61.2027 20.7664 61.5651 20.3531 61.9597 19.8632V14.425ZM66.5698 25.3766C66.5698 25.5108 66.5389 25.6235 66.4772 25.7161C66.3971 25.8212 66.2879 25.9005 66.1631 25.9443C65.9708 26.0156 65.7692 26.059 65.5646 26.0731C65.2549 26.1008 64.9441 26.1134 64.6331 26.1107C64.2399 26.1107 63.9218 26.0973 63.6749 26.0731C63.4701 26.0579 63.2682 26.0151 63.075 25.9456C62.9453 25.9014 62.8305 25.8219 62.7435 25.7161C62.6734 25.6166 62.6376 25.4969 62.6415 25.3752V23.5567C61.7933 24.4639 60.9048 25.1672 59.9774 25.6691C59.0276 26.1771 57.9648 26.4365 56.8879 26.4234C55.6343 26.4234 54.5741 26.1805 53.7071 25.696C52.8529 25.2247 52.1254 24.5538 51.5865 23.7405C51.0403 22.9192 50.643 21.9596 50.3974 20.8644C50.1469 19.7274 50.0231 18.5661 50.0284 17.4018C50.0284 15.9429 50.1854 14.633 50.4981 13.4694C50.8121 12.3058 51.2698 11.3126 51.8738 10.4926C52.4575 9.68787 53.2293 9.03819 54.1218 8.60024C55.0196 8.15734 56.0517 7.93724 57.2207 7.93724C58.1427 7.93724 58.9789 8.12513 59.7291 8.49824C60.478 8.87269 61.2215 9.42027 61.9597 10.1423V1.26832C61.9597 1.14753 61.9932 1.03613 62.0617 0.936819C62.1572 0.820039 62.2852 0.734121 62.4294 0.689872C62.6598 0.610577 62.8984 0.557892 63.1407 0.532846C63.436 0.496609 63.8091 0.479161 64.2641 0.479161C64.7204 0.479161 65.0948 0.496609 65.3901 0.532846C65.6854 0.570424 65.9175 0.622767 66.0907 0.689872C66.2338 0.737233 66.3614 0.822589 66.4598 0.936819C66.5324 1.03196 66.5711 1.14864 66.5698 1.26832V25.3752V25.3766ZM91.3531 20.7463C91.3531 21.6764 91.1786 22.4964 90.8284 23.2064C90.4781 23.9177 89.9828 24.5122 89.3427 24.99C88.6609 25.4874 87.8914 25.8517 87.0745 26.0637C86.1486 26.31 85.1939 26.4309 84.2359 26.4234C83.6458 26.4252 83.0564 26.379 82.4738 26.2852C81.9649 26.2056 81.4625 26.0889 80.9706 25.9362C80.5915 25.8206 80.2217 25.6762 79.8647 25.5041C79.5694 25.3564 79.3547 25.2195 79.2192 25.0893C79.0849 24.9618 78.9803 24.7605 78.9064 24.4854C78.8326 24.2089 78.795 23.8009 78.795 23.2627C78.795 22.9071 78.8085 22.6226 78.8326 22.4078C78.8568 22.1931 78.8944 22.0226 78.9427 21.8924C78.9923 21.7649 79.0527 21.6804 79.1279 21.6374C79.2122 21.5917 79.3072 21.5694 79.403 21.573C79.5386 21.573 79.7385 21.6482 80.0043 21.8012C80.2673 21.9555 80.5962 22.1233 80.9907 22.3072C81.4357 22.5105 81.8945 22.6823 82.3637 22.8212C82.8871 22.9809 83.479 23.0601 84.1433 23.0601C84.5607 23.0601 84.9338 23.0171 85.26 22.9312C85.5605 22.8565 85.8466 22.7327 86.1068 22.5648C86.3484 22.4038 86.5269 22.2025 86.6517 21.9582C86.7739 21.7126 86.8356 21.4308 86.8356 21.1127C86.8356 20.7449 86.7215 20.4296 86.4947 20.1665C86.2392 19.8821 85.9323 19.6485 85.5901 19.478C85.1787 19.2658 84.7537 19.0811 84.3178 18.9251C83.8277 18.7482 83.3421 18.5589 82.8616 18.3573C82.3622 18.1477 81.8759 17.9079 81.4054 17.6393C80.9349 17.3725 80.5062 17.0379 80.1331 16.6462C79.7455 16.2361 79.4386 15.7567 79.2285 15.2329C79.0004 14.6827 78.8876 14.0197 78.8876 13.248C78.8876 12.4642 79.0406 11.7448 79.3493 11.0898C79.6553 10.4336 80.0982 9.8739 80.678 9.40819C81.2551 8.94248 81.957 8.58145 82.7878 8.32377C83.6186 8.06608 84.5486 7.93858 85.5821 7.93858C86.0974 7.93858 86.5994 7.97482 87.0852 8.04863C87.5697 8.12245 88.0086 8.21371 88.4032 8.32377C88.7964 8.43382 89.1279 8.55327 89.399 8.68211C89.6674 8.81095 89.862 8.921 89.9801 9.01361C90.0805 9.08779 90.1649 9.18134 90.2284 9.28874C90.2818 9.39263 90.3193 9.50391 90.3398 9.6189C90.364 9.74774 90.3855 9.90745 90.4029 10.0967C90.4217 10.2873 90.4297 10.5235 90.4297 10.804C90.4297 11.1355 90.4217 11.4039 90.4029 11.6133C90.3929 11.7819 90.3622 11.9487 90.3117 12.1098C90.2687 12.2306 90.2097 12.3138 90.1372 12.3568C90.0577 12.4011 89.9678 12.4234 89.8768 12.4212C89.7668 12.4212 89.595 12.3568 89.3628 12.2293C89.0779 12.0762 88.7854 11.9378 88.4864 11.8146C88.0894 11.6522 87.6829 11.5141 87.2691 11.4012C86.7546 11.2658 86.2241 11.2008 85.6921 11.2079C85.2747 11.2079 84.911 11.2522 84.605 11.3381C84.3301 11.4067 84.0724 11.5315 83.8481 11.7045C83.6606 11.8538 83.5099 12.044 83.4075 12.2606C83.3052 12.4772 83.2538 12.7145 83.2575 12.954C83.2575 13.3338 83.3756 13.6519 83.6078 13.9096C83.8414 14.1673 84.15 14.3928 84.5312 14.5887C84.911 14.786 85.3445 14.9699 85.8304 15.1417C86.3162 15.3134 86.8074 15.4987 87.3053 15.7013C87.8019 15.9026 88.2945 16.1402 88.7817 16.4086C89.2662 16.677 89.6997 17.0099 90.0808 17.4004C90.4606 17.7937 90.7693 18.2621 91.0028 18.8056C91.2364 19.3518 91.3531 19.9974 91.3531 20.7449V20.7463ZM104.151 23.7593C104.151 24.2988 104.117 24.7109 104.049 24.9981C103.982 25.2866 103.892 25.4893 103.782 25.6061C103.642 25.741 103.476 25.8469 103.294 25.9174C103.079 26.0087 102.825 26.0892 102.537 26.1563C102.248 26.2234 101.936 26.2758 101.597 26.3133C101.258 26.3496 100.916 26.3675 100.575 26.367C99.6514 26.367 98.8528 26.2516 98.1764 26.0194C97.5352 25.8089 96.9579 25.439 96.4988 24.9444C96.0559 24.4599 95.7297 23.8506 95.5204 23.1151C95.311 22.3796 95.2077 21.5113 95.2077 20.5061V12.1085H93.2348C93.0012 12.1085 92.8214 11.9649 92.6979 11.6777C92.5771 11.3891 92.5154 10.9087 92.5154 10.2349C92.5154 9.88061 92.5288 9.57998 92.561 9.33437C92.5802 9.13653 92.6267 8.94231 92.6993 8.75727C92.7451 8.63591 92.8248 8.5302 92.9287 8.45261C93.0249 8.39015 93.1376 8.3579 93.2522 8.36H95.2077V4.70411C95.2077 4.58198 95.2412 4.47192 95.3083 4.37395C95.4038 4.25621 95.5323 4.16974 95.6774 4.12566C95.91 4.04629 96.1517 3.99669 96.3968 3.97803C96.6974 3.9485 97.0678 3.9324 97.512 3.9324C97.9684 3.9324 98.3441 3.9485 98.6475 3.97937C98.9468 4.0089 99.1843 4.05856 99.3561 4.12566C99.4997 4.17277 99.6274 4.25871 99.7252 4.37395C99.7979 4.46861 99.8371 4.58475 99.8366 4.70411V8.36135H103.413C103.528 8.35924 103.64 8.39201 103.735 8.45529C103.829 8.51435 103.904 8.61635 103.968 8.75727C104.028 8.89819 104.075 9.09145 104.104 9.33571C104.135 9.58132 104.151 9.88195 104.151 10.2349C104.151 10.91 104.09 11.3905 103.968 11.679C103.843 11.9662 103.666 12.1098 103.431 12.1098H99.8366V19.8095C99.8366 20.7047 99.9775 21.3744 100.261 21.8227C100.543 22.2696 101.047 22.491 101.773 22.491C102.019 22.491 102.24 22.4709 102.436 22.4279C102.632 22.3837 102.808 22.3367 102.962 22.2803C103.115 22.2266 103.244 22.1756 103.349 22.134C103.439 22.0941 103.536 22.0722 103.635 22.0696C103.71 22.0701 103.784 22.0925 103.847 22.134C103.914 22.1756 103.968 22.2615 104.002 22.3904C104.04 22.5192 104.075 22.6937 104.104 22.9138C104.139 23.1943 104.155 23.4767 104.151 23.7593ZM119.254 17.2716C119.254 16.5737 119.202 15.9026 119.097 15.2598C119.007 14.6634 118.827 14.0841 118.563 13.5419C118.332 13.0669 117.991 12.6544 117.567 12.3393C117.155 12.0387 116.641 11.8884 116.028 11.8884C115.719 11.8884 115.416 11.934 115.115 12.0266C114.787 12.1307 114.476 12.2827 114.192 12.4776C113.844 12.7147 113.519 12.9853 113.224 13.2855C112.846 13.6711 112.495 14.0823 112.173 14.5162V19.9182C112.838 20.7382 113.462 21.3731 114.045 21.82C114.629 22.2682 115.24 22.491 115.879 22.491C116.483 22.491 116.995 22.338 117.419 22.0307C117.842 21.7247 118.19 21.3234 118.461 20.8282C118.732 20.3316 118.931 19.7719 119.061 19.1465C119.19 18.5211 119.254 17.8983 119.254 17.2716ZM117.005 26.4234C116.45 26.4234 115.935 26.3697 115.455 26.2664C114.976 26.1627 114.514 25.9928 114.082 25.7617C113.622 25.5127 113.189 25.2168 112.791 24.8786C112.326 24.4835 111.891 24.0537 111.491 23.5929V25.3766C111.491 25.645 111.346 25.8342 111.057 25.9456C110.768 26.0557 110.249 26.1107 109.5 26.1107C108.736 26.1107 108.218 26.0557 107.94 25.9456C107.665 25.8342 107.527 25.645 107.527 25.3766V8.98542C107.527 8.74116 107.665 8.55595 107.94 8.43516C108.218 8.31169 108.736 8.24995 109.5 8.24995C110.249 8.24995 110.761 8.31169 111.039 8.43382C111.316 8.55729 111.454 8.74116 111.454 8.98408V10.914C111.933 10.4255 112.404 9.99334 112.864 9.6189C113.301 9.26202 113.774 8.95166 114.275 8.69285C115.237 8.19214 116.307 7.9337 117.391 7.93992C118.597 7.93858 119.622 8.17479 120.471 8.64587C121.313 9.11038 122.026 9.77626 122.546 10.5839C123.08 11.4052 123.47 12.3608 123.717 13.4506C123.964 14.5404 124.086 15.7053 124.086 16.9414C124.086 18.3989 123.929 19.7142 123.616 20.8832C123.302 22.0522 122.843 23.048 122.242 23.8694C121.663 24.6688 120.902 25.3177 120.02 25.7617C119.14 26.2019 118.135 26.4234 117.005 26.4234ZM143.079 25.394C143.081 25.5096 143.045 25.6227 142.977 25.7161C142.91 25.8074 142.788 25.8812 142.608 25.9349C142.37 26.0017 142.127 26.0448 141.881 26.0637C141.482 26.0977 141.082 26.1129 140.682 26.1093C140.178 26.1093 139.77 26.0973 139.456 26.0731C139.194 26.057 138.935 26.017 138.681 25.9537C138.509 25.9145 138.348 25.8364 138.211 25.7255C138.091 25.6148 137.991 25.484 137.916 25.339L132.44 16.7025V25.3766C132.441 25.4931 132.402 25.6063 132.329 25.6973C132.226 25.8078 132.095 25.8873 131.949 25.9268C131.772 25.9886 131.536 26.0342 131.24 26.0637C130.867 26.0974 130.491 26.1126 130.116 26.1093C129.74 26.113 129.365 26.0978 128.991 26.0637C128.75 26.0443 128.511 25.9984 128.28 25.9268C128.136 25.8867 128.006 25.8072 127.904 25.6973C127.83 25.6065 127.791 25.4924 127.793 25.3752V1.21463C127.791 1.0945 127.83 0.977299 127.903 0.881793C128.003 0.765792 128.133 0.679828 128.278 0.633503C128.458 0.566398 128.695 0.515398 128.99 0.477819C129.364 0.436725 129.74 0.418349 130.116 0.422793C130.569 0.422793 130.945 0.441582 131.24 0.477819C131.536 0.515398 131.772 0.56774 131.949 0.633503C132.129 0.700609 132.255 0.783819 132.329 0.881793C132.401 0.977033 132.44 1.09365 132.439 1.21329V15.6007L137.308 9.07803C137.405 8.9304 137.516 8.80156 137.638 8.6915C137.781 8.57113 137.948 8.48321 138.128 8.43382C138.332 8.37342 138.582 8.32645 138.884 8.29692C139.268 8.26262 139.653 8.24694 140.038 8.24995C140.492 8.24995 140.875 8.26606 141.188 8.29692C141.504 8.32645 141.753 8.37342 141.945 8.43382C142.136 8.49555 142.267 8.57205 142.342 8.66332C142.417 8.76092 142.455 8.88142 142.451 9.00421C142.451 9.18808 142.405 9.38403 142.314 9.59206C142.22 9.80008 142.083 10.0215 141.899 10.2524L137.085 15.6919L142.655 24.2733C142.803 24.5176 142.91 24.7297 142.977 24.9068C143.044 25.0853 143.079 25.2464 143.079 25.394ZM153 30.6671C153 30.9356 152.958 31.1691 152.879 31.365C152.811 31.5433 152.708 31.7062 152.576 31.8442C152.451 31.9676 152.299 32.0616 152.133 32.1193C151.96 32.1797 151.771 32.2106 151.561 32.2106H145.844C145.636 32.2106 145.475 32.0884 145.366 31.8442C145.255 31.5986 145.2 31.1691 145.2 30.5571C145.2 30.2377 145.213 29.9746 145.245 29.7679C145.268 29.5913 145.311 29.4179 145.374 29.2512C145.412 29.1407 145.482 29.0446 145.577 28.9761C145.658 28.927 145.751 28.9019 145.845 28.9036H148.649V3.30832H145.844C145.636 3.30832 145.475 3.18753 145.366 2.94863C145.255 2.71108 145.2 2.27892 145.2 1.6535C145.2 1.33542 145.213 1.07237 145.245 0.864345C145.267 0.690919 145.31 0.520905 145.374 0.358372C145.415 0.24949 145.485 0.154159 145.577 0.0832403C145.655 0.0279568 145.749 -0.00116128 145.845 2.97987e-05H151.563C151.769 2.97987e-05 151.96 0.0268719 152.134 0.0832403C152.302 0.136333 152.454 0.230966 152.576 0.358372C152.698 0.487214 152.8 0.649609 152.879 0.845556C152.958 1.04285 153 1.26832 153 1.526V30.6671Z" />
</svg>
