<svg width="176" height="120" viewBox="0 0 176 120" fill="none" xmlns="http://www.w3.org/2000/svg">
<g clip-path="url(#clip0_2_3516)">
<path class="shorthand" d="M175.588 0H0V120H175.588V0Z" fill="#D70000"/>
<path d="M132.333 93.9728C132.333 100.248 135.454 103.126 139.803 103.126C143.445 103.126 144.709 101.445 145.118 100.847H145.192V101.333C145.192 104.62 143.594 106.415 139.654 106.415C136.644 106.415 134.971 104.769 134.265 104.136L132.444 108.579C133.448 109.401 135.64 111.046 139.803 111.046C147.273 111.046 150.657 107.534 150.657 100.661V85.8298C149.691 85.3442 147.312 84.2236 143.149 84.2236C136.941 84.2221 132.333 86.9878 132.333 93.9728ZM145.082 96.9237C144.599 97.5213 143.67 98.4552 141.737 98.4552C139.507 98.4552 138.02 97.2225 138.02 93.674C138.02 90.2001 139.953 88.7418 142.555 88.7418C143.818 88.7418 144.599 89.0033 145.082 89.19V96.9237Z" fill="white"/>
<path d="M51.2731 19.1199C53.28 19.1199 54.4322 18.0367 54.4322 16.2437V16.1317C54.4322 14.3387 53.28 13.2539 51.2731 13.2539C49.2661 13.2539 48.1511 14.3371 48.1511 16.1317V16.2437C48.1511 18.0367 49.2661 19.1199 51.2731 19.1199Z" fill="white"/>
<path d="M54.0593 21.3271H48.4844V39.7811H54.0593V21.3271Z" fill="white"/>
<path class="shorthand" d="M19.683 31.0347H30.2381V25.992H19.683V21.9205C19.683 19.3789 21.1324 18.6692 24.3287 18.6692C26.8932 18.6692 29.7178 19.0428 31.3531 19.4163V14.2242C29.4948 13.9254 27.2277 13.625 23.8069 13.625C17.4143 13.625 13.8076 16.0156 13.8076 21.2092V39.7753H19.6799V31.0347H19.683Z" fill="white"/>
<path d="M41.3137 54.4897V44.9258H35.7388V69.7298C36.7423 70.4395 39.1581 71.8978 43.6567 71.8978C49.9749 71.8978 53.9904 68.8722 53.9904 61.4374C53.9904 55.4967 51.0543 52.5458 46.743 52.5458C43.8069 52.5458 42.1344 53.78 41.3911 54.4897H41.3137ZM48.3009 61.9246C48.3009 65.8466 46.6284 67.2661 43.9896 67.2661C42.5402 67.2661 41.7225 66.8925 41.3137 66.6311V58.7122C41.7968 58.1145 42.9862 57.1792 44.733 57.1792C46.9629 57.1792 48.3009 58.5986 48.3009 61.9246Z" fill="white"/>
<path d="M85.4645 40.2244C89.0325 40.2244 90.3333 38.5435 90.8164 37.8338H90.8908V39.7762H96.1684V13.2539H90.5934V22.779H90.5191C90.0359 22.2187 88.8466 20.8724 85.799 20.8724C81.4506 20.8724 77.8455 24.2357 77.8455 30.5484C77.8455 37.1241 80.9302 40.2244 85.4645 40.2244ZM87.3972 25.4699C89.2926 25.4699 90.1474 26.4769 90.5934 27.0746V33.9491C90.1474 34.5078 89.2926 35.4806 87.36 35.4806C85.1672 35.4806 83.569 33.9491 83.569 30.3616C83.569 27.0388 85.2415 25.4699 87.3972 25.4699Z" fill="white"/>
<path d="M93.1585 48.8477V52.9939H90.8914V57.4031H93.1585V64.5002C93.1585 70.2168 95.8344 71.8229 100.146 71.8229C101.744 71.8229 102.933 71.4868 103.268 71.3373V66.8176C103.008 66.8923 102.376 67.0791 101.595 67.0791C99.6997 67.0791 98.7334 66.4456 98.7334 63.8294V57.4046H103.268V52.9954H98.7334V48.8492L93.1585 48.8477Z" fill="white"/>
<path d="M120.957 21.3271H115.382V39.7811H120.957V21.3271Z" fill="white"/>
<path d="M134.227 40.2231C137.683 40.2231 139.616 39.2146 140.619 38.5796L139.207 34.396C138.575 34.8069 137.423 35.4793 135.267 35.4793C132.331 35.4793 130.473 33.8731 130.473 30.3603C130.473 27.0359 132.629 25.4671 135.453 25.4671C137.311 25.4671 138.389 26.1394 139.058 26.5877L140.805 22.552C139.727 21.7676 138.129 20.8711 134.821 20.8711C129.767 20.8711 124.785 23.9356 124.785 30.6218C124.785 37.2349 128.725 40.2231 134.227 40.2231Z" fill="white"/>
<path d="M155.003 20.8739C151.881 20.8739 150.283 22.2187 149.54 23.042H149.465V13.2539H143.89V39.7762H149.465V27.0746C150.023 26.4411 151.175 25.5057 152.81 25.5057C154.929 25.5057 155.895 26.589 155.895 29.2037V39.7762H161.507V28.2699C161.507 23.0793 158.757 20.8739 155.003 20.8739Z" fill="white"/>
<path d="M67.107 40.2255C71.6413 40.2255 73.8712 38.5819 74.8747 37.6855L73.0536 33.9501C72.4218 34.4357 70.8608 35.6684 68.0733 35.6684C65.2115 35.6684 63.7249 34.361 63.3904 31.8957H74.8763V29.9907C74.8763 23.8632 71.9773 20.875 66.8112 20.875C61.9425 20.875 57.8914 24.1621 57.8914 30.4763C57.8883 37.1625 61.6049 40.2255 67.107 40.2255ZM66.8468 25.2842C68.891 25.2842 69.8945 26.5916 69.8945 28.6087H63.3532C63.5762 26.4422 64.9142 25.2842 66.8468 25.2842Z" fill="white"/>
<path d="M118.172 19.1199C120.178 19.1199 121.331 18.0367 121.331 16.2437V16.1317C121.331 14.3387 120.178 13.2539 118.172 13.2539C116.165 13.2539 115.05 14.3371 115.05 16.1317V16.2437C115.05 18.0367 116.165 19.1199 118.172 19.1199Z" fill="white"/>
<path class="shorthand" d="M23.1018 71.8216C27.3388 71.8216 29.6059 71.3733 31.6144 70.8504V65.9945C29.6818 66.3307 27.1917 66.7042 24.4414 66.7042C21.1336 66.7042 19.6841 66.0303 19.6841 63.6039V60.653H30.1665V55.9092H19.6825V50.6408H31.3155V45.6729H13.8103V64.4646C13.8103 69.5057 17.3411 71.8216 23.1018 71.8216Z" fill="white"/>
<path d="M100.742 97.2565C100.221 97.8542 99.1807 98.788 97.4339 98.788C95.3154 98.788 94.3491 97.7795 94.3491 95.0901V84.667H88.7742V96.136C88.7742 101.403 91.413 103.569 95.2782 103.569C98.8834 103.569 100.296 102.038 100.965 101.179H101.039V103.121H106.354V84.667H100.742V97.2565Z" fill="white"/>
<path d="M88.8851 52.584C85.057 52.584 83.6447 54.1528 82.9757 55.7964H82.9014V52.9933H77.6238V71.4489H83.1987V59.6811C83.9792 58.3737 85.4658 57.2889 87.8816 57.2889C88.3276 57.2889 88.6621 57.3247 88.8851 57.3636V52.584Z" fill="white"/>
<path d="M80.8233 80.5234H75.2483V84.6696H72.9812V89.0789H75.2483V96.176C75.2483 101.893 77.9243 103.499 82.2356 103.499C83.8337 103.499 85.023 103.163 85.3575 103.013V98.4934C85.0974 98.5681 84.4655 98.7549 83.685 98.7549C81.7896 98.7549 80.8233 98.1214 80.8233 95.5052V89.0804H85.3575V84.6696H80.8233V80.5234Z" fill="white"/>
<path d="M122.002 84.2197C118.657 84.2197 117.059 85.7154 116.278 86.6103H116.204V84.668H110.927V103.122H116.501V90.4203C117.059 89.7869 118.174 88.8904 119.846 88.8904C121.891 88.8904 122.931 89.9737 122.931 92.551V103.124H128.543V91.5798C128.543 86.4251 125.867 84.2197 122.002 84.2197Z" fill="white"/>
<path d="M112.15 25.6933V20.9121C108.322 20.9121 106.909 22.4809 106.24 24.1245H106.166V21.323H100.888V39.777H106.463V28.0092C107.244 26.7018 108.73 25.6186 111.146 25.6186C111.592 25.6186 111.927 25.656 112.15 25.6933Z" fill="white"/>
<path d="M61.7923 83.8482V84.6684H59.5251V89.0776H61.7923V103.122H67.3672V89.0776H71.3811V84.6684H67.3672V83.6614C67.3672 81.607 68.4822 80.8584 70.3033 80.8584C71.1953 80.8584 71.6413 81.0093 71.8643 81.084V76.7122C71.567 76.6374 70.7865 76.376 69.4113 76.376C64.9886 76.376 61.7923 78.6934 61.7923 83.8482Z" fill="white"/>
<path d="M53.0953 76.6016C51.0884 76.6016 49.9734 77.6848 49.9734 79.4793V79.5914C49.9734 81.3828 51.0884 82.4676 53.0953 82.4676C55.1023 82.4676 56.2545 81.3843 56.2545 79.5914V79.4793C56.2545 77.6848 55.1023 76.6016 53.0953 76.6016Z" fill="white"/>
<path d="M42.0211 80.5234H36.4462V84.6696H34.1775V89.0789H36.4446V96.176C36.4446 101.893 39.1206 103.499 43.4319 103.499C45.03 103.499 46.2193 103.163 46.5538 103.013V98.4934C46.2936 98.5681 45.6618 98.7549 44.8813 98.7549C42.9859 98.7549 42.0195 98.1214 42.0195 95.5052V89.0804H46.5538V84.6696H42.0195L42.0211 80.5234Z" fill="white"/>
<path d="M73.8327 69.3599L72.0116 65.6245C71.3798 66.1101 69.8188 67.3428 67.0313 67.3428C64.1695 67.3428 62.6829 66.0354 62.3484 63.5701H73.8343V61.6651C73.8343 55.5377 70.9353 52.5479 65.7692 52.5479C60.9005 52.5479 56.8494 55.8349 56.8494 62.1492C56.8494 68.8369 60.566 71.8999 66.0681 71.8999C70.5993 71.8999 72.8293 70.2579 73.8327 69.3599ZM65.8049 56.9571C67.849 56.9571 68.8525 58.2644 68.8525 60.2815H62.3112C62.5342 58.115 63.8722 56.9571 65.8049 56.9571Z" fill="white"/>
<path d="M39.5669 28.0131C40.3473 26.7057 41.834 25.6225 44.2498 25.6225C44.6958 25.6225 45.0303 25.6583 45.2533 25.6972V20.916C41.4252 20.916 40.0129 22.4848 39.3439 24.1284H39.2695V21.3253H33.9919V39.7793H39.5669V28.0131Z" fill="white"/>
<path d="M55.8823 84.667H50.3074V103.121H55.8823V84.667Z" fill="white"/>
<path class="shorthand" d="M24.8488 87.8441C19.7199 86.2379 18.9394 85.6029 18.9394 84.034C18.9394 82.5757 20.426 81.866 23.2507 81.866C25.9638 81.866 27.8593 82.7251 29.6432 83.5469L30.944 78.7268C28.9742 77.7556 26.6699 76.8965 22.879 76.8965C17.2297 76.8965 13.0671 79.9221 13.0671 84.4807C13.0671 88.4401 15.2228 90.5319 20.5747 92.3249C24.8488 93.7443 25.9638 94.454 25.9638 96.0602C25.9638 97.517 23.994 98.4134 20.7605 98.4134C17.8616 98.4134 15.7059 97.9652 13.4373 97.1808V102.449C15.7044 103.121 17.5255 103.495 21.2793 103.495C27.04 103.495 31.9475 100.544 31.9475 95.4252C31.9491 91.5794 29.7934 89.4502 24.8488 87.8441Z" fill="white"/>
<path d="M126.144 79.9048C135.863 79.9048 143.768 71.9595 143.768 62.1917C143.768 52.4238 135.863 44.4785 126.144 44.4785C116.425 44.4785 108.519 52.4238 108.519 62.1917C108.519 71.9595 116.426 79.9048 126.144 79.9048ZM125.244 78.0496C121.673 77.8457 118.418 76.459 115.863 74.2583H125.244V78.0496ZM127.044 78.0496V74.2583H136.425C133.871 76.459 130.615 77.8473 127.044 78.0496ZM138.138 72.5369H127.044V68.6538H140.589C139.96 70.0701 139.132 71.3759 138.138 72.5369ZM141.25 66.934H127.044V63.071H141.924C141.851 64.4064 141.633 65.7044 141.25 66.934ZM126.144 46.287C134.587 46.287 141.487 52.9717 141.927 61.3497H127.044V51.753L133.854 58.5964C134.026 58.7692 134.251 58.8564 134.475 58.8564C134.7 58.8564 134.924 58.7692 135.096 58.598C135.438 58.2525 135.438 57.6937 135.096 57.3498L126.765 48.9765C126.435 48.6449 125.853 48.6449 125.523 48.9765L117.191 57.3498C116.849 57.6937 116.849 58.254 117.191 58.598C117.534 58.942 118.09 58.9435 118.433 58.5964L125.244 51.753V61.3497H110.362C110.8 52.9717 117.701 46.287 126.144 46.287ZM110.364 63.0695H125.244V66.9324H111.039C110.655 65.7044 110.436 64.4064 110.364 63.0695ZM125.244 68.6538V72.5369H114.15C113.156 71.3743 112.327 70.0701 111.699 68.6538H125.244Z" fill="white"/>
</g>
<defs>
<clipPath id="clip0_2_3516">
<rect width="175.588" height="120" fill="white"/>
</clipPath>
</defs>
</svg>