<svg width="809" height="187" viewBox="0 0 809 187" fill="none" xmlns="http://www.w3.org/2000/svg">
  <style>
    path { fill: #0c0a09 }

    @media (prefers-color-scheme: dark) {
      path { fill: #ffffff }
    }
  </style>

  <path d="M64.7 90.3L35 43.9L63.1 14.1H47.3L12 51.9V14.1H0V90.3H12V68.5L26.5 53L50 90.3H64.7Z" />
  <path d="M130.2 78.8H85.6V56.6H125.8V45.1H85.6V25.6H129.1V14.1H73.6V90.3H130.2V78.8Z" />
  <path d="M176.2 91.4C190.3 91.4 198.9 84.5999 203.8 74.0999V90.3H214V50H170.7V61.5H199.3C197.9 68.9 191.5 80 177.2 80C162.3 80 151.1 68.5999 151.1 52.2999C151.1 35.4 162.9 24.6 177 24.6C189.6 24.6 199.4 30.5999 202.6 42.0999L213.6 35.7999C208.6 22.9999 196.1 13.2 176.7 13.2C154.9 13.2 138.6 30.1 138.6 52.4C138.7 75.1 154.4 91.4 176.2 91.4Z" />
  <path d="M289.8 90.3H300V50H256.7V61.5H285.3C283.9 68.9 277.5 80 263.2 80C248.3 80 237.1 68.5999 237.1 52.2999C237.1 35.4 248.9 24.6 263 24.6C275.6 24.6 285.4 30.5999 288.6 42.0999L299.6 35.7999C294.6 22.9999 282.1 13.2 262.6 13.2C240.8 13.2 224.5 30.1 224.5 52.4C224.5 75.2 240.3 91.5 262 91.5C276.1 91.5 284.7 84.6999 289.6 74.1999L289.8 90.3Z" />
  <path d="M326 56.6H366.2V45.1H326V25.6H369.5V14.1H314V90.3H370.6V78.8H326V56.6Z" />
  <path d="M395.8 22.8L431.2 90.3H452V14.1H440.1V81.7L404.6 14.1H383.8V90.3H395.8V22.8Z" />
  <path d="M521 45.1H479.6V14.1H467.7V90.3H479.6V56.6H521V90.3H533V14.1H521V45.1Z" />
  <path d="M585 13.1C562.7 13.1 545.3 30.5 545.3 52.3C545.3 74.1 562.7 91.5 585 91.5C607.3 91.5 624.7 74.1 624.7 52.3C624.7 30.5 607.3 13.1 585 13.1ZM585 79.9C570.1 79.9 557.8 69 557.8 52.3C557.8 35.6 569.8 24.4 585 24.4C600.2 24.4 612.2 35.5 612.2 52.1C612.2 68.7 600 79.9 585 79.9Z" />
  <path d="M637.1 90.3H649.1V56.6H688.8V45.1H649.1V25.6H692.1V14.1H637.1V90.3Z" />
  <path d="M705.1 90.3H717.1V56.6H756.8V45.1H717.1V25.6H760V14.1H705.1V90.3Z" />
  <path d="M799 0H809V104.2H799V0Z" />
  <path d="M34.3 155.2C52.8 155.2 61 145.1 61 132.3C61 121 53.4 110 32.5 110H0V114.2C7.3 114.4 11.1 115.5 11.1 122.2V174.3C11.1 180.9 7.3 182 0 182.2V186.4H35.6V182.2C26.9 181.8 21.7 180.9 21.7 174.3V155.2H34.3ZM21.7 115H30.3C43.7 115 49.4 122.4 49.4 132.8C49.4 144.8 43.7 150.2 30.3 150.2H21.7V115Z" />
  <path d="M130.8 178.2L101.3 110H89.3L92.2 116.2C92.2 116.2 67.8 174.9 66.4 178.2C65 181.5 60.9 182.1 56.1 182.2V186.4H84.1V182.2C76.6 182 73.9 180.8 73.9 177.4C74 175.9 74.5 174.4 75.1 173L79.9 161.1H112L117.1 173.1C117.8 174.5 118.2 175.9 118.3 177.5C118.3 180.9 115.7 182 108.2 182.2V186.4H137.4V182.2C134.2 181.8 132 181.1 130.8 178.2ZM81.8 156.4L95.6 122.3L110 156.4H81.8Z" />
  <path d="M200.6 174.5L182.3 151.7C192.7 150.7 203.3 143.7 203.3 131.4C203.3 118.8 194.8 109.9 175.4 109.9H143.4V114.1C150.7 114.3 154.5 115.4 154.5 122.1V174.2C154.5 180.8 150.7 181.9 143.4 182.1V186.3H176V182.1C168.9 181.9 165 180.8 165 174.2V153H170.8L189.2 176.7C192.8 181.4 195.1 183.8 199.1 186.3H214.7V182.1C208.8 181.9 204.1 178.8 200.6 174.5ZM165 148.3V115H172.2C186 115 191.8 122.2 191.8 131.4C191.8 142.6 185.6 148.3 172.6 148.3H165Z" />
  <path d="M216 110L214.4 132.8H217.8C224.3 117.9 225.5 114.9 235.4 114.9H243.5V174.3C243.5 180.9 239.4 182 232.1 182.2V186.4H265.6V182.2C258.3 182 254 180.9 254 174.3V114.9H262.3C272.2 114.9 273.4 117.8 279.8 132.8H283.3L281.6 110H216Z" />
  <path d="M342 114.2C349.3 114.4 353.1 115.5 353.1 122.2V167.4L307.8 110H289.2V114.2C294.5 114.3 296 115.9 300.3 121.1V174.3C300.3 180.9 296.5 182 289.2 182.2V186.4H317.7V182.2C310.4 182 306.6 180.9 306.6 174.3V126L355 186.4H359.5V122.1C359.5 115.5 363.3 114.4 370.6 114.1V110H342V114.2Z" />
  <path d="M421.1 181.4H410.2C402.5 181.4 399.2 179.9 399.2 174V149.8H417.7C422.5 149.8 424.5 153.1 425.6 159.6H429.3V135H425.6C424.5 141.5 422.6 144.8 417.7 144.8H399.2V115H420C428.8 115 431.9 118.7 435.8 128.2H438.7V110H377.6V114.2C384.9 114.4 388.7 115.5 388.7 122.2V174.3C388.7 180.9 384.9 182 377.6 182.2V186.4H439.2L442.5 166.8H439.5C432.6 178.3 430.7 181.4 421.1 181.4Z" />
  <path d="M508 174.5L489.7 151.7C500 150.7 510.7 143.7 510.7 131.4C510.7 118.8 502.2 109.9 482.8 109.9H450.8V114.1C458.1 114.3 461.9 115.4 461.9 122.1V174.2C461.9 180.8 458.1 181.9 450.8 182.1V186.3H483.4V182.1C476.3 181.9 472.4 180.8 472.4 174.2V153H478.2L496.6 176.7C500.2 181.4 502.5 183.8 506.5 186.3H522.1V182.1C516.2 181.9 511.5 178.8 508 174.5ZM472.4 148.3V115H479.6C493.4 115 499.2 122.2 499.2 131.4C499.2 142.6 493 148.3 480 148.3H472.4Z" />
</svg>