<svg width="156" height="171" viewBox="0 0 156 171" fill="none" xmlns="http://www.w3.org/2000/svg">
  <style>
    path { fill: #0c0a09 }

    @media (prefers-color-scheme: dark) {
      path { fill: #ffffff }
    }
  </style>

  <path d="M16.2 52L0.6 0.639998H7.64L18.04 37.04L15.24 0.639998H21.96L24.76 52H16.2ZM34.3 52L25.18 0.639998H38.94L40.14 7.28H33.18L35.98 22.96H42.94L44.06 29.6H37.1L39.9 45.36H46.86L48.06 52H34.3ZM53.1263 52L44.0862 0.639998H50.6463C60.8063 0.639998 66.1663 9.12 66.1663 18.48C66.1663 22.56 65.0463 26 62.4863 27.76L73.4463 52H66.0863L55.7663 28.32L59.9263 52H53.1263ZM55.3663 24C57.8463 24 59.2063 21.68 59.2063 18.08C59.2063 12.96 56.6463 7.36 52.6463 7.36H52.0863L55.0463 24H55.3663ZM77.1906 52L68.0706 0.639998H74.8706L82.7906 45.36H89.3506L90.5506 52H77.1906ZM91.8981 52L89.3381 0.639998H98.3781L113.898 52H106.778L103.818 41.28H97.8981L98.7781 52H91.8981ZM97.3381 34.64H101.978L95.4181 11.12L97.3381 34.64ZM125.842 52.4C114.322 52.4 110.002 24.16 110.002 13.12C110.002 4.8 112.642 0.239999 117.682 0.239999C123.602 0.239999 127.042 6.64 129.282 15.36H122.482C121.042 10.24 119.602 7.04 118.242 7.04C117.202 7.04 116.802 8.88 116.802 11.92C116.802 21.6 121.122 45.52 125.122 45.52C127.042 45.52 127.362 38.16 125.762 29.52H121.682L120.562 22.88H130.962C134.642 40.96 133.282 52.4 125.842 52.4ZM141.253 52L132.133 0.639998H145.893L147.093 7.28H140.133L142.933 22.96H149.893L151.013 29.6H144.053L146.853 45.36H153.813L155.013 52H141.253ZM20.92 111.4C9.4 111.4 5.08 83.16 5.08 72.12C5.08 63.8 7.72 59.24 12.76 59.24C18.68 59.24 22.12 65.64 24.36 74.36H17.56C16.12 69.24 14.68 66.04 13.32 66.04C12.28 66.04 11.88 67.88 11.88 70.92C11.88 80.6 16.2 104.52 20.2 104.52C22.12 104.52 22.44 97.16 20.84 88.52H16.76L15.64 81.88H26.04C29.72 99.96 28.36 111.4 20.92 111.4ZM36.3313 111L27.2112 59.64H40.9713L42.1713 66.28H35.2113L38.0113 81.96H44.9713L46.0913 88.6H39.1313L41.9313 104.36H48.8913L50.0912 111H36.3313ZM64.3575 111.4C52.8375 111.4 48.5175 83.16 48.5175 72.12C48.5175 63.8 51.1575 59.24 56.1975 59.24C62.1175 59.24 65.5575 65.64 67.7975 74.36H60.9975C59.5575 69.24 58.1175 66.04 56.7575 66.04C55.7175 66.04 55.3175 67.88 55.3175 70.92C55.3175 80.6 59.6375 104.52 63.6375 104.52C65.5575 104.52 65.8775 97.16 64.2775 88.52H60.1975L59.0775 81.88H69.4775C73.1575 99.96 71.7975 111.4 64.3575 111.4ZM79.7688 111L70.6487 59.64H84.4088L85.6088 66.28H78.6488L81.4488 81.96H88.4088L89.5288 88.6H82.5688L85.3688 104.36H92.3288L93.5287 111H79.7688ZM98.595 111L89.555 59.64H108.915L117.955 111H111.155L103.315 66.28H97.555L105.395 111H98.595ZM11.72 170L2.68 118.64H9.24C19.4 118.64 24.76 127.12 24.76 136.48C24.76 140.56 23.64 144 21.08 145.76L32.04 170H24.68L14.36 146.32L18.52 170H11.72ZM13.96 142C16.44 142 17.8 139.68 17.8 136.08C17.8 130.96 15.24 125.36 11.24 125.36H10.68L13.64 142H13.96ZM35.7844 170L26.6644 118.64H40.4244L41.6244 125.28H34.6644L37.4644 140.96H44.4244L45.5444 147.6H38.5844L41.3844 163.36H48.3444L49.5444 170H35.7844ZM63.8106 170.4C52.2906 170.4 47.9706 142.16 47.9706 131.12C47.9706 122.88 50.6106 118.24 55.5706 118.24C62.3706 118.24 65.9706 126.96 68.3706 136.96H61.5706C59.8106 130 57.8106 125.04 56.2106 125.04C55.1706 125.04 54.7706 126.88 54.7706 129.92C54.7706 139.6 59.0906 163.52 63.0906 163.52C64.6106 163.52 64.9306 159.2 64.2106 151.84H71.0106C72.1306 163.76 69.8106 170.4 63.8106 170.4ZM78.9875 170L69.8675 118.64H76.6675L80.6675 140.88H86.7475L82.7475 118.64H89.5475L98.6675 170H91.8675L87.8675 147.6H81.7875L85.7875 170H78.9875ZM107.643 170L99.8031 125.28H94.3631L93.1631 118.64H110.843L111.963 125.28H106.603L114.443 170H107.643ZM130.181 170.4C122.981 170.4 119.541 164.64 118.501 154.72H125.461C126.101 159.28 126.901 163.84 129.701 163.84C131.221 163.84 132.021 162.72 132.021 160.64C132.021 156.24 128.901 151.76 123.141 145.6C117.941 140.08 114.421 134.4 114.421 128.24C114.421 121.92 118.181 118.24 123.381 118.24C130.101 118.24 133.701 123.76 134.741 134H127.781C127.061 128.32 126.181 124.8 123.781 124.8C122.421 124.8 121.461 125.92 121.461 128.24C121.461 132.4 123.781 135.68 130.181 142.72C135.301 148.48 139.061 153.84 139.061 160.48C139.061 166.48 135.621 170.4 130.181 170.4Z" />
</svg>
