<svg xmlns="http://www.w3.org/2000/svg" fill="none" viewBox="0 0 655 687"><path fill="var(--illustration-ink)" d="M210.112 74.875c.14-.14.27-.39.43-.41 2.19-.34 4.3-1.11 6.56-1.01 3.35-.94 6.86-.7 10.25-1.44 1.62-.35 3.34-.28 5.01-.36 6.96-.36 13.91-.82 20.88-.63 1.13.03 2.06-.38 2.94-1 .44-.31.71-.69.69-1.32-.06-2.24.46-4.39.99-6.55.15-.61.39-1.22.41-1.84.08-2.25.41-3.04-2.82-3.35-3.34-.31-6.64-1.08-9.98-1.57-1.33-.2-2.69-.17-4.03-.31-1.44-.16-2.87-.34-4.31-.55-3.43-.52-6.9-.77-10.35-1.12-2.73.56-5.43-.46-8.16-.18-.18.02-.37-.17-.56-.26.16-.09.32-.2.49-.28.09-.04.21-.04.31-.04 4.64.07 9.27-.39 13.92-.02 3.87.31 7.68.93 11.51 1.5.52.08 1.02.3 1.53.3 3.29.02 6.5.59 9.7 1.29 1.16.26 2.3.04 3.43-.25.53-.14.69-.5.63-.91-.18-1.24.33-2.09 1.04-3.12.77-1.12 1.67-2.47 1.21-4.13-.1-.37.28-1.05.64-1.34 1.32-1.05 1.68-2.66 2.46-4.01.23-.39.18-1.03.06-1.51-.13-.5-.05-.84.34-1.07.53-.32.55-.84.68-1.35.13-.49.26-1.03.55-1.43.58-.8.87-1.66 1.02-2.62.08-.5.22-1.15.58-1.41 1.36-1.02 1.51-2.42 1.5-3.91 0-.57.17-1.13.73-1.27 1.06-.27 1.34-.98 1.18-1.9-.15-.9-.22-1.68.82-2.09.1-.04.22-.1.25-.18.3-.76.44-1.66.93-2.27.54-.67 1.18-1.29 1.27-2.12.16-1.4 1.69-2.26 1.42-3.79 1.37-.91 1.27-2.59 2.01-3.84.47-.8 1.15-1.56.8-2.62-.03-.09 0-.2.03-.3s.07-.2.13-.29c.12-.18.27-.33.37-.51.88-1.74 2.39-3.11 2.94-5.05.04-.16.34-.24.5-.37.8-.63 1.09-1.81 2.3-2 .77-.12 1.4-.13 2.03.47 1.66 1.6 2.86 3.29 2.51 5.81-.16 1.11.16 2.29.31 3.44.13 1.01.49 1.96.1 3.05-.22.62 0 1.48.24 2.16.4 1.19 1.04 2.21.33 3.6-.41.82.21 1.84.67 2.68.43.79.46 1.49.14 2.39-.5 1.42-.46 2.9.4 4.26.2.32.4.8.31 1.14-.5 1.91.1 3.7.48 5.53.2.92.32 1.86.41 2.8.18 1.87.15 1.86 1.87.9.64-.36 1.31-.79 2.01-.9 1.91-.29 3.6-.97 5.29-1.93 1.11-.63 2.58-.54 3.93-.44.3.02.77.13.89-.02.99-1.21 2.25-.62 3.45-.67 1.46-.07 2.89-.55 4.35-.66 1.89-.14 3.79-.16 5.69-.08 1.23.05 2.44.38 3.69.24.38-.04.81.09 1.19.22.7.23 1.43.44 2.07.8 1.54.87 2.97.68 4.51-.05a23 23 0 0 1 4.13-1.47c1.1-.28 2.21-.37 3.15-1.13.37-.3.99-.43 1.49-.42 1.53.05 2.87-.51 4.28-1 2.97-1.04 6.14-1.21 9.22-1.73.5-.08 1.05.05 1.57.16.46.09.76.48.7.91-.13.82-.38 1.62-.58 2.43-1.3.7-1.66 2.32-3.07 3.02-.97.48-1.36 1.86-2.57 2.21-1.38 1.59-3.08 2.79-4.96 3.68-.7.33-.4 1.47-1.48 1.41-.47-.02-1 .96-.79 1.06.35.17.75.33 1.14.34.4 0 .8-.18 1.21-.27.51-.11 1.04-.34 1.53-.28 2.31.28 4.59.2 6.84-.38.2-.05.42-.08.62-.05 2.81.45 5.62.87 8.42 1.39 1.14.21 2.21.67 3.09 1.52.6.58 1.3 1.08 2 1.55 1.29.86 3.33-.05 3.19-1.64-.1-1.18.15-1.4 1.13-1.68.77-.22 1.6-.69 2.09-1.31.46-.59 1.37-1.14.97-2.19-.02-.05.26-.28.42-.33 2.15-.59 2.09-.64 3.16-2.64.23-.43.69-.8 1.13-1.05.54-.3 1.14-.44.93-1.28-.03-.11.26-.44.4-.44 2.12-.02 3.14-1.91 4.75-2.77.2-1.1 1.35-1.12 2.01-1.71 1-.9 2.35-1.41 2.87-2.83.1-.26.41-.5.67-.64 2.41-1.3 3.88-3.52 5.56-5.55.39-.48.79-.97 1.28-1.35 1.5-1.17 2.82-2.49 3.86-4.1.31-.49.98-.75 1.47-1.13.98-.76 2.34-1.04 2.85-2.4.08-.22.47-.38.75-.45.71-.19 1.53-.16 2.13-.52 1.38-.82 2.26.04 3.03.85.8.83.74 2 .24 2.98-.57 1.12-1.21 2.25-2.03 3.19-.72.83-1.07 1.79-1.58 2.69-.87 1.53-1.38 3.05-1.13 4.82.06.39-.03.86-.19 1.23-.42.96-.76 1.84-.64 2.98.09.83-1.02 1.6-.57 2.64-1.48 1.31-1.03 3.07-.96 4.67.06 1.27-.91 2.41-.35 3.69-.68.91-.5 1.92-.46 2.97.04 1.01-.45 2.05-.36 3.05.08.89-.02 1.65-.34 2.45-.15.38-.37.86-.26 1.19.27.78-.45 1.42-.2 2.15.49 1.46-.27 2.91-.04 4.37.02.1 0 .21-.01.32-.04.77-.53 1.34-.83 2-.24.52.21 1.44-.1 1.82-1.31 1.59-.95 3.34-.68 5.08.09.55.13.98-.15 1.47-.65 1.14-.66 2.39-.61 3.65.02.58.17 1.11.65 1.34.89.43.68.87.15 1.39-.07.07-.09.19-.13.28-.2.5.04.87.53.83 3.89-.27 7.74-.93 11.64-1.15 1.85-.11 3.73-.48 5.61-.64 1.04-.09 2.08-.25 3.12-.36 2.7-.29 5.37-.93 8.11-.89 1.07-.58 2.25-.26 3.38-.4 3.34-.43 6.67-.85 10.06-.77 3.36.08 6.68-.59 10.06-.58 2.95.01 5.91-.31 8.86-.32 2.73 0 5.46.21 8.18.34 1.18.06 2.42-.35 3.53.36-1.11.55-2.28.15-3.42.19-4.94.18-9.87.22-14.81.48-4.56.25-9.14.68-13.73.62-2.29-.03-4.64.3-6.86.88-2.73.72-5.46.57-8.17.5-1.81-.05-3.51 0-5.23.55-.96.31-1.93.97-3.05.35-.21-.12-.61.05-.91.13-1.31.33-2.56.75-3.99.51-.87-.14-1.83.42-2.77.52-1.56.16-3.02.76-4.65.7-1.56-.06-3.13.38-4.7.58-.65.08-.93.46-.91 1.05.1 2.18-.35 4.37.22 6.54.21.81.46 1.14 1.22 1.13.92 0 1.83-.11 2.75-.12.28 0 .57.12.84.23 1.74.67 3.47 1.42 5.42 1.03.29-.06.61-.07.9-.02 2.27.46 4.52 1.07 6.81 1.37 2.72.36 5.42.75 8.13 1.19.27.04.58-.15.88-.21.29-.06.73-.25.86-.13 1.17 1.1 2.69 1.05 4.09 1.44 1.32.37 2.63.62 3.98.82 1.76.26 3.45.92 5.18 1.38 4.27 1.13 8.55 2.23 12.83 3.37.37.1.69.39 1.03.6l.05-.06c-2.58.39-5.03-.37-7.51-.84-2.58-.49-5.1-1.23-7.68-1.69-1.75-.31-3.48-.68-5.17-1.22-.89-.28-1.8-.41-2.74-.51-3.45-.37-6.89-.93-10.34-1.29-2.42-.25-4.77-.77-7.13-1.26-.52-.11-1.09-.31-1.56-.18-1.68.48-3.32-.43-4.99-.03-.34.08-.76-.26-1.16-.36-1.12-.29-2.24-.66-3.38-.81-.81-.11-1.68.02-2.49.19-.33.07-.8.5-.83.81-.15 1.36-.27 2.74-.19 4.1.04.68.38 1.43 1.09 1.84.47.27.44.64.14 1.04-.19.25-.37.51-.56.77-.78 1.09-1.13 2.29-.61 3.56.31.77.25 1.38-.12 2.09-.34.66-.38 1.39-.18 2.15.13.5.2 1.09.06 1.57-.4 1.42-.62 2.78.28 4.11.06.1-.08.37-.17.53-.16.26-.56.53-.52.73.46 2.22-.55 4.12-1.24 6.09-.03.1-.03.22 0 .31s.1.22.17.24c.17.05.42.13.52.05.25-.18.41-.48.65-.67.33-.27.91-.08 1.01.3.34 1.32.88 2.63.94 3.97.06 1.27.39 2.44.62 3.65.08.4.14.81.25 1.21.37 1.32.94 2.6.53 4.02.46 2.27 1.19 4.45 2.15 6.55.3.66.79 1.25 1.06 1.92 1.41 3.42 3.23 6.58 6.04 9.06 1.17 1.03 1.89 2.29 2.16 3.77.12.68-.43 1.62-.13 2.11.49.8.88 1.37.09 2.14-.05.05-.05.2-.02.29.24.91.25 2.01.8 2.67.79.96-.05 1.81.23 2.68.29.9.39 1.86.64 2.77.14.49.46.93.64 1.41.14.37.3.78.26 1.15-.05.51-.56 1.14-.39 1.47.64 1.23-.28 2.54.32 3.7.5.96.15 1.9-.07 2.75-.46 1.82-.94 3.69-2.45 5.04-1.32 1.18-1.18 2.93-1.35 4.44-.14 1.17.61 2.41.13 3.66.96.85.4 1.85.4 2.84 0 .78.45 1.61.83 2.35.5.98.59 1.93.42 3.02-.16 1.02-.06 2.11.08 3.15.1.7.57 1.34.68 2.04.1.6-.26 1.31-.08 1.86.54 1.69-.57 3.3-.1 4.98.45 1.61-.5 3.08-.69 4.64-.25 2.04-2.38 3.54-4.5 3.55-1.08 0-1.29.15-1.27 1.2.05 1.78.15 3.56.28 5.34.02.23.41.41.56.66.15.23.38.59.29.76-.41.82-.4 1.57-.02 2.42.34.76.46 6.01.39 6.79-.15 1.77-.27 3.54-.39 5.31.92 1.06.25 2.45.74 3.62.34.82.23 1.65-.57 2.28-.17.14-.29.69-.2.77.76.65.38 1.24.07 1.94-.29.66-.39 1.4-.54 2.11-.23 1.13-1.25 1.88-1.24 3.18 0 1.1-.45 2.21-.71 3.31-.12.51-.3 1.01-.4 1.53-.23 1.12-.39 2.2-1.07 3.24-.67 1.03-.77 2.34-.04 3.59.58.99.89 2.14 1.47 3.14.35.61.48 1.12.24 1.77-.07.18-.08.51.03.6.96.8.61 2.29 1.39 3 1.27 1.14 1.3 2.65 1.49 4.03.3 2.15 1.25 3.99 2.28 5.78.71 1.24 1.28 2.4 1.06 3.85-.05.3.1.63.07.94-.12 1.31.36 2.24 1.61 2.77.22.09.47.43.48.66.02.51-.31 1.1-.14 1.52.5 1.25 1.17 2.44 1.79 3.64.14.27.49.46.55.73.55 2.26 1.1 4.51 2.5 6.44-.36 1.03.39 1.76.73 2.58.36.87.85 1.69 1.35 2.49.49.79 1.11 1.52 1.6 2.31.2.33.23.77.32 1.17.33 1.43.62 2.87 1.01 4.27.17.6.47 1.2.87 1.67 1.03 1.23 2 2.42 1.41 4.22-.1.29.3.74.46 1.11.34.77.69 1.42-.04 2.3-.5.6-.25 1.57.04 2.38.13.36.17 1-.05 1.19-1.78 1.62-.87 3.39-.4 5.15.18.65-.21.68-.7.59-.17-.03-.42-.05-.53.04-.14.12-.16.37-.26.55-.61 1.11-1.19 2.23-1.86 3.31-.32.52-.72 1.09-1.24 1.36-1.24.65-1.51 1.99-2.3 2.94.34 1.71-1.01 2.33-2.08 3.03-.73.47-1.31.98-1.8 1.71-.51.77-1.35 1.33-1.88 2.09-.73 1.05-2.15 1.23-2.75 2.51-.5 1.07-1.7 1.54-2.72 2.1-.35.19-.81.54-.86.88-.34 2-2.21 2.28-3.48 3.23-.34.25-.76.38-1.09.63-.24.17-.57.44-.58.68-.08 1.34-.58 2.74.49 3.94.21.23.3.43.17.81-.69 2.16-.76 3.5-.07 5.25.33.84.48 1.48.06 2.36-.47.99-.41 2.06.65 2.82.63.45.64 1.05.22 1.66-.71 1.03-.56 2.13-.49 3.29.06 1 .68 1.99.02 3.08-.45.74.21 1.72-.36 2.67-.54.89-.17 2.05.29 3.05.24.54.09 1.04-.39 1.4-.59.44-.64.94-.49 1.65.29 1.44.33 2.92-.76 4.12-.71.78-1.03 1.66-.61 2.62.39.9.19 1.66-.27 2.39-.87 1.38-1.42 2.81-1.16 4.49.06.36-.18.81-.38 1.16-.73 1.28-1.53 2.52-2.25 3.8-.25.45-.35.98-.49 1.48-.17.61-.18 1.31-.52 1.81-.6.9-.45 1.72-.29 2.7.29 1.75.33 3.54.48 5.32-.68.85-.73 1.88-.81 2.9-.04.52-.31 1.16-.1 1.54.75 1.39.27 2.88.56 4.3.27 1.29.81 2.61-.02 3.95-.12.19.22.77.46 1.07.38.46 1.11.42 1.34-.06 1.09-2.22 2.79-4.05 3.95-6.25.86-1.65 2.3-2.99 3.46-4.48.83-1.07 1.75-2.06 2.63-3.08s1.99-1.91 2.37-3.31c1.76-.77 2.36-2.61 3.6-3.86 1.17-1.19 2.41-2.31 3.6-3.48 1.35-1.33 2.7-2.65 3.99-4.03 1.22-1.3 3.15-1.79 4.01-3.51.08-.16.33-.29.52-.33 1.61-.35 2.8-1.46 4.12-2.31 3.68-2.37 7.72-3.84 11.97-4.65 1.84-.35 3.83-.41 5.68-.11 1.33.22 2 .14 2.86-.98 3.39-4.43 7.38-8.35 11-12.59 2.66-1.92 4.55-4.69 7.26-6.56 1.71-2.34 4.61-3.37 6.28-5.74 2.72-1.98 5.44-3.97 8.16-5.95 1.6-.41 2.22-2.31 3.92-2.56 2.4-1.52 4.78-3.09 7.22-4.54 4.07-2.43 8.08-4.96 12.37-6.99 3.37-1.59 6.92-2.45 10.61-2.79.27-.03.63.06.84.23.81.67 1.59 1.38 2.35 2.11.21.2.41.52.44.79.18 2.27.81 4.52.09 6.81-.27.87-.31 1.83-.38 2.75-.08 1.1.22 2.18-.53 3.26-.56.81-.54 1.96-1.32 2.79-.47.5-.53 1.36-.82 2.04-.21.48-.57 1.07.07 1.33.37.15 1.15-.04 1.39-.35.65-.85 1.39-1.17 2.45-1.11.48.03 1.02-.25 1.47-.52 1.19-.71 2.4-1.32 3.81-1.4 2.64-1.61 5.96-1.75 8.36-3.88 1.25-.18 2.14-1.24 3.47-1.31.81-.04 1.72-.33 2.37-.8.95-.69 1.76-.79 2.87-.43.95.31 1.81-.38 2.68-.75.46-.2 1.11-.53 1.44-.36 1.2.63 2.22.26 3.3-.23.22-.1.63 0 .85.16.91.66 1.83.44 2.63-.06 1.44-.91 2.73-.99 4.03.22.5.46 1.15.59 1.75.18.81-.56 1.56-.46 2.37-.01.46.25.97.49 1.48.53 2.07.16 3.46 1.35 4.63 2.9.47.63 1.08.97 1.87 1.01.3.02.76.04.87.22.64 1.06 1.55 1.59 2.77 1.73.19.02.54.55.47.71-.51 1.34.37 2.21.98 3.17 1.78 2.81 2.22 6.08 3.06 9.21.05.18-.11.4-.14.61-.08.62.26 1 .8 1.2.55.2.56.56.37.99-.25.57-.55 1.12-.83 1.69-.14.28-.44.61-.37.82.37 1.06-1.09 1.42-.84 2.55.21.93-.29 1.84-1.4 2.21-.66.22-1.03.82-1.05 1.47-.07 2.23-1.3 3.99-2.35 5.81-.52.91-1.08 1.76-1.38 2.79-.3.99-1.02 1.73-2.1 2.07-.36.11-.89.49-.9.77-.05 1.11-.75 1.76-1.56 2.22-.87.49-.71 1.5-1.31 2.1-.23.23-.73.63-.18 1.01.22.15.6.1.91.11.86.04 1.3-.5 1.72-1.17.19-.29.71-.62 1-.56.93.21 1.78.47 2.74-.02.35-.18.97.2 1.47.33.98.25 1.98.86 2.86-.23.1-.12.44-.19.58-.12 1.2.62 2.42.52 3.69.25.36-.08.83.16 1.2.33.52.25.95.24 1.46-.09 1.04-.66 2.15-.69 3.32-.3.92.31.92.24 1.46-.78.12-.23.43-.35.65-.53.12.26.31.51.35.78.1.84.59 1.23 1.02.71.83-1 1.9-.8 2.44-.22.84.89 1.92.77 2.82 1.24.62.32 1.17.39 1.76-.06.14-.11.51-.17.58-.08 1.1 1.32 2.94 1.03 4.2 1.97.75.56 1.47 1.06 2.48 1.21.64.1 1.17.84 1.78 1.24.34.22.94.58 1.09.46 1.26-1.01 1.85-.06 2.54.74.2.23.48.43.76.57.93.48 1.92.86 2.81 1.41.79.49 1.4 1.37 2.23 1.71 1.34.56 2.27 1.42 3.01 2.62.31.51.8 1.05 1.33 1.26.95.38 1.59.95 2.08 1.83.34.62.75 1.28 1.68 1.23.16 0 .43.38.51.63.15.49.02 1.16.31 1.5 1.21 1.4 1.62 3.16 2.34 4.78.22.48.51.95.63 1.45.2.88 1.91.46 1.49 1.68-.27.8 0 1.41.17 2.12.23 1-.05 2.1.86 2.94.17.15.02.78-.13 1.13-.3.71-.51 1.36-.05 2.1.49.79.51 1.51-.27 2.25-.59.56-.4 1.43-.09 2.1.35.76.23 1.38-.06 2.11-.5 1.24-1.02 2.44-1.13 3.87-.1 1.28-1.42 2.29-1.63 3.7-.02.17-.25.38-.42.43-2.04.62-2.14 2.67-3 4.13-.2.33-.24.73-.65.92-.89.4-1.56 1-2.07 1.86-.92 1.56-2.37 2.66-3.67 3.88-.92.86-1.97 1.58-2.52 2.79-.23.51-.75.81-1.31.71-.9-.17-1.68-.23-2.08.82-.06.16-.29.36-.45.36-1.61.03-2.96 1.06-4.56 1.15-.61.03-1.01-.2-1.38-.59-.31-.32-.47-.75-.13-1.12 1.14-1.23 2.09-2.68 3.78-3.29.73-.26 1.06-.87 1.44-1.56.48-.87 1.3-1.59 2.06-2.27 1.3-1.15 3.17-1.79 3.36-3.91 0-.07.15-.18.24-.19 1.59-.21 2.02-1.28 2.03-2.67.84-.73 1.34-1.57 1.15-2.76-.04-.23.24-.61.48-.77 1.24-.87 1.32-2.67 2.77-3.4.28-.14.46-.73.46-1.12 0-1.43.5-2.66 1.28-3.83.28-.42.65-1.15.48-1.44-.82-1.33 0-2.66-.19-3.95-.19-1.34-.99-2.53-1.03-3.94-.02-.61-.26-1.21-.44-1.81-.15-.5-.23-1.12-.57-1.43-.94-.85-1.17-1.9-1.39-3.08-.33-1.71-1.36-3.08-3-3.82-.43-.2-.72-.37-.78-.81-.15-1.08-.89-1.61-1.8-2.02-.74-.34-1.46-.72-2.19-1.08-1.36.76-1.99-.14-2.39-1.17-.26-.67-.71-.97-1.23-1.34-1.91-1.39-4.35-1.49-6.33-2.66-.44-.26-.91-.48-1.29-.81-.35-.3-.67-.53-1.11-.31-1.13.58-2.2.45-3.35-.03-.86-.36-1.82-.48-2.75-.66-.29-.06-.66-.04-.91.09-.51.27-.82 1.03-1.61.56-.58-.34-.95-.8-1.15-1.44-.05-.16-.57-.36-.7-.28-.88.57-1.75.58-2.69.18-1.29-.56-2.6-.86-3.98-.2-.27.13-.74.21-.92.07-1.17-.92-2.73.36-3.89-.72-.17-.16-.8.06-1.16.23-.93.47-1.77 1.2-2.95.79-.15-.05-.48.05-.55.18-.73 1.28-1.64.88-2.69.46-.76-.31-1.65-.34-2.49-.41-.38-.03-.89.03-1.15.26-.75.67-1.48.32-2.32.3-1.61-.03-3.3-.15-4.85.6-.62.3-1.25.27-1.75-.26-.81-.87-2-.53-2.96-.97-1.34-.6-1.66-.91-1.72-2.32-.12-2.78.19-4.01 1.73-6.91.31-.59 1.21-1.62 1.85-2.12.6-.47.74-.93.51-1.64-.39-1.17-.4-1.44.41-1.58 1.46-.24 2.02-1.41 2.84-2.33.2-.23.21-.69.44-.82 1.46-.84 1.8-2.09 1.9-3.71.08-1.23.78-2.43 2.49-2.2.18.03.42-.31.62-.49.1-.09 1.44-4.37 1.54-4.48 1.27-1.4.34-3.59 1.79-4.93.38-.35.24-.83-.15-1.08-.73-.47-.66-.97-.21-1.57.13-.17.26-.34.39-.5.67-.82.72-1.5.14-2.54-1.02-1.8-2.36-3.19-4.05-4.31-.43-.29-.87-.57-1.23-.94-1.69-1.73-4.05-2.19-6.12-3.2-.5-.25-1.21-.03-1.79-.17-.6-.15-1.13-.62-1.72-.7-1.76-.23-3.53-.34-5.3-.5-.7.87-1.41.45-2.17.07-.22-.11-.6.06-.9.12-1.22.27-2.37.72-3.71.5-.73-.12-1.59.41-2.36.73-.86.36-1.63.86-2.64.95-2.2.2-4.27.89-6.14 2.15-.6.4-1.36.56-2.04.84-.87.36-1.73.73-2.59 1.11-.67.29-1.38.52-1.98.92-.86.57-1.93.07-2.71.55-.79.48-1.31 1.37-2.37 1.46-.16.01-.29.43-.42.66-.4.66-.95 1.1-1.76.95-.42-.08-.81-.23-1.17.11-.55.52-1.1.54-1.68.05-.16-.13-.39-.33-.54-.3-1.54.35-2.22-.94-3.2-1.65-.44-.32-.6-.79-.5-1.39.08-.5.06-1.05-.08-1.54-.14-.47-.03-.74.27-1.1.68-.8 1.28-1.66 1.93-2.48.46-.58 1.52-3.23 1.66-4.21.04-.28.04-.67.22-.83 1.24-1.05 1.45-2.55 1.73-3.98.4-2.06.75-4.14.14-6.23-.16-.54-.5-1.01-1.06-1.06-1.63-.17-3.27-1.1-4.89.05-1.38-.32-2.41.56-3.56 1.05-2.81 1.21-5.59 2.49-8.15 4.22-.94.64-2.04 1.07-3.06 1.58-2.48 1.23-4.69 2.86-7.05 4.26-.99.59-1.86 1.37-2.84 1.98-3.39 2.11-6.54 4.55-9.73 6.93-2.02 1.51-4 3.07-5.94 4.67-1.54 1.27-2.93 2.72-4.51 3.94-1.68 1.3-2.72 3.21-4.34 4.51-1.67 1.34-2.75 3.16-4.27 4.61-1.52 1.44-2.77 3.17-4.15 4.76-1.03 1.19-2.06 2.39-3.12 3.56-.32.36-.36.68-.23 1.14.53 1.85-.15 3.46-1.02 5.06-1.26 2.31-2.54 4.59-4.29 6.59-.55.62-1.02 1.39-1.26 2.18-.23.76-.67 1.26-1.12 1.84-.57.74-1.01 1.59-1.45 2.42-.97 1.83-2.72 2.57-4.49 3.26-.6.23-1.28-.38-1.22-1.07.06-.61.15-1.27.42-1.81.8-1.6 1.6-3.21 2.56-4.71 2.15-3.37 4.37-6.71 6.63-10.01.89-1.3 2.01-2.44 3-3.68.42-.53.24-.87-.46-1.13a5.9 5.9 0 0 0-3.74-.17c-4.49 1.24-8.85 2.79-12.75 5.41-.69.47-1.37 1.09-2.14 1.29-1.05.26-.98 1.49-1.98 1.8-.76.24-1.5.83-2.04 1.45-2.41 2.75-5.67 4.68-7.59 7.91-.32.53-.78 1.01-1.27 1.4-1 .8-1.91 1.64-2.44 2.83-.04.1-.1.19-.16.27-1.07 1.42-2.77 2.25-3.47 4.04-.62 1.57-1.92 2.74-2.96 4.04-.6.75-1.23 1.4-1.45 2.35-.05.2-.15.43-.3.54-1.62 1.13-2.39 2.88-3.37 4.49q-.735 1.215-1.41 2.46c-.64 1.2-1.04 2.55-2.18 3.42-.95 2.2-2.57 4.06-3.1 6.48-.25 1.11-.8 2.15-1.22 3.22-.19.48-.35.98-.58 1.44-.48.95.83 2.08-.31 2.94-.1.94-.19 1.88-.3 2.81-.08.63-.25 1.25-.28 1.88-.02.39.03.89.26 1.17.79.95.2 1.81-.08 2.68-.08.23-.44.51-.68.53-.91.05-1.6.47-2.24 1.06-1.57 1.44-3.34 1.68-5.27.85-.4-.17-.8-.41-1.06.06-.11.21.19.61.14.9-.12.71-.28 1.42-.52 2.09-.2.55-.2 1 .2 1.44.22.24.35.57 0 .77-.74.41-1.04.9-.85 1.8.14.66-.38 1.43.44 1.99.41.28.13.73.15 1.13.09 1.66-1.27 2.84-1.39 4.41-.84.55-.8 1.38-.78 2.25.04 1.36.13 2.77-.88 3.91-.23 2.22-1.72 4.08-1.79 6.35-.02.51-.22 1.04-.46 1.5-1.72 3.26-3.47 6.5-5.24 9.73-.19.35-.52.64-.8.94-.05.06-.2.09-.27.05-.08-.04-.15-.16-.18-.25-.04-.09-.07-.22-.04-.3.74-1.64.72-3.43 1.08-5.15.02-.1.12-.2.11-.29-.05-1.15-.41-2.39-.08-3.41.35-1.1.59-2.18.68-3.32.01-.19-.09-.45-.24-.56-.23-.17-.52-.3-.8-.34-.15-.02-.43.15-.49.3-.15.38-.25.79-.3 1.2-.12.93-.03 1.84-.69 2.7-.39.51-.33 1.38-.45 2.1-.35 2.07-.37 4.2-1.69 6.02-.32.44-.23 1.22-.22 1.84 0 .87-.05 1.7-.59 2.42-1.79 2.39-2.64 5.24-3.9 7.89-.22.47-.54.9-.72 1.38-.08.22-.03.62.12.76.62.55.57.99 0 1.57-1.01 1.03-1.58 2.41-2.86 3.28-.71.48-1 1.57-1.53 2.35-.77 1.13-1.59 2.22-3.16 2.2-.39.64-1.92.48-1.23 1.92.17.35-.15.94.11 1.48.76 1.64.58 2.64-.53 3.88-.14.16-.33.27-.47.43-.28.34-.25 1.21.16 1.42.94.48 1.53 1.37 2.39 1.9.71.44 1.53.72 2.33 1 1.03.36 1.86-.04 2.25-1.13.25-.69.39-1.42.5-2.14.19-1.29.54-2.43 1.68-3.26.36-.26.68-.92.63-1.35-.11-.82.28-1.15.88-1.46.11-.06.2-.42.15-.46-.39-.33-.54-.74 0-.94 1.01-.38 1.63-1.24 2.48-1.76.9-.56 1.75-1.13 2.51-1.87.5-.49 1.08-.62 1.65-.02.14.15.34.25.53.33.53.22 1.2.03 1.25-.56.18-1.9 1.69-1.99 2.97-2.15.96-.11 1.97.53 2.96 0 .81-.44 1.58-.98 2.42-1.36 1.16-.52 2.32-.87 3.66-.34 1.06.42 2.24.53 3.38.69.38.05.82-.11 1.2-.26 1.01-.42 2.04.59 3.06-.04.1-.06.51.31.71.54 1.13 1.25 2.23 2.52 3.37 3.76.36.39.82.36 1.02-.12.81-1.9 2.2-3.35 3.74-4.61.89-.73.24-.83-.15-1.23-.16-.17-.17-.54-.13-.81.01-.09.43-.26.53-.2 1.04.65 1.55-.09 1.99-.79.27-.41.28-.98.54-1.41s.7-.76 1.03-1.15c.52-.63.83-1.52 1.92-1.4.14.02.3-.24.46-.35.98-.68.72-2.05 1.54-2.82 1.26.23 1.85-.75 2.61-1.44 1.08-.99 2.31-1.83 2.85-3.29.08-.22.51-.51.68-.46.9.27 1.38-.18 1.82-.86.28-.44.56-.99.98-1.2 1.4-.69 2.86-1.24 3.22-3.01.79-.08 1.64-.01 2.14-.83 2.24-.41 4.19-1.42 5.94-2.85.19-.16.62-.16.88-.07.72.24 1.4-.05 1.72-.5.78-1.1 1.44-.96 2.28-.15.13.12.59.02.81-.11.46-.28.85-.64 1.31 0 .09.12.51.19.55.13.74-1.03 1.64-.51 2.55-.37 1.04.16 2.11.19 3.17.19 1.26 0 2.55-.26 3.62.68.92-.11 1.84-.19 2.74-.38.18-.04.39-.53.39-.8-.06-1.87 1.04-3.14 2.21-4.35.45-.47.9-.87.96-1.56.07-.77.61-1.31.95-1.96.63-1.2 1.29-2.11 2.84-2.09.79 0 1.27-.6 1.37-1.48.07-.59.54-.59.94-.3.55.41 1.09.59 1.75.26 1.99-.99 4.28-.93 6.33-1.74.35-.14.81-.06 1.21.02.82.15 1.63.34 2.44.55.79.2 1.56.54 2.37.65s1.65-.07 2.46.04c.61.09 1.18.42 1.76.69 1.43.66 2.86 1.35 4.29 2.02.56.26 1.05.49 1.76.21 1.01-.4 1.96.33 2.54.95 1.58 1.67 3.5 2.65 5.61 3.39.28.1.75.26.77.44.17 1.26 1.26 1.18 2.04 1.65 1.41.86 2.86 1.85 3.43 3.53.33.96.97 1.61 1.6 2.32.41.47.77.99 1.12 1.5.88 1.3 1.58 2.74 3.15 3.42.64.28.77.95.92 1.58.18.76.56 1.41 1.42 1.51 1.01.11 1.34.5.78 1.44-.09.15-.09.53-.02.57 1 .51.87 1.62 1.34 2.4.19.31.68.49 1.07.59.16.04.61-.34.59-.41-.15-.45-.07-.78.24-1.15 2.06-2.43 3.62-5.12 4.39-8.25.11-.46.57-.85.91-1.23.55-.63 1.13-1.15.87-2.18-.13-.52 1.09-.44 1.07-1.27-.01-.51.13-1.04.27-1.54.05-.17.28-.29.44-.41.25-.19.69-.33.73-.56.36-1.83 1.81-2.97 2.81-4.36 1.03-1.43 2.34-2.67 3.58-3.94 1.54-1.59 2.82-3.43 4.68-4.71.25-.17.52-.43.61-.7.45-1.37 1.49-1.9 2.78-2.31.65-.21 1.14-.89 1.72-1.34.55-.43 1.27-.47 1.85-.98.67-.59 1.51-.87 2.18-1.65 1.61-1.88 5.69-1.65 7.11.2.37.49.66 1.09.83 1.68.29 1.01.49 2.05.65 3.08.04.26-.08.66-.27.82-.91.75-1.23 1.61-.93 2.78.07.29-.26.76-.52 1.04-.78.81-1.1 1.6-.94 2.82.12.91-.38 2.02-.9 2.86-.37.6-.54 1.05-.38 1.71.28 1.1.49 2.22.76 3.32.24.99.54 1.97.77 2.96.15.65.39 1.24 1.07 1.46.86.28 1.49.86 1.91 1.58.65 1.11 1.59 1.3 2.71 1.13 2.58-.4 5.21-.38 7.78-.91.26-.06.51-.27.72-.45.35-.31.73-.5 1.11-.17 1.54 1.35 3.4.5 5.09.74.08.01.2-.3.32-.44.18-.2.49-.58.56-.54 2.05 1.07 4.09.43 6.14.05.4-.08.9-.21 1.21-.05 1.41.71 2.68.08 3.97-.31.5-.15.97-.41 1.47-.59.29-.1.65-.29.88-.2 2.16.87 4.39-.38 6.56.26.38.11.84-.02 1.26-.11 1.33-.28 2.67-.9 3.97-.8 1.28.1 2.35-1.16 3.64-.39.08.05.41-.16.48-.32.22-.47.36-.64.81-.14.75.83 1.97.86 2.57.26 1.12-1.12 2.58-.72 3.76-1.32 1.55.71 2.15-.89 3.21-1.36.26-.11.31-.72.43-1.11.14-.46.38-.66.9-.63.39.02.93.02 1.15-.21.87-.89 2.11-1.42 2.54-2.77.14-.45.62-.85 1.04-1.13.72-.48.99-1.03.71-1.88-.08-.24-.01-.62.13-.83.23-.34.88-.72.82-.88-.52-1.37.61-2.62.11-4.03-.51-1.45-.07-3.13-.81-4.6-.03-.05.08-.21.16-.25.06-.03.2.01.26.07 1.48 1.34 3.02 2.62 3.79 4.57.27.67.65 1.38 1.17 1.86.75.7.87 1.35.46 2.24-.16.36-.24.86-.12 1.23.29.9-.03 1.64-.34 2.44-.26.67-.32 1.42-.52 2.12-.18.67-1.19 1-.84 1.91-.68 1.15-1.18 2.41-2.58 3-.86.36-1.62.98-1.98 1.95-.68 1.79-2.25 2.6-3.93 2.81-2.43.31-4.6 1.44-6.99 1.83-1.76.29-3.48.79-5.22 1.19-.19.04-.48.09-.58 0-.96-.97-1.91-.48-2.89-.06-1.07.46-2.3-.34-3.37.38-.09.06-.4-.11-.54-.25-1.18-1.17-2.37-1.05-3.69-.19-.89.57-2.05.35-2.9.07-.71-.24-1.25-.37-2.02-.28-2.29.27-4.57.77-6.9.68-.52-.02-1.08-.05-1.57.1-.91.28-1.77.71-2.74.25-2.18.92-4.59.38-6.79 1.11-.85.28-1.62.67-2.56.8-.95.14-1.77-.6-2.76-.04-.79.45-1.83.44-2.71.76-.84.31-1.55.22-2.42.02-1.71-.39-3.5-.92-5.26.03-.28.15-.85.05-1.14-.15-1.41-.95-2.62-2.11-3.52-3.58-.28-.45-.48-.96-.85-1.33-.65-.66-1.72-1.1-1.99-1.86-.26-.76.21-1.75-.08-2.7-.26-.85.21-1.92-.84-2.55-.08-.05 0-.61.16-.77.89-.91 1.23-2.19.86-3.18-.43-1.13.24-2.01.08-2.93-.17-1 0-1.88.25-2.79.05-.19.03-.43-.03-.62-.19-.71.26-.57.69-.6.23-.01.59-.19.65-.38.47-1.38.88-2.78 1.3-4.18.22-.74-.23-1.31-.97-1.16-1.46.29-2.83.82-4.02 1.71-.76.57-1.54 1.16-2.11 1.9-.91 1.19-1.78 2.33-3.33 2.75-.34.09-.72.51-.85.87-.33.88-.86 1.4-1.81 1.56-.26.04-.58.32-.68.57-.55 1.39-1.39 2.57-2.41 3.65-.32.34-.33.97-.54 1.44-.11.25-.32.61-.53.64-1.13.19-1.51.91-1.77 1.93-.23.88-.8 1.66-1.19 2.5-.53 1.14-1.01 2.32-1.58 3.45-.5.99-1.1 1.93-1.66 2.9-.74 1.28-1.05 2.7-1.34 4.13-.17.82-.22 1.8-.71 2.38-1.51 1.82-2.37 3.93-3.15 6.11-.41 1.13-1.29 1.97-2.34 2.5-2.21 1.11-4.23.41-5.61-1.42-.95-1.26-1.58-2.72-2.06-4.24-.09-.3-.09-.74-.29-.88-1.58-1.09-1.62-3.15-2.85-4.44-.28-.3-.62-.61-.99-.76-.69-.26-1-.67-1.02-1.41-.03-1.08-.63-1.8-1.64-2.08-.6-.16-.83-.44-.95-1.04-.41-2-.54-2.11-2.57-2.39-.62-.08-1-.37-1.03-.97-.04-.91-.29-1.59-1.15-2.09-.52-.3-.98-.83-1.29-1.36-.6-1.01-1.46-1.52-2.58-1.57-.7-.04-1.16-.3-1.5-.94-.18-.34-.59-.6-.96-.79-1.69-.85-3.47-1.56-5.09-2.53-.81-.49-1.57-.39-2.37-.5-.65-.09-1.08-1.09-1.97-.52-.12.08-.5.01-.56-.1-.7-1.17-2.05-.94-3.05-1.44-.19-.09-.41-.19-.6-.17-1.84.24-3.68.51-5.54.12-.16-.03-.43.13-.54.28-.6.83-1.28.37-1.98.22-.83-.18-1.22-.02-1.42.83s-.5 1.21-1.4 1.38c-.49.09-.97.75-1.26 1.26-.53.91-.71 2.12-1.42 2.8-.84.79-.53 1.75-.84 2.58-.27.74-1.37 1.23-.89 2.17.32.64.9 1.14 1.32 1.73.43.6.84 1.22 1.22 1.85.72 1.18 1.49 2.32 2.63 3.14.51.37.62.83.46 1.37-.15.51-.45.98-.52 1.49-.31 2.14-1.76 3.24-3.59 3.96-.45.18-1.06.22-1.5.06-.66-.24-1.24-.06-1.86-.03-.37.01-.86-.14-1.09-.4-.83-.95-1.72-1.9-2.29-3-.72-1.38-1.31-2.84-1.26-4.49.03-1.07-.23-1.27-1.24-1.47-.51-.1-1.2 0-1.5-.3-1.96-1.94-4.51-1.36-6.83-1.64-.74-.09-1.44-.08-2.08-.51-.84-.55-1.65-.47-2.67-.28-2.24.42-3.99 1.91-6.15 2.4-.54 1.22-1.76 1.36-2.79 1.82-.37.16-.8.45-.95.79-.37.83-1.09.86-1.79 1.09-1.19.4-2.36.82-3.13 1.99-.45.68-1.11 1.28-1.8 1.72-1.43.92-2.86 1.77-3.37 3.57-.1.35-.54.66-.9.86-.91.51-1.34 1.26-1.49 2.28-.12.79-.61 1.34-1.44 1.5-1.14.21-1.96.88-2.33 1.93-.37 1.04-1.72 1.07-1.98 2.32-.17.81-1.21 1.4-1.67 2.2-1.05 1.8-2.44 3.36-3.48 5.15-.35.6-.51 1.45-.4 2.13.29 1.75-.62 2.79-1.87 3.7-.42.31-.84.66-1.32.85-1.44.56-2.98-.07-3.23-1.58-.21-1.3-.86-2.37-1.22-3.58-.56-1.92-.62-1.91-2.82-3.37-.24-.16-.46-.39-.63-.63-.99-1.36-2.2-2.24-4-1.87-2.79-.57-5.42.2-8.01 1.07-.69.23-1.3.7-1.98.99s-.95.77-.96 1.48c0 .68-.36 1.59-.9 1.47-1.44-.3-1.83.46-2.23 1.52-.13.34-.55.6-.88.82-1.55 1.01-2.67 2.32-3.19 4.15-.55 1.92-1.38 3.77-1.06 5.85.1.66-.22 1.21-.66 1.72-1.44 1.67-3.14 2.37-5.33 1.65-.87-.29-1.91-.09-2.57-1-.15-.2-.58-.27-.88-.28-1.16-.02-2.31 0-3.38-.55-1.1.71-2.25-.04-3.38.05-1.15.09-2.28.2-3.4.48-2.58.65-4.32 2.12-4.61 4.91-.11 1.03-.65 1.47-1.66 1.52-.23.01-.67.38-.64.52.27 1.39-.64 1.3-1.52 1.27-1.51-.05-2.96.04-3.97 1.44-.14.2-.61.38-.81.29-1.79-.8-3.94-.56-5.54-1.96-.59-.51-1.39-.43-2.12-.22-.71.2-1.3.93-1.2 1.66.14.96.35 1.85-.46 2.66-.55.55-.13 1.2 0 1.8.19.9.09 1.69-.74 2.24-.46.3-.56.85-.83 1.21-1.08 1.4-2.2 2.8-3.88 3.61-.56.27-1.09.66-1.52 1.1-2.66 2.71-5.8 4.83-8.66 7.31-.79.68-1.71 1.21-2.59 1.79-.26.17-.6.25-.83.45-.56.48-1.11.98-1.59 1.54-.41.48-1.24-.19-1.53.74-.2.66-.84 1.18-1.23 1.8-.43.68-1.03 1.09-1.8 1.15-1.19.1-2.37.65-3.51-.51-.58-.59-1.62-.94-2.65-.85-1.13.1-2.46-.24-2.54 1.55-2.02 1.45-3.1 3.61-4.29 5.68-1.61.48-1.55 2.34-2.68 3.23-.31.24-.49.69-.63 1.07-.65 1.77-1.1 3.61-1.97 5.29-.01.02.33 2.92.35 2.93 1.18.37.83 1.59 1.31 2.35.33.51 1.02.93 1.07 1.44.07.71.03 1.41.31 2.1.24.58.38 1.2.58 1.79.58 1.66.84 3.48 2.63 4.48.64.36.54 1.29.12 1.7-.94.94-.7 1.9-.34 2.89.96 2.6 1.21 5.33 1.62 8.04.06.4.09.84-.03 1.21-.28.89-.14 1.68.4 2.39.35.45.11.65-.15 1.01-.32.45.16.77.47 1 .38.28.6.52.31.99-.33.54-.64 1.09-.91 1.66-.13.27-.32.69-.21.87.62 1.02-.05 1.83-.33 2.7-.48 1.5-1.03 2.96-1.18 4.58-.18 1.92-1.19 3.58-2.34 5.11-.25.33-.67.59-.79.95-.23.66-.14 1.47-.47 2.04-.28.48-1.14.59-1.46 1.06-.7 1.03-1.72 1.95-1.73 3.31 0 .92-1.02.5-1.26 1.11-.26.67-.67 1.28-.95 1.94-.27.64-.91.82-1.34 1.22-1.14 1.07-2.23 2.24-3.09 3.54-1.34 2.01-2.46 4.17-3.69 6.26-.15.25-.31.56-.55.69-.46.24-1 .34-1.47.56-1.1.51-2.43.39-3.39 1.3-.14.13-.57-.03-.86-.09-.92-.22-1.83-.51-2.76-.68-1.44-.27-2.76.76-2.88 2.2-.04.53-.06 1.06-.03 1.59.07 1.22-.21 2.28-1.13 3.16-.27.26-.4.68-.56 1.04-.17.37-.22.83-.47 1.12-1.55 1.71-3.16 3.36-4.71 5.07-.45.49-.88.87-1.57.94-.79.07-1.45-.07-1.94-.78-.26-.38-.72-.52-1.1-.2-1.26 1.05-2.73 1.03-4.22.91-2.21-.19-4.41-.46-6.62-.63-.81-.07-1.42-.36-1.82-1.06-.73-1.28-1.49-2.55-2.18-3.86-.64-1.22-1.21-2.45-.56-3.9.15-.33-.05-.82-.12-1.22-.29-1.75-.22-3.47.16-5.2.45-2.06.84-4.15.59-6.28-.03-.29-.13-.7.02-.88.96-1.21.57-2.64.71-3.98.03-.31-.06-.66.03-.95.73-2.34.32-4.76.55-7.13.14-1.47.2-2.96-.69-4.28-.11-.16-.21-.41-.16-.57.87-2.56-.91-4.91-.6-7.45.06-.53-.23-1.56-1.36-1.24-.03 0-.18-.21-.15-.25.86-1.21-.25-2.28-.35-3.4-.09-1.12.52-2.32-.22-3.39.34-1.32.35-2.74 1.28-3.87.72-.88.84-1.86.44-2.97-.25-.68-.11-1.49-.32-2.18-.32-1.07 0-2.29-.9-3.25-.32-.34-.55-1.09-.39-1.49.55-1.44-.27-2.41-.9-3.48-.38-.65-.5-1.32-.29-2.11.27-1.04-.33-2.12-.25-3.08.12-1.39-.17-2.3-1.14-3.28-.7-.71-.96-1.73-.8-2.92.18-1.31.08-2.76-.3-4.03-.51-1.7-.21-3.31.22-4.86.3-1.09.36-2.04-.07-3.03-.45-1.03-.37-2.03.02-3.03.75-1.94.82-3.87.19-5.88-.25-.78-.13-1.67-.2-2.51-.02-.2-.13-.39-.19-.59-.17.1-.4.15-.49.3-.54.91-1.28 1.41-2.35 1.21-1.24-.23-2.47.5-3.75-.03-.58-.24-1.19-.27-1.53-.94-.23-.46-.68-.8-.99-1.22-.25-.33-.6-.7-.62-1.07-.07-1.61-.39-3.14-1.13-4.58.26-1.87-.36-3.71-.28-5.56.05-1.08-.08-2.02-.62-2.94-.37-.63-.66-1.31-.9-1.99-.09-.24-.06-.65.1-.84.62-.76.33-1.51.26-2.37-.19-2.36-.92-4.54-1.75-6.7-.37-.96-.68-2-1.68-2.62-.41-.26-.7-.79-.94-1.25-.6-1.17-1.54-2.01-2.57-2.76s-2.08-1.44-2.79-2.54c-.11-.17-.26-.37-.44-.45-2.81-1.17-4.28-4.03-6.89-5.45-.18-.1-.38-.23-.49-.4-1.69-2.56-4.44-3.82-6.84-5.46-2.26-1.53-4.77-2.72-7.25-3.91-.9-.43-2.01-.47-3.03-.62-1.24-.18-2.46-.18-3.74-.05-1.11.11-2.25-.01-3.42.19-2.28.39-4.6.54-6.91.8-.52.06-1.08.1-1.55.31-1.83.81-3.76.21-5.64.49-1.02.15-1.95-.65-2.82-1.29-.57-.41-1.21-.28-1.74.19-.08.07-.17.13-.24.21-.66.8-1.2 1.77-2.02 2.35-.85.6-1.71 1.16-2.47 1.89-.45.43-1.01.71-1.21 1.39-.07.26-.38.58-.63.63-1.81.37-3.1 1.7-4.67 2.48-1.65.82-3.25 1.81-5.27 1.75-.73-.02-1.59.6-2.19 1.14-1.44 1.32-3.09 2.02-4.95 2.61s-3.5 1.9-5.2 2.96c-.77.48-1.31 1.5-2.44.78-.89.3-1.79.61-2.68.91-.72.24-1.73.18-1.48 1.42-1.27.58-2.4 1.7-3.95 1.19-1.08-.36-1.98-.4-2.89.45-.31.29-1.06.36-1.49.21-1.56-.54-3.05-.59-4.64-.06-1.02.34-2.07.24-2.9-.7-.23-.25-.83-.41-1.15-.3-1.14.42-1.97-.04-2.88-.63-.78-.5-1.74-.69-2.15-1.72-.31-.78-1.05-.93-1.87-.81-.49.07-1.03.06-1.51-.07-1.12-.3-1.41-1.84-2.82-1.86-1.3-.01-1.89-1.24-2.73-2-.4-.37-.81-.72-1.4-.45-.48.22-.75.11-.92-.41-.23-.7-.48-1.4-.81-2.06-.12-.24-.57-.58-.72-.51-1.08.44-2.07-.19-3.09-.18-1.09.01-2.08.51-2.73 1.39-.41.54-.86.77-1.47 1.02-1.37.58-2.28 1.77-2.84 3.11-.21.5-.39.91-.81 1.25-1.21 1-2.38 2.12-3.15 3.43-.56.95-.92 1.78-2.08 2.03-.25.05-.43.44-.64.68-.41.47-.79.96-1.24 1.4-.82.81-1.74 1.52-2.5 2.38-1.45 1.64-1.41 1.72-3.13 1.94-.52.07-.66.29-.87.67-.19.34-.54.62-.86.86-.23.17-.67.4-.81.31-1.69-1.12-3.22-.2-4.74.38-.73.28-1.36.4-2.12.09-1.17-.47-2.38-.83-3.6-1.19-.8-.24-1.14-.73-1.33-1.54-.17-.73-.97-.71-1.42-.02-.88 1.34-1.58 2.79-1.81 4.37-.42 2.93-1.61 5.69-2 8.59-.31 2.32-1.35 4.42-1.65 6.72-.05.4-.44.75-.49 1.15-.11.83-1.48 1.4-.52 2.46.06.07-.09.39-.21.54-.45.58-.87 1.2-1.42 1.67-.45.38-1.04.68-1.62.8-.7.16-1.46.07-2.18.13-2.26.18-2.57.43-1.8 2.38.69 1.75 1.06 3.62 2.03 5.27.26.43.37.98.43 1.48.13 1.08.35 2.05 1.34 2.73.84.58.83 1.67 1.11 2.54.23.73.79 1.48.27 2.39-.22.39-.21 1.12.01 1.52.73 1.29.71 2.58.37 3.95-.06.24.1.57.25.8.16.25.43.38.17.78-.47.72-.58 1.5-.48 2.4.07.68-.31 1.41-.43 2.12-.1.62-.45.92-1.02 1.01-1.55.25-3.1.52-4.65.75-.3.04-.68.05-.93-.09-1.88-1.03-4.24-.37-5.99-1.54-1.08-.72-2.33-.7-3.4-1.38-.93-.58-2.24-.23-3.29-.75-.94-.46-1.86-.98-2.84-1.32-1.24-.43-2.36-1.52-3.86-.83-.02 0-.28-.32-.26-.45.14-.71-.06-1.02-.8-.73-.56.22-1.04.16-1.38-.36-.34-.53-.6-1.12-.97-1.62-.3-.41-.68-.98-1.1-1.06-1.83-.35-2.38-2-3.15-3.22-1.51-2.37-2.72-4.94-3.88-7.51-.4-.89-.46-2.05-.35-3.05.14-1.31-.16-2.52-.49-3.72-.22-.8-.2-1.41.33-2.05.16-.2.22-.63.12-.87-.8-1.86.22-3.79-.23-5.65-.04-.18.07-.41.12-.61.21-.8 1.42-1.24 1.03-2.17-.4-.99.48-1.59.47-2.33-.03-1.83.94-3.08 1.94-4.41.81-1.07.66-2.66 1.85-3.55 0-1.12 1.72-1.28 1.44-2.56.71-.63 1.46-1.22 2.13-1.89.43-.43.93-.93 1.09-1.48.23-.8.61-1.3 1.35-1.61.7-.29 1.26-.7 1.51-1.51.11-.35.5-.65.83-.9 1.1-.82 2.24-1.59 3.33-2.41.59-.44 1.35-.84 1.63-1.44.33-.72-.36-1.3-.94-1.77-.13-.1-.2-.37-.19-.55.14-1.55 1.47-2.74 1.37-4.38 0-.16.21-.43.38-.48 1.81-.51 2.86-2.08 4.31-3.07.7-.48 1.37-1.02 2.14-1.35.7-.31 1.41-.41 1.14-1.46-.04-.16.32-.49.55-.66 1.44-1.04 2.92-2.04 4.34-3.11.31-.23.55-.64.69-1.02.47-1.24-.36-2.43-.2-3.69.07-.54-.36-.92-.77-1.29-.61-.55-1.12-1.22-1.65-1.86-.19-.23-.43-.56-.4-.81.15-1.12-.52-2.57 1.18-3.13.27-.09.5-.4.66-.66.34-.55 1.67-.19 1.34-.86-.34-.67-.32-1.55-1-2.09-.48-.39-.85-.91-1.26-1.38-.28-.32-.5-.69-.81-.96-.38-.33-.82-.59-1.24-.88.36-1.07-1-1.47-.92-2.47.12-1.48-.75-2.39-2.03-2.88-.77-.3-1.26-.65-1.24-1.57.03-1.13-.71-1.7-1.72-1.98-.82-.23-1.34-.62-.94-1.57-.94-1.73-.67-3.82-1.68-5.55-.31-.53-.51-.69-1.13-.63-.42.04-.74-.5-.46-.93.82-1.28.64-2.62.16-3.89-.79-2.09-1.33-4.18-1.29-6.44.02-1.03-.31-2.07-.46-3.1-.09-.65-.26-1.21-.87-1.59-.11-.07-.08-.7.04-.76 1.13-.58 1.32-1.25.31-2.12l.58-2.93c.16-.27.46-.54.46-.81-.04-3.18 1.58-6.11 1.4-9.31-.04-.65 0-1.25.44-1.79.78-.93 1.13-1.95.88-3.21-.08-.41.35-.95.6-1.4.78-1.36 1.81-2.59 2.28-4.12.03-.09.13-.17.21-.24 1.07-.96.06-2.73 1.53-3.64 1.12-.69 1.5-1.98 1.66-3.29.03-.29.26-.59.47-.81 1.07-1.08 1.78-2.33 2.02-3.85.06-.38.31-.81.61-1.06 1.48-1.27 2.32-2.98 3.34-4.58.45-.71.95-1.39 1.51-2.01.55-.61 1.31-1.05 1.8-1.7.43-.57.59-1.33.9-2 .53-1.15 1.04-2.33 2.52-2.56.18-.03.47-.24.47-.38.08-1.88 2.23-1.79 2.87-3.01.74-1.41 2.41-1.66 3.21-2.93.19-.3.72-.41 1.11-.57 1.34-.57 2.79-.9 3.62-2.32.16-.27.79-.46 1.13-.38 2.25.55 4.37-.29 6.54-.52.93-.1 1.89-.34 2.8-.22.76.1 1.43.17 2.13-.16.27-.13.61-.24.9-.2 3.11.39 6.21.82 9.32 1.21 1.53.19 2.84.69 3.88 1.9.4.47.99.78 1.47 1.18.81.68 1.34.84 1.55.47.39-.69-.32-.86-.54-1.27-.15-.27-.23-.58-.35-.87-.23-.53-.24-.98.33-1.33 1.8-1.09 3.59-2.2 5.39-3.3 2.49-1.52 5.13-1.5 7.84-.72 1.15 1.07 2.77 1.54 3.69 2.92.35.52.81.96 1.24 1.43.06.07.26.12.29.09.13-.14.32-.32.31-.48-.07-.99-.46-1.81-1.33-2.39-.37-.24-.5-.6-.29-1.09.48-1.11.58-2.24-.09-3.34-.1-.17-.22-.48-.14-.58.79-1.05.17-2.19.22-3.28.05-1.01-.02-2.03-.02-3.04v-3.34c0-.31-.15-.71 0-.91 1.26-1.79.86-3.8.8-5.75-.02-.6.15-.96.44-1.4.82-1.23 1.38-2.57 1.58-4.05.03-.21-.02-.48.1-.62 1.43-1.77 1.42-4.16 2.67-6.05.8-1.21 1.06-2.72 1.09-4.24.04-1.75-.04-3.55 1.02-5.12.1-.15.17-.48.08-.59-.91-1.19-.23-2.39.35-3.22.7-1.01.36-2.21 1.16-3.21.74-.93.9-2.3 1.34-3.47.41-1.09.89-2.15 1.27-3.24.28-.79.41-1.63.71-2.42.37-1 .14-1.57-.88-1.97-.44-.17-.66-.87-1.1-1.06-1-.44-2.02-.98-2.39-1.93-.31-.81-.07-1.85 0-2.78.2-2.82.59-5.61 1.89-8.18.23-.44.35-1 .33-1.5-.04-1.34.46-2.53 1.16-3.55.87-1.27 1.3-2.64 1.5-4.12.19-1.38.66-2.59 1.38-3.81.73-1.24 1.51-2.53 1.78-4.01.04-.2.07-.44.19-.59 1.94-2.54 2.61-5.75 4.4-8.36 0-1.25.82-2.06 1.64-2.83 1.02-.96 1.26-2.16 1.22-3.46-.02-.41-.19-.82-.26-1.23-.64-3.51-.61-4.22.39-8.33.2-.81.15-1.64.46-2.46.39-1.01.7-1.82 1.76-2.42.85-.48 1.48-1.48 2.02-2.36.52-.85 1.02-1.82 1.14-2.79.09-.78.35-1.18.97-1.4.79-.28 1.11-.92 1.44-1.59.41-.85.39-1.06-.35-1.57-.35-.24-.69-.5-1.07-.68-2.19-1.02-2.56-2.95-2.35-5.02.22-2.17.82-4.32.96-6.49.07-1 .31-1.82.75-2.64.24-.45.65-.83.84-1.3.18-.44-.03-.92.19-1.45.36-.87.65-1.76 1.21-2.55.08-.11-.04-.38-.09-.56 0-.01-.2-.02-.24.02-1.52 1.59-3.59 2.58-4.79 4.54-.86 1.4-2.49 1.46-3.9 1.75-.49.1-1.18-.4-1.68-.77-2.1-1.52-2.34-2.91-1.11-5.13 1.11-2.01 2.15-4.07 3.15-6.14.91-1.89 1.97-3.7 2.77-5.66.74-1.82 2.06-3.42 3.24-5.03.53-.72-.21-2.05 1.16-2.29.43-.84.82-1.7 1.29-2.51.48-.82 1.06-1.58 1.56-2.38.93-1.52 2.02-2.97 2.71-4.6.71-1.67 1.76-3.07 2.72-4.57.79-1.23 1.42-2.58 2.03-3.92 1.39-3.06 2.7-6.14 4.08-9.2.25-.57.66-1.06.96-1.61.6-1.1 1.53-2.02 1.84-3.29.07-.3.27-.57.45-.84 1.64-2.44 3.13-5.01 4.99-7.27 1.69-2.04 3.25-4.11 4.53-6.42.45-.82 1.29-1.41.8-2.53-.07-.16.25-.54.45-.75.52-.53 1.04-1.07 1.63-1.5.65-.46.99-1.04 1.21-1.79.33-1.14.91-2.12 2.01-2.74.33-.18.64-.58.75-.94.62-2.07 1.78-3.73 3.52-5.02.4-.3.7-.77.98-1.2.69-1.06 1.33-2.14 2-3.2.22-.35.51-.66.75-1 .6-.85 2.44-.7 1.97-2.42.75-.84 1.48-1.71 2.24-2.53.61-.66.11-1.85 1.35-2.29.82-.29 1.44-1.17 2.08-1.86.25-.27.31-.72.42-1.1.05-.18.03-.37.04-.56 1.14.28 1.21-.72 1.68-1.32.44-.57 1.04-1.04 1.63-1.46 2.43-1.68 4.37-3.89 6.48-5.91.53-.51 1.07-1.02 1.64-1.49.36-.3.41-.63.43-1.08.11-2.29.85-3.94 3.48-4.51 1.68-.36 3.19-1.52 4.79-2.3.47-.23.95-.53 1.45-.6 2.94-.39 5.63-1.54 8.3-2.74.26-.12.61-.17.88-.1.76.21 1.42.06 2.15-.19 1.84-.62 1.84-.57 1.58-2.5-.06-.41-.19-.93 0-1.24.65-1.11.37-2.24.25-3.37-.28-2.63 0-5.15 1.12-7.58.39-.86.86-1.76.93-2.68.09-1.18.72-1.79 1.43-2.62.83-.97 1.12-2.41 1.61-3.66.11-.28 0-.73.19-.88 1.38-1.12 1.51-2.96 2.56-4.31a9.5 9.5 0 0 0 1.97-4.9c.1-.97-.64-1.68-1.58-1.36-.99.35-1.92.85-2.89 1.27-.75.33-.85.28-1.41-.56-.17-.25-.47-.44-.58-.72-.09-.23-.1-.68.04-.78 3.22-2.35 6.25-4.99 9.88-6.75.66-.32 1.43-.61 1.88-1.14 1.18-1.39 3.22-1.48 4.31-2.98.2-.28.75-.4 1.15-.43 1.02-.06 1.8-.37 2.36-1.32.3-.5.9-.83 1.4-1.2 1.68-1.25 3.72-1.96 5.25-3.46.51-.5 1.24-.79 1.87-1.18.36-.22.93-.35 1.06-.66.66-1.61 2.29-2.02 3.53-2.84 2.64-1.75 4.16-4.41 5.93-6.85.53-.73.79-1.77.85-2.69.11-1.71.48-3.34 1.01-4.95.21-.63.27-1.25-.15-1.81-.18-.24-.53-.66-.63-.61-1.08.49-2.09-.3-3.12-.13-3.78.64-7.59.21-11.38.32-3.7.1-7.37.39-11.04.88-.41.05-.83.04-1.23.12-1.24.26-2.42-.5-3.71-.06-1.28.44-2.67.58-4.02.8-1.25.2-2.52.3-3.77.5-1.55.24-3.09.61-4.65.78-.58.06-1.2-.29-1.81-.45l.05.06zm-30.75 449.18c.95 0 1.93.12 2.85-.03 1.74-.28 3.25 1.02 4.98.63.57.44 1.1.98 1.73 1.28 1.15.54 2.29 1.02 3.32 1.81 1.91 1.46 3.93 2.75 5.77 4.34 1.41 1.22 3.26 1.91 4.32 3.6.14.23.56.26.81.44 1.71 1.18 3.52 2.24 4.92 3.82.35.39.66.87 1.08 1.15 1.97 1.29 3.41 3.14 5.14 4.68 2.28 2.03 3.41 4.79 4.47 7.48.8 2.02 1.73 4.11 1.62 6.4.65 1.37.58 2.87.86 4.31.3 1.54.84 3.08.83 4.61-.01 1.46 1.27 2.66.65 4.19-.08.2.15.67.36.81.81.5 1.08 1.18 1.17 2.1.08.75.61.97 1.38 1.01 1.08.05 1.87-.47 2.41-1.28s1.1-1.5 2.02-1.92c1.3-.6 2.73-.05 3.38 1.28.35.71 0 1.55.24 2.07.67 1.37.69 2.58 0 3.9-.14.26-.12.63-.08.94.24 1.87-.37 3.78.37 5.64.18.45.12 1.05.04 1.55-.21 1.34-.81 2.7-.66 3.98.15 1.3-.62 2.76.47 3.96.09.1.03.44-.07.59-.79 1.23-.57 2.62-.55 3.95.02 1.88.2 3.76 1.31 5.4.68 1.01 1.45 1.99.61 3.33-.17.26.04.83.19 1.21.42 1.07.78 2.12.47 3.31-.09.36.06.85.25 1.2.56 1.05.76 2.14.77 3.32 0 .59.39 1.18.6 1.77.71 1.99 1.38 3.99 1.35 6.14 0 .52-.03 1.08.13 1.57.86 2.59.21 5.26.47 7.87.04.41-.02.89-.21 1.24-.35.64-.22 1.16.03 1.79.27.68.53 1.44.47 2.14-.08.82-.36 1.87.17 2.33.89.79.11 1.55.29 2.31.54 2.34.59 4.74.51 7.15-.03 1.05-.02 2.15.27 3.14.37 1.27.43 2.45.06 3.72-.24.79-.3 1.65-.34 2.48-.03.83.12 1.6-.33 2.44-.35.66-.12 1.6-.22 2.41-.18 1.57.15 3.13.08 4.72-.05 1.14-.15 2.29-.13 3.43s.79 2.15.65 3.37c-.1.93.45 1.74 1.24 2.04.72.27 1.13.65 1.6 1.22 1.61 1.94 4.69 1.78 6.3-.21.16-1.12.69-1.9 1.87-2.1-.13-.93.73-1.12 1.13-1.66.76-1.03 1.97-1.5 2.7-2.5s1.43-2.02 2.24-2.95c.63-.73 1.69-1 2-2.12.46-1.7 2.15-2.22 3.33-3.23.75-.65 1.41.11 2.07 0 1.44-.26 2.87-.64 4.29-1.02.28-.07.67-.28.74-.51.52-1.6 2.15-2.51 2.42-4.34.16-1.06 1.08-2.01 1.67-2.99.32-.53.91-.99 1-1.55.2-1.16.92-1.86 1.7-2.59.38-.35.97-.67 1.06-1.09.25-1.25 1.22-1.95 1.89-2.88 1.4-1.97 2.24-4.25 3.34-6.39.36-.71.14-1.38-.04-2.11-.3-1.25-.01-1.72 1.07-2.33.18-.1.44-.08.6-.2.22-.17.53-.42.54-.65.06-1.02.14-2.05 0-3.05-.16-1.2.25-2.24.51-3.35.07-.28-.02-.64-.15-.91-.4-.8-.69-1.55.17-2.27.21-.18.37-.55.38-.83.06-2.43.28-4.88-.54-7.22-.27-.77-.9-1.42-1.15-2.2-.25-.79-.2-1.67-.34-2.49-.05-.29-.2-.68-.43-.81-.92-.56-.76-1.44-.72-2.26.08-1.53-.23-2.88-1.21-4.14-.62-.8-1.04-1.86-1.22-2.86-.17-.95-.5-1.81-.78-2.72-.43-1.39-.91-2.83-.93-4.25 0-1.02.15-2.04.07-3.1-.1-1.3 1.47-1.7 1.92-2.74.42-.95 1.67-1.38 1.57-2.66-.02-.32.41-.69.64-1.03.35-.51.87-.97 1.05-1.54.33-1.05 1.12-1.79 1.6-2.7.54-1.02.97-1.95 2.21-2.36.47-.16.75-.96 1.06-1.51.59-1.03 1.28-1.82 2.52-2.2.86-.27 1.64-.96 2.33-1.59.53-.49.81-1.06 1.77-.87.65.13 1.38-.25 2.08.2.53.34 1.21.44 1.72.79.7.48 1.17.23 1.63-.3 1.11-1.26 2.16-2.58 3.65-3.43.26-.15.44-.46.63-.71.45-.57.8-1.27 1.36-1.69.55-.43 1.32-.57 1.98-.87 1.39-.64 2.07-2.06 3.22-2.97.15-1.38 1.27-1.71 2.26-2.33 1.16-.74 2.38-1.29 3.59-1.91 1.41-.72 2.19-1.91 2.34-3.45.1-.99.47-1.67 1.26-2.32 1.06-.86 1.28-2.12 1.06-3.47-.1-.6-.89-1.23-.34-1.74.67-.62.14-1.5.45-1.86.92-1.05.62-2.13.49-3.25-.22-1.97-.47-3.95-.71-5.92-.01-.1-.08-.2-.13-.29-.5-.87-.46-1.6.53-2.1.64-1.5 1.95-1.31 3.19-1.27.47.76.97.5 1.51.07.08-.06.31.08.48.13-.51 1.27.41 2.18.8 3.22.07.19.19.41.36.5.65.36.8.8.64 1.56-.18.86 1.14.94 1.21 1.61.11.98.76 1.42 1.4 1.96.62.52 1.14 1.17 1.77 1.68.19.15.59.06.89.06.09 0 .2-.08.28-.14.62-.48 3.55-4.28 4.01-5.19.12-.24.22-.64.41-.69 1.37-.36 1.67-1.46 1.94-2.62.15-.63.74-.92 1.21-.68.98.5 1.99.37 2.64-.23 1.12-1.04 2.39-1.89 3.17-3.42.82-1.61 1.63-3.35 3.19-4.57.82-.64 1.23-1.69.67-2.85-.08-.16.17-.67.36-.74.77-.27 1.21-.71 1.43-1.52.16-.58.48-1.24.94-1.6 1.92-1.5 1.81-3.64 1.87-5.7.02-.62-.26-1.23-.32-1.86-.07-.68.6-1.17 1.25-.92.57.21 1.06.77 1.75.35.66-.4 1.02-.96 1.3-1.7.63-1.65 1.55-3.18 1.57-5.05 0-.71.31-1.45.63-2.11.4-.83.31-1.93 1.28-2.46.05-1 .08-2.01.17-3.01.03-.3.28-.58.34-.88.24-1.1.81-2.09 1.1-3.15.23-.86.35-1.61 1.24-2.04.42-.2.41-.62.31-1.09-.08-.37-.09-.9.12-1.18.8-1.08 1.04-2.23.97-3.57-.04-.8.16-1.72.57-2.4.99-1.65.41-3.82 1.87-5.27.08-1.15.17-2.29.59-3.4.12-.31-.09-.85-.32-1.15-.53-.67-.55-1.28-.18-2.04.85-1.78 2.14-3.42 2-5.57-.01-.17.18-.4.33-.52.51-.37.53-.83.42-1.39-.06-.3-.1-.76.07-.91.96-.88 1.86-1.72 1.13-3.18-.03-.06.04-.24.12-.28 1.35-.76 1.26-2.5 2.44-3.48 1.16-.97 1.83-2.49 2.96-3.58.75-.72 1.04-1.75 1.22-2.81.28-1.66.69-3.3 1.03-4.96.06-.3.2-.71.07-.91-1.04-1.46 1.89-2.2.65-3.67-.01-.02.24-.3.4-.41.52-.35 1.05-.71 1.6-1.02.94-.54 1.85-.33 2.48.53 2.01 2.74 2.54 6.39 1.3 9.73-.42 1.14-.52 2.24-.29 3.4.03.15.28.33.46.36.16.02.45-.11.5-.23.54-1.6 1.03-3.2 1.55-4.81.46-1.42.63-2.76.16-4.3-.33-1.09-.75-2.54.2-3.66.56-.67.48-1.31.36-2.05-.21-1.3-.87-2.63.05-3.93.1-.14.07-.42.01-.6-.63-2.19.23-4.37 0-6.56-.11-1.03.17-2.05.25-3.08.21-2.7.58-5.47-1.12-7.91-.38-.54-.19-1.06.07-1.46.52-.8.43-1.49.14-2.37-.52-1.59-.72-3.27-1.2-4.87-.2-.67-.15-1.2.08-1.82.29-.79.64-1.61.65-2.42.02-1.03-.03-2.2-.5-3.07-.62-1.14.59-2.01.08-3.01-.36-.71-.28-1.41.04-2.12.6-1.3.61-2.74.27-4.01-.33-1.26.47-2.23.33-3.39-.17-1.39.93-2.21 1.61-3.23.28-.42.5-.66.9-.57 1.74.37 2.81 1.78 4.15 2.78.12.09.17.41.11.57-.91 2.35.29 4.56.46 6.84 0 .12.3.3.46.3.15 0 .44-.24.43-.33-.15-.82-.37-1.59.08-2.44.49-.92.94-1.93 1.12-2.94.17-.97-.03-2-.07-3.01 0-.11-.05-.22-.02-.32.71-2.27.49-4.61.39-6.92-.04-.97.06-1.87.29-2.81.19-.8.41-1.78.12-2.47-.45-1.06-.28-2.03-.11-3.02.16-.96.18-1.87-.07-2.81-.13-.49-.26-1.06-.13-1.51.56-2-.39-3.7-1-5.46-.07-.19-.58-.39-.81-.33-.5.13-1.02.35-1.39.69-.35.32-.58.55-1.05.3-1.66-.89-3.38-1.69-4.76-3.01-.52-.49-1.09-.98-.88-1.9.08-.34-.26-.77-.36-1.17-.58-2.14-.55-2.8.17-4.86 1.01-.61.24-1.81.82-2.55.87-1.09 1.92-2 3.26-2.41 1.12-.34 2.29-.35 3.37.3 1.17.7 2 1.88 3.35 2.32.38.85.76 1.71 1.16 2.56.09.18.23.36.4.48.33.25.7.54 1.12.18 1.41-1.23 2.79-2.5 4.23-3.7.62-.52 1.59-.66 1.58-1.77 0-.17.44-.47.69-.49.82-.07 1.29-.57 1.82-1.12 2.33-2.41 4.37-5.09 6.61-7.58.69-.76 1.09-1.8 1.51-2.77.11-.25-.43-.76-.33-1.02.13-.34.62-.54.91-.84.14-.14.25-.37.25-.56.01-1.13.65-1.97 1.19-2.88 1.07-1.79 1.01-1.81.85-4.4-.08-1.26 0-2.54-.03-3.81-.02-.84-.18-1.67-.18-2.51 0-.94-.34-1.68-1.18-2.07-.75-.35-.98-.89-1.24-1.65-.71-2.05-.94-4.31-2.51-6.02-.85-.92-1.36-2.04-1.59-3.3-.09-.51-.38-.98-.59-1.47-.55-1.25-1-2.58-2.38-3.23-.08-.04-.18-.17-.18-.25 0-.2 0-.45.11-.59.33-.39.77-.68.21-1.25-.52-.52-.97-1.11-1.42-1.69-.65-.83.29-1.61.12-2.42-.11-.51-.21-1.04-.44-1.5-1-1.95-1.96-3.92-2.66-6-.27-.8-.59-1.28-1.47-1.37-.6-.06-.9-.55-.91-1.12-.02-.62-.12-1.33.12-1.86.72-1.52.36-2.86-.37-4.23-.29-.55-.49-1.15-.66-1.74-.37-1.29-.48-2.69-1.08-3.85-.63-1.23-.94-2.55-1.5-3.78-.19-.41-.7-.54-1.05-.23-.23.21-.41.48-.63.71-.13.15-.29.28-.43.41-.04-.2-.15-.41-.12-.61.23-1.88.41-3.77.75-5.62.14-.79-.09-1.37-.28-2.08-.29-1.08-1.36-1.83-1.15-3.1.16-.98-.17-1.84-.86-2.61-.31-.35-.43-.96-.45-1.46-.07-1.47-.09-2.95-.06-4.43.02-.96.82-1.45 1.79-1.2 1 .26 1.69.86 1.98 1.86.12.4.08.84.2 1.24.17.57 1.18.77 1.6.32.21-.23.47-.46.56-.74.63-1.9 1.47-3.77.71-5.84-.04-.1-.11-.23-.08-.3.28-.67.67-1.32.87-2.02.2-.72-.89-1.22-.49-2.05.04-.09.04-.21.07-.31.21-.82.29-1.69.65-2.43.5-1.01-.26-1.76-.31-2.64-.05-.84.27-1.8-.04-2.5-.55-1.23-.45-2.45-.48-3.7-.01-.53-.02-1.07-.15-1.58-.18-.71-.58-1.38-.68-2.1-.12-.79.2-1.69-.07-2.4-.3-.81.19-1.45.07-2.16-.13-.82-.43-1.68-.31-2.47.28-1.88-.53-3.77.16-5.63.05-.14-.14-.38-.22-.57-.45-1.03-.8-2.06-.3-3.2.47-1.07-.91-2.16-.04-3.27.03-.04-.04-.21-.11-.28-.5-.51-.71-1-.14-1.62.56-.6.53-1.36.47-2.1-.09-1.06.36-1.83 1.24-2.39.35-.23.68-.51 1-.78.5-.42.96-.29 1.41.08.49.4.98.8 1.49 1.18.39.29.54.64.36 1.08-.6 1.49-.37 2.92.38 4.26.74 1.31 1.22 2.67 1.25 4.18 0 .14.25.36.39.37.16 0 .41-.15.48-.3.14-.27.24-.6.24-.9 0-1.96-.49-3.9-.22-5.88-.76-.89.32-1.98-.15-2.69-.71-1.09-.41-2.21-.53-3.29-.14-1.25-.32-2.44-.81-3.61-.49-1.16-.55-2.43-.36-3.66.13-.82.01-1.53-.64-1.98-.64-.44-.87-.83-.42-1.52.36-.56.4-1.22.22-1.83-.13-.44-.68-.86-.63-1.22.09-.59.62-1.1.8-1.69.19-.59.42-1.32.23-1.84-.61-1.68.04-2.84 1.2-3.93.37-.35.57-.88.9-1.29.56-.7.97-1.38.16-2.17.34-1.25-.32-2.51-.06-3.7.42-1.97-.34-3.72-.92-5.42-.55-1.6-1.34-3.06-.98-4.83.06-.27-.08-.6-.19-.88-1.16-2.82-2.47-5.6-2.75-8.7-.02-.2-.1-.42-.2-.59-1.5-2.46-2.11-5.25-3.05-7.93-.3-.87-.94-1.64-1.52-2.38s-1.27-1.41-1.93-2.09c-1.38-1.43-3.12-1.5-4.94-1.25-.76.96-1.84.85-2.89.88-.63.02-1.28.03-1.89.15-.57.11-.82 1.02-1.61.69-.71.93-1.87.88-2.82 1.29-.37.16-.85.16-1.13.4-1.47 1.3-3.52 1.86-4.51 3.81-.34.67-1.25 1.09-1.96 1.52-1.19.72-2.34 1.41-2.82 2.85-.11.33-.53.71-.87.79-1.21.3-1.94 1.1-2.55 2.11-.27.44-.62.94-1.05 1.14-1.79.79-3.12 2.14-4.49 3.47-.29.29-.65.61-1.02.69-1.02.23-1.65.95-2.28 1.64-1.34 1.48-2.84 2.74-4.46 3.91-.84.61-1.72 1.22-2.12 2.3-.13.36-.49.69-.83.91-1.03.67-1.43 1.78-2.08 2.73-.7 1.03-1.68 1.88-2.53 2.82-.07.08-.13.17-.16.27-.65 1.99-2.19 3.56-2.6 5.69-.14.72-.3 1.33-.2 2.1.1.76-.36 1.6-.54 2.41-.42 1.95.29 3.92-.12 5.91-.23 1.13.73 1.7 2.08 1.59q.6-.045 1.2 0c.62.06 1.24.23 1.85.22 1.1-.02 2.2-.83 3.29.23.19.18.99-.14 1.43-.37 1.31-.67 2.57-1.38 3.96-1.92 1.43-.56 2.8-1.28 4.3-1.73 1.2-.36 2.5-.58 3.12-1.92.1-.22.5-.42.78-.44 1.42-.11 2.53-.99 3.79-1.45 1.51-.56 2.37-1.61 3.31-2.78.56-.7 1.51-1.1 2.29-1.62.26-.17.73-.2.82-.41.64-1.54 2.29-1.72 3.45-2.51 1.43-.97 3.31-1.3 4.18-3.06.08-.15.34-.22.52-.31.93-.5 1.85-1.01 2.8-1.48.35-.17.76-.29 1.15-.33.27-.03.38.93.12 1.46-.27.57-.59 1.12-.89 1.67-1.01 1.86-2.47 3.37-3.85 4.93-.74.84-1.11 2.05-2.31 2.43-1.2.37-1.91 1.26-2.57 2.23-.3.44-.53.89-1.13 1-1.65.3-2.84 1.33-3.91 2.53-1.06 1.19-2.21 2.19-3.84 2.55-.56.12-1.1.6-1.5 1.05-.31.35-.51.51-1 .45-.37-.04-.92.07-1.15.33-.91 1.01-2.03 1.37-3.34 1.55-.81.11-1.58.57-2.34.92-.47.22-.89.72-1.36.76-1.81.17-3.4 1.06-5.16 1.44-1.69.37-3.59-.4-5.09.91-.03.03-.21-.04-.26-.11-.88-1.12-2.44-.21-3.42-1.16-.25-.24-.8-.25-1.22-.24-1.18.01-2.73.63-2.29-1.65.04-.19-.38-.47-.6-.7-.64-.7-1.3-1.39-1.94-2.09-.59-.65-1-1.4-.87-2.3.24-1.66-.2-3.37.53-5 .24-.54.17-1.25.18-1.88 0-.83-.4-1.78.35-2.41.8-.67.06-1.72.69-2.31.95-.89.97-2.25 1.82-3.23.81-.93 1.15-2.27 1.91-3.26 1-1.29 1.56-2.98 3.35-3.64.59-.22 1.06-1.03 1.37-1.68.47-1.01 1.95-1.39 1.71-2.8.59-.21 1.21-.36 1.76-.65.35-.18.71-.5.87-.85.39-.82 1.1-1.26 1.8-1.72.44-.29.92-.52 1.32-.86.71-.61 1.11-1.58 2.11-1.86 1.16-.31 1.22-1.68 2.17-2.21.44-.25.73-1.01 1.13-1.05 1.47-.13 1.73-1.36 2.38-2.26.23-.32.54-.69.89-.79 1.83-.51 3.03-1.78 4.15-3.2.38-.49.89-.88 1.35-1.3 1.72-1.55 3.5-3.03 5.13-4.67.53-.53 1.01-1.04 1.69-1.35.76-.35 1.5-.75 2.28-1.05 1.56-.6 3.3-.9 4.66-1.79 1.43-.94 3.23-1 4.51-2.18.17-.16.62-.18.84-.07.64.33 1.24.21 1.84 0 .62-.21 1.21-.25 1.86-.08 1.02.26 2.06.43 3.1.62.88.16 1.54-.49 1.17-1.26-.79-1.66-.81-3.42-1.05-5.18-.35-2.61-.93-5.19-1.42-7.78-.02-.09-.1-.16-.15-.24-.08.07-.2.12-.24.21-.46.94-.9 1.9-1.37 2.83-.1.21-.32.36-.49.53-.07-.2-.15-.39-.19-.59-.17-.93-.6-1.91-.45-2.8.5-3.02-1.06-5.97-.22-8.97-.35-.93-.23-1.82.04-2.77.29-1.02-.42-2-.25-3.1.17-1.07-.3-2.28 0-3.28.29-.95-.46-1.88.18-2.72-.48-.83-.27-1.78-.48-2.62-.15-.63-.29-.98.03-1.65.84-1.77 1.09-3.6-.45-5.25-.5-.53-.02-.88.37-1.28.43-.44.2-1.07-.36-1.15-2.08-.29-4.18-.53-6.26-.86-1.34-.21-2.63-.82-4.04-.21-.32.14-.8-.13-1.21-.18-2.98-.36-5.91-1.17-8.96-1.09-.71.02-1.43-.21-2.13-.38-.28-.06-.53-.25-.8-.38.2-.03.41-.09.61-.1 1.27-.04 2.54-.07 3.8-.1 3.58-.06 7.17-.4 10.71.5.4.1.84-.03 1.26.01 1.47.13 2.93.32 4.4.41.83.05 1.67.01 2.49-.11.88-.13 1.16-.75 1.33-1.79.26-1.57-.39-3.07-.3-4.62.02-.25-.53-.77-.79-.76-1.35.08-2.76-.12-4.03.14-3 .62-6.07.58-9.06 1.19-1.03.21-2.07.53-3.11.56-3.07.08-6.07.9-9.16.7-.92-.06-1.77.41-2.8.21-.97-.18-2.05.26-3.08.42-1.36.21-2.71.42-4.07.6-.11.02-.27-.2-.38-.34-.02-.03.08-.22.16-.25.48-.21.96-.44 1.47-.59 2.75-.79 5.58-1.12 8.42-1.34 2.42-.19 4.84-.28 7.25-.5 1.14-.1 2.25-.52 3.39-.59 4.64-.26 9.15-1.48 13.78-1.73.21-.01.42-.07.61-.15.58-.21 1.3-.31 1.67-.71.23-.24-.08-.99-.16-1.5-.16-.97-.06-1.89.38-2.78.3-.61.29-1.23-.21-1.76-.97-1.03-1.2-2.23-.72-3.52.37-.98.41-1.82-.38-2.63-.15-.15-.09-.58-.01-.85.12-.4.43-.75.52-1.15.26-1.11.42-2.25.67-3.36.28-1.23.61-2.45.91-3.68-.89-1.24.37-2.1.55-3.15.07-.38 0-.87-.2-1.18-.34-.53-.07-.97-.07-1.47-.02-1.86 1.23-3.58.51-5.52-.11-.3.45-.86.71-1.3.3-.51.33-.95-.18-1.38-.36-.31-.45-.73-.01-1.06.58-.43.74-.99.69-1.66-.08-.97.05-1.87.54-2.75.24-.44.32-.99.38-1.5.11-1.04.03-2.06-.05-3.11-.09-1.06.68-2.17.82-3.29.11-.88.38-1.63.83-2.35.34-.54.68-1.07.98-1.63.07-.13-.06-.35-.1-.53-.19.05-.38.08-.56.14-.2.07-.47.1-.57.25-1.06 1.61-2.71 2.64-3.99 4.02-.42.46-.87.93-1.15 1.48-.65 1.25-1.29 2.43-2.86 2.72-.24.04-.44.39-.62.62-.31.4-.53.89-.88 1.23-.99.95-2.35 1.67-2.97 2.8-.69 1.27-2.01 1.79-2.66 3.02-.81 1.54-2.31 2.42-3.79 3.17-1.15.59-2.15 1.26-2.98 2.23-.32.37-.84.56-1.21.89-.18.17-.25.48-.33.73-.09.28-.07.75-.24.83-1.18.54-2.13 1.3-2.81 2.4-1.95.69-2.89 2.29-3.82 3.99-.42.78-1.17 1.62-1.96 1.89-.91.32-2.16.57-2.99-.31-.84-.89-1.88-1.83-.99-3.31.33-.54.18-.96-.37-1.3-2.33-1.47-4.75-2.7-7.61-2.6-2.08.08-4.13-.83-6.22-.15-.09.03-.22 0-.31-.03-1.19-.47-2.28.05-3.39.35-.4.11-.82.42-1.18.36-2.12-.39-4.12.59-6.21.52-.46-.01-1.12.27-1.36.64-.19.28 0 .89-.63.68-1.78-.6-3.52-.57-5.29.05-.38.13-.84.08-1.26.07-.5 0-.85-.35-.8-.78.15-1.14.38-2.27.64-3.39.06-.26.33-.56.58-.67 1.96-.87 3.21-2.66 5.01-3.75 2.05-1.25 3.92-2.78 5.97-4.05.68-.42 1.23-.95 1.68-1.7.48-.8 1.16-1.72 2.46-1.49.27.05.65-.45.96-.71.05-.04.06-.19.03-.25-.05-.09-.17-.2-.24-.19-1.44.26-2.9.46-4.31.84-1.28.34-2.75.23-3.74 1.44-.2.25-.81.32-1.19.26-1.74-.3-3.26.67-4.96.75-1.3.06-2.58.83-3.84 1.34-.49.2-.93.57-.92 1.18.04 1.86-1.17 2.84-2.54 3.71-1.61 1.03-3.31 1.82-5.22 2.13-1.53.25-3.42-.47-4.15-1.65-.39-.64-.42-2.05.54-2.5 1.6-.75 2.88-2.13 4.75-2.41.59-.09 1.14-.54 1.67-.87.14-.09.26-.35.24-.52-.02-.16-.22-.39-.36-.41-1.97-.36-3.94-.73-5.92-.08-.3.1-.63.24-.92.19-3.14-.55-6.03.35-8.91 1.42-.35.13-.79.04-1.19.04-.41 0-.91-.15-1.2.04-1.13.74-2.34.77-3.63.8-1.59.03-3.1.37-4.19 1.77-.35.45-1.08.62-1.66.85-.59.24-1.21.37-1.8.59-.66.24-1.03.73-1.07 1.43-.07 1.16-.17 2.32-.16 3.48 0 .82-.16 1.53-.97 1.8-.72.24-1.11-.42-1.57-.84-.66-.59-1.02-1.1-.77-2.16.25-1.07-.02-2.3-.21-3.43-.3-1.76-1-3.49-1.02-5.25-.03-1.71-.64-3.26-.8-4.93-.15-1.62.05-3.3-.81-4.86-.37-.68.08-1.91-.37-2.44-.82-.98-.57-1.97-.51-2.95.07-1.18.28-2.33-.66-3.28.11-.91-.59-1.81-.12-2.69.46-.84.45-1.72.1-2.45-.63-1.31-.18-2.67-.45-3.98.77-1.31-.26-2.41-.43-3.61-.02-.14-.32-.24-.51-.33-.03-.02-.16.1-.2.17-.61 1.3-1.32 2.54-1.93 3.84-.68 1.45-1.41 2.82-1.52 4.44-.02.29-.13.81-.26.83-1.52.23-.89 1.39-1.03 2.23-.09.5-.24 1.01-.45 1.47-.44.96-.96 1.88-1.39 2.84-.29.66-.43 1.34-.46 2.11-.03.71-.98 1.38-1.05 2.11-.08.81-.43 1.35-.81 1.96-.6.96-1.17 1.9-1.3 3.12-.11 1.12-.49 2.31-1.09 3.25-1.07 1.68-1.58 3.64-2.8 5.24a7 7 0 0 0-1.36 3.16c-.14.91-.75 1.74-1.05 2.63-.26.78-.58 1.54-.38 2.45.25 1.13-1.08 1.44-1.46 2.28-.08.19-.12.4-.18.6-.55 1.87-.5 3.92-1.9 5.53-.44.51.19 1.5.95 1.66 1.13.23 2.26.41 3.39.61 1.34.24 2.73.33 4.01.77 3.7 1.28 7.68 1.34 11.35 2.7 6.17.95 12.09 2.83 18.03 4.68 1.71.53 3.39 1.12 5.1 1.66.16.05.38-.12.58-.19-.06-.08-.1-.19-.18-.24-1.4-.95-1.45-2.53-1.69-3.94-.13-.76.21-1.63.46-2.41.19-.61 1.14-.71 1.58-.22.56.62 1.03 1.37 1.69 1.86 2.29 1.69 4.86 2.87 7.65 3.41 1.08.21 2.22.33 3.39-.21 1.2-.55 2.68-.34 3.87-1.09 1.95.14 3.36-1.02 4.84-2.03.26-.18.52-.36.81-.45.14-.04.36.11.52.21.06.04.11.22.07.26-1.52 1.84-2.74 3.96-4.74 5.37-.43.3-1.07.47-1.29.87-.75 1.34-2.08 1.67-3.31 2.26-1.07.51-1.98.54-2.91-.23-.21-.17-.6-.23-.87-.18-.51.1-1.08.25-1.21.85-.06.27.02.65.19.87.69.94 1.45 1.79 2.47 2.44.69.44 1.24 1.12 1.83 1.72.09.09.03.33.04.5-.19 0-.44.07-.57-.02-.78-.53-1.54-1.09-2.3-1.66-.68-.5-1.33-1.03-2.01-1.53-5.29-3.9-11.58-5.52-17.63-7.67-1.15-.41-2.42-.57-3.61-.99-3.68-1.3-7.47-2.27-11.31-2.91-2.81-.47-5.57-1.1-8.34-1.7-2.57-.56-5.13-1.16-7.7-1.7-1.01-.21-2.04-.35-3.07-.45-.59-.05-1.05.37-1.18.88-.12.47 0 1.02.06 1.52.05.47-.11 1.01-.54.97-.94-.09-1.09.43-1.05 1.1.11 1.94 0 3.8-1.31 5.41-.16.2-.09.58-.14.87-.27 1.44-.13 1.66 1.24 1.71.95.03 1.9-.05 2.86-.01 1.05.04 2.1.13 3.15.24.14.01.33.27.34.43.01.14-.2.42-.31.42-1.05 0-2.1-.06-3.15-.06-1.24 0-2.47-.24-3.72.19-.67.23-1.07.56-1.33 1.19-1.78 4.38-2.91 9.04-5.63 13.02-.05.07-.04.21 0 .29.32.78-.29 1.16-.72 1.58-.45.43-1.08.71-1.44 1.2-.96 1.33-2.28 2.18-3.6 3.06-1.49.99-3.25 1.73-4.39 3.02-1.33 1.51-2.98 2.23-4.65 3.09-.74.38-1.53.71-1.92 1.57-.15.32-.57.67-.91.72-1.04.14-1.68.8-2.4 1.43-.7.61-1.44 1.3-2.29 1.57-.84.26-1.51.72-2.22 1.16-.71.45-1.36 1.1-2.13 1.33-1.57.48-2.44 1.91-3.87 2.57-.4.18-.73.8-.36 1.61 1 2.23.62 4.5-.28 6.71-.2.48-.49.93-.65 1.43-.75 2.32-1.71 4.53-3.06 6.57-.4.6-.68 1.29-.96 1.97-.73 1.75-1.24 3.62-2.2 5.23-1.05 1.76-.82 3.87-1.92 5.56-.33.51-.2 1.07.14 1.48 1 1.19.93 2.6.68 3.92-.3 1.55-.58 3.04-.24 4.62.12.57-.21 1.31-.88 1.53-.99.33-2.01.63-3.04.75-.84.1-1.55.13-2.3.75-.53.44-1.63.09-2.3.68-.46.41-1.01.79-1.29 1.31-.53 1-1.4 1.47-2.29 2.07-1.04.7-2.19.75-3.28.94-2.15.38-4.03 1.15-5.66 2.61-1.4 1.26-2.76 2.6-4.32 3.63-1.58 1.05-2.67 2.65-4.35 3.58-.4.22-.69.82-.81 1.3-.1.41 0 .83-.59.86-.8.03-1.37.36-1.78 1.1-1.29 2.29-3.65 3.77-4.71 6.24-.08.18-.26.35-.43.46-1.76 1.08-2.45 3.16-4.07 4.39-.26.19-.37.73-.36 1.1.02.92-.27 1.51-1.11 2.03-.65.41-1.03 1.24-1.53 1.88.3 1.12-1.17 1.05-1.3 1.96-.06.42-.57.82-.95 1.13-.55.45 0 1.13-.52 1.69-.82.89-2.07 1.37-2.37 2.85-.24 1.19-1.68 1.75-2.22 2.91-.34.73-1.2 1.23-.94 2.24.04.15-.09.45-.22.52-1.19.57-1.46 1.76-1.94 2.8-.18.39-1.02.37-.6 1.15.51.97-.72.66-.96 1.13-.28.55-.85 1.03-.93 1.59-.35 2.31-1.77 3.97-3.16 5.69-.68.84-1.33 1.63-2.48 1.84-.25.05-.61.33-.65.56-.14.71-.53.99-1.18 1.28-.83.37-1.74.71-2.3 1.58-.61.94-1.67 1.46-2.11 2.66-.42 1.14-1.62 1.94-1.59 3.35 0 .28-.24.58-.39.86-.5.92-1.09 1.81-1.5 2.77-.38.87-.49 1.92-1.29 2.5-1.01.73-.67 1.91-1.16 2.81-1.16 2.13-2.08 4.39-3.32 6.47-1.29 2.17-2.82 4.19-3.66 6.63-.3.87-.85 1.76-1.51 2.38-.78.73-.59 1.78-1.12 2.5-1.69 2.31-2.78 4.94-4.2 7.38-1.33 2.28-2.31 4.73-3.67 6.98-.69 1.13-.71 2.38-.87 3.62-.01.09.04.2.1.29.05.08.18.2.2.18 1.13-.66 2.7-.72 3.19-2.29.28-.91.65-1.76 1.4-2.43.93-.83 2.07-1.63 2.55-2.7.54-1.18 1.68-1.81 2.13-3.01.21-.55.69-1.13 1.2-1.42 1.37-.77 2.12-2.01 2.86-3.3.26-.45.44-1.02.82-1.31 1.22-.92 1.98-2.15 2.75-3.42.84-1.38 1.97-1.46 3.07-.33.22.23.47.45.61.72.13.25.27.7.15.83-.92 1.02-.29 2.71-1.58 3.57-.23.15-.35.53-.44.83-1.1 3.54-3.36 6.46-5.11 9.65-.2.36-.52.73-.54 1.1-.1 1.99-1.47 3.43-2.14 5.16-.5 1.3-1.79 2.34-1.4 3.97.06.26-.17.59-.27.89-.46 1.5-.96 3-1.36 4.52-.21.81-.28 1.66-.32 2.5 0 .22.32.59.56.66.93.27 1.86.33 2.67-.4.55-.49 1.12-.98 1.75-1.34.74-.42.49-1.45 1.05-1.76 1.73-.97 2.4-2.86 3.76-4.15.57-.55.99-1.41 1.15-2.19.18-.85.59-1.26 1.31-1.57.8-.35 1.34-.98 1.76-1.75.4-.74 1.06-1.39 1.29-2.17.5-1.66 1.91-2.14 3.2-2.78.59-.29 1.19-.09 1.72.42.75.72 1.14 1.55.96 2.55-.13.71-.32 1.46-.7 2.06-.88 1.41-2.15 2.64-2.77 4.14-.73 1.79-2.14 2.82-3.37 4.08-.58.6-1.26 1.22-1.57 1.96-.63 1.56-2.09 2.16-3.21 3.14-.3.27-.81.49-.87.81-.28 1.44-1.32 2.04-2.49 2.64-.98.5-1.69 1.28-1.63 2.51.04.72-.39 1.12-.88 1.58-2.02 1.88-2.68 4.7-4.54 6.71-.18.19-.1.61-.18.91-.16.6-.31 1.21-.54 1.78-.51 1.27-1.08 2.52-1.59 3.79-.28.68-.11 1.88.27 2.02.64.24 1.25.08 1.78-.32.42-.31.79-.7 1.22-1.01 1.59-1.15 3.43-1.54 5.35-1.65 1.41-.08 2.4.83 3.32 1.64.74.65.52 1.88.31 2.71-.35 1.4-.92 2.84-1.75 4-.91 1.27-2.19 2.28-3.39 3.32-.9.78-2.11 1.33-3.21 1.14-1.26-.22-2.67.24-3.84-.95-.96-.98-2.22-.5-2.8.77-.22.47-.32 1.01-.59 1.45a42.7 42.7 0 0 0-4.08 8.81c-.16.49-.27 1.05-.59 1.41-1.08 1.26-1.53 2.77-1.81 4.32-.16.86-.41 1.61-.9 2.33-1.01 1.5-1.74 3.1-2.1 4.9-.18.9-.55 1.83-1.08 2.57-.6.84.24 2.14-1.04 2.72-.25.11-.43.78-.36 1.13.17.8-.16 1.39-.45 2.08-.47 1.14-.9 2.38-.93 3.59-.05 1.53 0 3.2 1.92 3.88.72.26 1.58.13 1.91-.55.22-.46.42-1 .41-1.5 0-1.55.71-2.86 1.35-4.18.31-.63.87-1.19 1.44-1.63.77-.59 2-.19 2.37.74.18.46.28 1.02.21 1.5-.65 4.22-1.2 5.26-3.61 8.84-1.1 1.63-2.3 3.28-2.46 5.4-.05.71-.38 1.44-.74 2.07-.47.83-.72 1.6-.78 2.62-.08 1.62-1.38 3.1-.72 4.89.02.06-.11.17-.17.26-1.16 1.74-.86 3.83-1.34 5.74-.23.91.28 1.55 1.11 2.06.98.61 2.18.83 2.97 1.78.26.31.6.46.52.99-.08.5-.02 1.04.09 1.53.45 2.11.4 3.35-.43 5.47-.16.42-.27.75-.09 1.18.15.37.28.63-.39.85-2.07.68-4.04 1-5.98-.3-.08-.06-.2-.06-.3-.09-.49-.12-1.03.15-.98.5.2 1.27-1.7 2.05-.74 3.43-.23.79-.34 1.66-.74 2.36-.34.59-.32 1.09-.39 1.71-.17 1.45-.56 2.86 0 4.31.06.17.04.51-.08.58-1.28.88-.53 1.93-.12 2.79.6 1.24.56 2.49.22 3.69-.49 1.68-.82 3.28.13 4.89.1.17.14.41.12.6-.2 2.31 1.38 4.15 1.68 6.35.16 1.12.57 2.27 1.13 3.25 1.14 1.98 2.23 4.04 4.18 5.42.12.08.13.31.19.48-.2.02-.43.13-.58.06-1.32-.67-2.61-1.38-3.93-2.05-.15-.07-.5-.04-.56.06-.64 1.06-1.64 2.06-1.08 3.44.61 1.5.02 2.91-.21 4.33-.05.29-.58.66-.93.71-.33.05-.84-.18-1.06-.46-.61-.74-.95-1.62-1.06-2.59-.2-1.78-.53-3.53-1.26-5.19-.25-.56-.33-1.23-.35-1.85-.07-3.24-1.69-5.8-3.6-8.22-1.61-2.03-3.95-2.14-6.27-2.26-1.52.66-3.07 1.27-4.56 2-.43.21-.7.76-1.05 1.15.58.06 1.16.14 1.74.16.19 0 .39-.16.59-.21.75-.18 1.2.07 1.43.75.46 1.38.07 2.21-1.31 2.67-.39.13-.82.13-1.24.2-.66.12-1.16.42-1.34 1.14-.07.25-.27.54-.5.66-.75.38-1.51.74-2.3 1.01-.48.17-1.08.36-1.52.22-1.08-.33-2.09-.72-3-1.57-.92-.86-1.91-2.06-3.32-2.07-1.8-.01-3.53-.78-5.3-.53-1.74.25-3.53-.66-5.23.29-.19.11-.57-.1-.86-.18-.4-.11-.79-.33-1.2-.36-1.26-.08-2.53-.2-3.77-.08-1.38.14-2.44 1.06-3.54 1.84-.17.12-.38.18-.59.23-1.01.27-1.5 1.28-2.58 1.62-1.04.32-1.94 1.26-2.78 2.05-.69.65-1.29 1.29-2.21 1.69-.72.31-1.24 1.09-1.85 1.66.21 1.2-.78 1.58-1.45 2.21a81 81 0 0 0-3.35 3.33c-.26.27-.5.76-.43 1.09.12.64-.08 1.05-.58 1.3-2.3 1.16-3.37 3.09-3.59 5.58 0 .11.02.27-.04.31-.22.15-.48.39-.7.36-.71-.09-1.01.31-1.05.87-.07.91-.4 1.68-1.12 2.18-1.12.79-1.46 2.05-1.99 3.16-.6 1.28-.54 2.83-1.59 3.97-.17.18-.07.6-.1.9-.03.4.1.96-.11 1.18-.82.84-.91 1.85-.96 2.92-.02.36-.21.84-.48 1.05-.6.45-.64 1.03-.72 1.66-.06.52-.06 1.15-.35 1.51-.85 1.05-1.01 2.36-1.27 3.54-.49 2.19-1.38 4.45-.23 6.73.04.09.05.22.02.31-.23.91-.61 1.81-.65 2.73-.04 1.02.53 2.12.31 3.06-.68 2.87-.37 5.64.32 8.44.26 1.07.66 2.02 1.68 2.56.5.26.45.56.33 1.01-.38 1.46-.11 2.95 1.22 3.62 1.49.75 1.26 2.35 2.21 3.29.33 2.92 2.05 5.23 3.44 7.68.3.53.75 1.03 1.25 1.37 1.9 1.3 2.47 1.9 3.24 3.79.35.85.58 1.79 1.78 1.84.14 0 .4.34.37.46-.26 1.05.57 1.44 1.13 2.03.5.53 1.12 1.11 1.29 1.77.22.85-.27 1.86.67 2.58.11.08-.08.57-.16.86-.13.48.59 1 0 1.42-.42.3-.94.62-1.43.64-.93.05-1.9-.02-2.81-.22-.66-.15-1.22-.21-1.82.12-.38.21-.74.36-.52.91.2.51.4 1.02 1.08.91.73-.12 1.44-.35 2.17-.44.76-.09 1.96 1.1 1.82 1.84-.07.34-.44.72-.77.87-1.79.84-3.36 2.08-4.04 3.85-.62 1.6-1.69 2.83-2.51 4.25-.36.62-.85 1.25-1.45 1.62-.93.57-1.59 1.37-2.31 2.13-.78.82-1.86 1.38-2.14 2.63-.03.14-.52.17-.77.29-.27.13-.68.27-.75.49-.42 1.27-1.58 1.96-2.24 3.01-.88 1.41-2.41 2.42-2.65 4.24-.04.28-.28.56-.48.79-.91 1.02-1.76 2.14-2.8 3-1.13.94-2.12 1.95-2.93 3.17-.06.09-.15.15-.24.21-.86.6-1.83 1.1-1.65 2.44.03.22-.27.57-.51.74-1.39.96-2.03 2.4-2.55 3.91-.18.53-.43.96-.98 1.14-.71.23-1.01.74-.98 1.44.07 1.44-.38 2.67-1.22 3.84-.42.58-.63 1.32-.24 2.09.13.25.18.67.06.9-.63 1.23-.61 2.39-.06 3.66.17.39-.19.99-.23 1.5-.18 2.08-.74 4.17.55 6.15.31.47.38 1.23.27 1.8-.14.73.05 1.19.49 1.71.33.39.65.89.72 1.38.21 1.5 1.24 2.64 1.63 4.04.07.24.41.52.67.58.74.18.96.63 1.12 1.32.11.45.51.91.91 1.2 1.39 1.02 2.81 2 4.28 2.91.49.3 1.19.26 1.73.51.56.26 1.02.73 1.57 1 .36.18.81.24 1.22.25 1.47.04 2.87.22 3.99 1.32.21.21.54.34.84.42 1.83.51 3.58 1.21 5.16 2.29 1.07.73 2.25-.14 3.33.28.08.03.35-.23.41-.4.25-.79.57-1.59.66-2.41.14-1.15-.11-2.37.18-3.46.39-1.46-.91-2.28-.98-3.52-.05-.84-.3-1.66-.39-2.5-.14-1.46-.35-2.92-.92-4.26-1.02-2.43-1.41-5.05-2.46-7.46-.54-1.24-.49-2.47-.41-3.74.05-.77.73-1.39 1.49-1.33.73.06 1.45.24 2.18.34 2.14.31 2.85-.07 3.65-1.94.16-.38.2-.82.33-1.22.32-.99.68-1.98 1-2.97.34-1.08.5-2.24.99-3.24 1-2.01 1.64-4.11 2.03-6.3.26-1.45.58-2.87 1.25-4.22.36-.74.33-1.67.67-2.42.34-.74.94-1.36 1.39-2.06.11-.16.06-.42.14-.61 1.2-3.04 2.29-3.44 4.89-1.54 1.56 1.14 3.15 1.47 5.04 1.43 1.32-.03 2.08-.96 3.17-1.26.84-.23 1.03-.98 1.47-1.55.79-1.05 1.34-2.4 2.7-2.84 1.33-.42 2.22-1.13 2.56-2.52.09-.38.39-.74.68-1.03.82-.81 1.71-1.55 2.53-2.36.36-.36.86-.83.86-1.26 0-1.07.67-1.41 1.44-1.75.47-.2 1.11-.29 1.37-.65.59-.8 1.34-1.33 2.14-1.85.53-.34 1.01-.77.9-1.54-.02-.14.18-.44.3-.45.96-.08 1.52-.74 1.98-1.42.76-1.13 1.8-1.82 3.09-1.96 1.49-.16 2.96-1.34 4.52-.19.1.07.42-.02.56-.14.92-.79 1.79-.44 2.6.13 1.25.88 2.68 1.18 4.15 1.31.45.04.78.09 1.1.42.5.52 1.06.98 1.6 1.47l.66.6c.24-.31.43-.67.72-.91.18-.16.53-.25.76-.2.55.13.97.49.96 1.1-.02 1.44.81 2.05 2.09 2.35.47.11.94.41 1.31.74.44.4.73.16 1.08-.07 1.03-.67 1.11-.68 1.74.1.32.39.43.98 1.08 1.02 1.45.1 2.91.21 4.36.29.68.04 1.32.3 2-.39.55-.56 1.52 0 1.94.48.71.82 1.29.44 1.92.09.35-.2.64-.52.93-.82.88-.93.93-1.02 1.99-.24.72.53 1.11.3 1.59-.22.26-.28.67-.76.86-.69.78.25 1.12-.05 1.54-.65.26-.38.89-.82 1.26-.75.73.14 1.19-.11 1.72-.48.6-.42 1.22-.94 1.9-1.08.84-.17 1.27-.58 1.64-1.26.3-.56.83-1.22 1.47-1 1.11.39 1.74.18 2.28-.86.3-.58 1.01-.64 1.67-.71 1.33-.14 2.65-.37 3.96-.6.74-.13 1.48-.32 1.38-1.37-.01-.14.17-.4.31-.44 1.01-.29 2.02-.54 3.04-.78 1.85-.44 3.71-.81 5.48-1.55 1.01-.42 1.9-.82 2.45-1.85.23-.43.7-.8 1.14-1.02 1.41-.72 2.85-1.38 4.3-2.02.36-.16.87-.32 1.17-.18 1.18.52 2.28.02 3.41-.09.83-.08 1.74-.33 2.48-.09 1.03.33 2.03.53 3.09.58.09 0 .27.12.26.14-.04.17-.08.41-.2.48-1.03.52-2.2.84-3.08 1.53-1 .79-2.18.66-3.23 1.07-.29.11-.55.3-.8.47-.07.05-.11.19-.1.29 0 .07.11.17.18.18.41.05.84.14 1.25.09 1.76-.18 3.49-.86 5.28-.09.32.14.81-.13 1.22-.19 1.24-.2 2.47-.39 3.71-.57.51-.07 1.07 0 1.55-.18 2.14-.78 4.36-.68 6.56-.75zm219.49-166.2s.08-.02.12-.02c-.25-1.43-.49-2.87-.76-4.3-.09-.47-1.22-1.41-1.59-1.38-1.35.09-3.04 1.6-2.88 2.88.19 1.6.25 3.29 1.33 4.67.58.75 1.54 1.03 2.52.68.93-.33 1.33-.9 1.34-1.9 0-.21-.04-.42-.06-.63zm-78.11-314.88c.48-.08.8-.09 1.09-.18 1.1-.33 2.18-.8 3.3-1.02 1.48-.29 2.35-1.29 3.2-2.36.11-.13.15-.43.07-.56-.08-.15-.34-.21-.52-.28a.47.47 0 0 0-.31-.01c-2.33.53-4.47 1.64-6.74 2.37-.19.06-.39.21-.49.38-.15.25-.37.61-.29.82.13.34.47.6.68.84zm-191.12 266.96s.01-.07.02-.1c.42 0 .84.05 1.25-.02.28-.05.62-.2.79-.42.73-.88 1.45-1.78 2.06-2.74.15-.24-.03-.79-.21-1.11-.11-.21-.53-.39-.78-.35-2.22.38-3.57 2.04-5.02 3.53-.28.29-.04.93.36 1 .5.09 1.01.14 1.52.21zm322.39 91.53c-.04-.09-.11-.26-.13-.26-.17.04-.39.07-.49.19-1.27 1.67-2.59 3.32-3.77 5.05-.88 1.3-1.6 2.72-2.35 4.1-.07.13.08.38.13.57.08-.02.18-.02.22-.07.61-.71 1.39-1.35 1.79-2.17.76-1.53 1.68-2.89 2.86-4.13.87-.92 1.5-2.02 1.74-3.29zm-75.27 87.3c-.32.34-.67.68-.97 1.06-.06.07.08.32.17.46.02.04.23.03.28-.03.31-.35.61-.72.9-1.09.03-.04-.05-.18-.1-.25-.05-.06-.13-.08-.27-.15z"/><path fill="var(--illustration-ink)" d="M638.402 165.685s.53.05 1.04-.08c.74-.18 1.35-.18 2.08.23.91.51 2.01.31 3.05.29.81-.02 1.34.57 1.48 1.34.19 1.03.45 2.04.58 3.07.06.49.04 1.07-.16 1.49-.44.9-.65 1.84-.36 2.76.3.97-.03 1.64-.68 2.25-.45.43-.31.63.19.87.37.18.66.54 1.04.72.69.34 1.12.84 1.54 1.49.99 1.55 1.45 1.69 3.45 1.12.71-.2 1.23-.05 1.79.24.51.26.83.7.71 1.29-.47 2.47-1.04 4.93-1.43 7.41-.11.72-.43 1.07-.9 1.52-.88.84-2.01 1.51-2.21 2.92-.05.33-.5.65-.83.88-.52.35-1.08.85-1.65.88-1.73.08-2.21 1.38-2.83 2.58-.17.32.15.97.49.99.52.03 1.05 0 1.57.03s1.1-.02 1.55.19c.66.31-.11.97.16 1.39.27.43.61.86 1.01 1.18.41.33.77-.06 1.1-.29.57-.4 1.05-.12 1.36.32.35.5.6 1.06.32 1.74-.42 1.02-1.73 1.15-2.11 2.25-.31.88-.73 1.77-1.32 2.48-.8.96-1.76 1.81-2.75 2.58-2.32 1.81-4.51 3.82-7.35 4.85-.73.26-1.31.71-1.66 1.4-.62 1.23-1.5 1.95-2.96 1.99-.58.02-1.15.44-1.71.71-.66.32-1.27.76-1.96.99-1.7.57-3.42 1.06-5.14 1.55-.76.22-1.47.16-1.99-.53-.39.56-.73 1.19-1.21 1.66-.25.25-.82.38-1.17.28-1.42-.37-2.91.34-4.33-.39-.32-.16-1.08.13-1.39.45-.44.46-.35 1.27-1.28 1.48-.58.13-1.1.51-1.77.52-.63.01-.25 1.2-1.17 1.12-.62-.05-1.25.15-1.88.16-.52 0-1.08 0-1.57-.17-1.15-.4-2.03.17-2.95.68-.43.24-.58.6-.47 1.05.13.51-.05.87-.56.88-.61.01-1.53.11-1.78-.23-.84-1.13-1.78-.76-2.76-.48-.57.17-1.13-.37-1.78.17-.36.3-1.29-.15-1.75.11-.6.34-1.16.99-1.44 1.63-.44 1.01-1.03 1.49-2.14 1.4-.66-.05-1.15.3-1.61.83-1.35 1.54-3.24 2.31-4.97 3.29-.27.15-.61.36-.88.31-1.43-.25-2.06.47-2.54 1.7-.33.83-1.67.14-2.11 1.05-.86.04-1.62.16-2 1.14-.11.29-.64.52-1.01.59-.55.11-1.04.23-1.28.78s-.59.73-1.23.68c-.46-.04-.95.31-1.43.48-.38.13-.77.37-1.15.35-1.48-.08-2.57.46-3.46 1.67-1.19 1.62-2.82 2.2-4.75 1.44-1.26-.49-2.15-.22-3.1.76-.49.5-1.51.45-2.25.75-.79.32-1.45.62-2.4.31-.72-.24-1.77-.16-2.41.22-.64.37-1.37.55-1.93.97-.93.69-1.89.84-2.96.61-1.37-.29-2.71-.37-4.06.16-.36.14-.83.05-1.24 0-1.52-.18-3.43.02-4.76.35-1.64.4-3.3.63-5.01.51-.7-.05-1.18-.32-1.55-.91-.3-.5-.79-.75-1.34-.44-2.02 1.15-3.88.36-5.67-.53-.81-.4-1.49-.73-2.37-.34-.46.21-.77-.13-1.06-.46-1.19-1.32-2.93-1.54-4.47-2.15-.08-.03-.24-.02-.3.04-.71.75-1.15.55-1.5-.35-.42-1.07-1.14-1.77-2.4-1.7-.2.01-.46-.06-.59-.19-1.43-1.39-3.43-2.02-4.71-3.62-.34-.42-.59-.8-.77-1.32-.23-.68-.54-1.39-1.01-1.92-.61-.69-1.64-1.1-2.07-1.86-.47-.83-.81-1.63-1.59-2.27-.53-.43-.94-1.18-1.1-1.86-.38-1.65-1.33-3.06-1.82-4.65-.18-.59-.27-1.25-.97-1.54-.16-.07-.37-.36-.34-.5.45-2.03-1.44-3.44-1.42-5.4 0-.66-.34-1.27-.22-2.07.13-.86-.22-1.9-.64-2.72-1.16-2.22-1.05-4.68-1.46-7.03-.16-.91-.07-1.93.19-2.82.42-1.49.42-3.01-.02-4.37-.31-.94.58-2.11-.59-2.86-.08-.05.16-.76.38-1.07.45-.64.87-1.29.38-2.02-.48-.71-.4-1.3-.15-2.07.38-1.17.63-2.4.79-3.62.22-1.7.67-3.25 1.6-4.74.77-1.22 1.01-2.74 1.52-4.11.7-1.85 1.69-3.61 2.05-5.59.1-.53.29-.97.88-1.2.24-.09.36-.48.53-.73.53-.79-.17-2.06.8-2.59.81-.44 1.15-1.2 1.72-1.79.56-.59 1.34-1.05.98-2.12-.06-.18.5-.59.8-.86.15-.14.42-.18.5-.34.27-.55-.39-1.29.29-1.74.51-.34 1.13-.53 1.65-.86.24-.16.54-.56.49-.77-.31-1.39.78-1.72 1.57-2.37.52-.43 1.23-.84 1.05-1.8-.04-.24.45-.65.78-.87.62-.4 1.31-.68 1.93-1.06.62-.37 1.28-.69 1.41-1.57.09-.65.6-1.08 1.18-1.41.25-.14.61-.46.59-.66-.18-1.48.95-1.52 1.88-1.95 1.34-.61 2.59-1.38 3.32-2.82.31-.6 1.06-.98 1.59-1.48.29-.27.15-.92-.22-1.07-1.39-.55-2.76-.95-4.29-.38-2.62.98-5.4.81-8.12.99-.42.03-.85-.04-1.27 0-1.04.1-2.09.42-3.09.32-.9-.1-1.72-.77-2.63-.96-.89-.19-1.47-.57-2.04-1.3-.69-.9-1.57-1.72-2.9-1.66-.26.01-.61-.18-.79-.39-1.36-1.54-3.04-2.59-4.96-3.29-.28-.1-.65-.35-.7-.59-.32-1.56-1.58-2.15-2.78-2.84-.47-.27-.77-.69-.68-1.31.03-.25-.12-.74-.25-.76-1.31-.2-1.76-1.46-2.7-2.1-.63-.43-1.16-.91-1.2-1.75 0-.19-.13-.51-.26-.55-1.41-.41-1.35-1.75-1.81-2.77-.6-1.34-1.29-2.65-1.81-4.03-.29-.77-.34-1.64-.45-2.47-.1-.73-.14-1.47-.21-2.2-1.39-1.01-.49-2.31-.37-3.47.15-1.35.52-2.67.77-4.01.07-.4.17-.85.06-1.22-.21-.71 0-1.22.47-1.72.36-.39.65-.84 1-1.23.37-.41.41-.83.47-1.38.11-1.13.51-2.23 1.21-3.19 1.29-1.77 2.27-3.71 3.28-5.66.85-1.64 2.28-2.98 3.45-4.46.45-.57 1.04-1.09 1.31-1.74.55-1.31 1.54-2.27 2.44-3.29.75-.86 1.84-1.45 2.1-2.7.04-.18.21-.4.38-.49 2.25-1.14 3.3-3.47 5.1-5.05.87-.77 1.79-1.49 2.73-2.17 1.97-1.43 3.7-3.11 5.36-4.88 1.2-1.28 1.5-2.69.42-4.64-.46-.83-.95-1.64-1.42-2.45-.42-.73-.74-1.5-1.72-1.72-.32-.07-.6-.53-.81-.86-.47-.72-.96-1.29-1.83-1.64-.74-.3-1.37-.96-1.93-1.58-2.46-2.71-5.77-3.94-9.06-5.2-.19-.07-.41-.1-.62-.11-.84-.03-1.69-.11-2.53-.05-.87.07-1.1-1.23-2.2-.83-.91.33-1.78-1.3-2.88-.32-.88-.3-1.75-.59-2.63-.9-.25-.09-.7-.02-.57-.49.08-.3.21-.66.44-.83 1.73-1.28 3.63-2.07 5.85-1.88.74.06 1.48.16 2.21.11.79-.06 1.41.22 2.08.59 1.65.89 3.19 2.08 5.24 2.05.45 0 1 .35 1.35.7 1.22 1.21 2.64 2.11 4.15 2.89.64.33 1.24.78 1.8 1.25.89.75 1.74 1.54 2.58 2.35.98.94 2 1.82 2.61 3.11.4.84 1.14 1.51 1.69 2.29.79 1.11 1.55 2.24 2.31 3.37.15.22.08 2.72-.07 3.01-.78 1.49-1.48 3-2.75 4.21-1.66 1.58-3.11 3.4-4.78 4.93s-3.16 3.38-5.3 4.38c-.75.35-1.03 1.04-1.35 1.69-.62 1.24-1.27 2.41-2.58 3.1-.43.23-.84.73-.99 1.19-.24.75-.65 1.28-1.27 1.75-.32.25-.63.6-.78.98-1.08 2.69-3.02 4.77-4.86 6.92-.27.32-.55.66-.73 1.03-.94 1.97-1.85 3.96-2.77 5.94-.21.46-.31 1.06-.66 1.37-.78.7-1.21 1.39-.83 2.46.07.19-.28.52-.43.79-.15.26-.49.61-.42.77.52 1.2-.25 2.42.26 3.69.48 1.21.44 2.66.46 4.01.03 1.88.29 2.83 1.41 4.17.26.31.5.67.67 1.04q1.06 2.34 3.38 4.3c.15.13.36.35.33.49-.31 1.46.61 2.03 1.69 2.65.5.28.71 1.02 1.12 1.49.8.91 1.2 2.25 2.77 2.34.42.02.8.63 1.21.96.48.39.91.95 1.46 1.14 1.29.44 2.06 1.42 2.73 2.44.37.57.76.98 1.34 1.26.28.14.64.16.88.35.73.56 1.37 1.29 2.16 1.74.7.41 1.57-.4 2.42.24.77.59 1.75.52 2.74.29 2.14-.5 4.36-.38 6.52-.95 1.59-.42 3.36 0 5-.56 1.29.43 2.65.73 3.85 1.34 1.09.55 1.78.33 2.49-.5.2-.23.68-.35.72-.58.14-.73.32-1.01 1.2-.84.86.16 1.2-.88 1.47-1.41.54-1.05 1.08-1.47 2.22-1.01.24.09.73.02.85-.15.99-1.4 2.59-1.76 3.98-2.48.37-.19.74-.43 1.04-.71.42-.39.86-.45 1.43-.45.46 0 1.16-.26 1.35-.62.72-1.34 1.6-1.51 2.84-.77.18.11.63-.01.83-.18.65-.56 1.33-.8 2.21-.96 1.29-.23 2.7-.5 3.58-1.76.3-.44.75-.13 1.11.11.26.17.76.46.81.4 1.33-1.49 3.52-.06 4.86-1.44.48-.49 1.01-.53 1.72-.38 2.4.52 4.82-.07 7.24-.03.19 0 .46-.09.57-.24.9-1.18 1.73-1.3 2.6.04.27.42.55.05.75-.15.71-.72 1.26-.54 1.78.24.08.12.48.22.54.15.84-.97 1.23-.45 1.83.34.49.65 1.33 1.06 2.25.62.52-.25 1.09-.31 1.47.12.69.79 1.54.92 2.51 1.09 1 .17 2.02.43 2.84 1.25.35.35 1.38.06 1.7.42 1.38 1.55 3.57 1.79 4.97 3.24.34.35.71.33 1.14.34.26 0 .62.23.77.46 1.45 2.31 2.91 4.62 4.27 6.98 1.27 2.2 2.68 4.24 4.56 5.99.63.59.91.31 1.52.21 2.12-.36 4.27-.57 6.43-.04.9.22 1.49.62 1.86 1.49.71 1.66 2.11 2.27 3.8 2.03.87-.12 1.43.14 1.97.69.44.45.76 1.09 1.27 1.4 1.35.83 2.1 1.92 2.18 3.54.04.68.88.83 1.67.41.36-.19.79-.54 1.1-.46 1.52.38 3.14.11 4.61.89 1.48.78 2.95 1.64 4.75 1.61.35 0 .72.65 1.06 1.02.55.63.55 1.24.17 2.02-.4.83-.09 1.22.73 1.29.21.02.42 0 .63 0 .32 0 .63.03 1.49.07zm-139.28 48.61c.05.5.07 1.24.22 1.96.08.39.34.76.58 1.09.1.14.37.23.56.22.17-.01.41-.16.47-.31.44-1.07.86-2.15 1.26-3.23.06-.17-.04-.4-.04-.6 0-1.16 0-1.16.93-1.41.28-.08.77-.13.81-.28.6-2.26 2.71-3.08 4.21-4.47.62-.58 1.34-1.04 1.34-2.03 0-.17.18-.41.34-.5 1.57-.9 2.22-2.47 2.99-3.97.34-.66.8-1.24 1.18-1.88.45-.75.97-1.31 1.93-1.46 1.17-.19 2.21-.67 2.57-2 .03-.12.38-.29.52-.24.85.3 1.31-.02 1.78-.76.84-1.33 2.52-1.75 3.48-2.98 1.69-.01 2.33-1.21 2.82-2.53.21-.58.56-.86 1.14-.91.42-.04.86 0 1.26-.08.65-.14 1.16-.43 1.17-1.24 0-.25.22-.59.44-.73.71-.45 1.47-.82 2.2-1.24s1.39-1.01 2.17-1.29c1.04-.37.79-1.4 1.28-2.02.12-.15.34-.24.52-.33 1-.52 2.02-1.02 3.01-1.56.73-.4 1.38-.83 1.87-1.62.6-.95 1.6-1.71 2.73-1.93 1.05-.2 1.62-.65 2.14-1.58.93-1.64 2.48-1.89 3.99-.84.87.6 1.01 1.46.29 2.14-1.53 1.44-3.1 2.83-4.63 4.27-1.75 1.64-3.47 3.32-5.22 4.97-.98.93-1.74 2.12-3.15 2.56-.37.12-.82.45-.95.8-.52 1.37-1.71 1.77-2.88 2.28-.33.14-.73.57-.75.88-.06 1.04-.52 1.49-1.54 1.63-1.62.21-2.72 1.05-3.02 2.77-.06.35-.4.79-.72.93-.96.43-1.66 1.23-2.68 1.64-1.12.45-2.03 1.46-2.95 2.31-.46.42-.74 1.03-.38 1.72.33.63-.05.96-.55 1.24-.63.36-1.29.7-1.88 1.13-.56.4-1.42.7-.93 1.72.04.08-.18.41-.3.43-1.08.18-1.9 1.12-2.84 1.27-1.81.3-2.27 1.69-3.04 2.9.37.91-.34 1.45-.86 1.85-1.02.77-1.54 1.78-1.65 2.95-.08.81-.38 1.38-.93 1.87-.39.34-.82.65-1.28.9-.72.4-.05 1.27-.56 1.66-.71.55-1.1 1.1-1.03 2.1.06.89-1.03 1.56-.76 2.6.07.28.07.73.25.82 1.03.54 2.12.96 3.33.66.84-.21 1.8-1.44 1.37-2.11-.56-.86-.22-1.04.42-1.3.39-.16.83-.21 1.17-.43.33-.22.64-.59.19-1.01-.41-.39-.32-.8.08-1.03 1.6-.94 2.72-2.28 3.42-3.98.82-1.99 2.03-3.67 3.71-5.02.48-.38.96-.78.84-1.57-.05-.34.19-.86.47-1.08 1.62-1.29 2.52-3.08 3.56-4.79.32-.54.67-1.29 1.16-1.45 1.21-.39 1.7-1.31 2.42-2.2.98-1.2 2.29-2.2 3.62-3.02 1.53-.94 2.4-2.6 4.02-3.39.48-1.03 1.39-1.54 2.36-2 .36-.17.81-.48.9-.81.34-1.19 1.45-1.48 2.27-2.1.49-.37 1.17-.56 1.55-1.01 1.52-1.82 3.56-2.3 5.77-2.75 2.19-.45 3.3.62 4.35 2.14.35.51.26 1.02-.06 1.47-.22.32-.49.69-1.03.48-1-.39-1.75-.02-2.59.61-1.24.93-2.64 1.64-3.68 2.85-.67.79-1.43 1.51-2.16 2.24-.29.29-.57.68-.93.8-2.13.7-3.06 2.45-3.97 4.27-.18.35-.4.72-.7.96-2.31 1.81-4.8 3.42-6.01 6.29-.11.26-.49.39-.7.62-.19.2-.5.5-.45.67.21.79-.2 1.05-.78 1.48-.97.72-2.01 1.48-2.24 2.85-.04.25-.36.5-.61.65-1.62.91-2.87 2.1-3.26 4.01-.06.3-.19.73-.41.83-1.24.57-1.45 1.67-1.67 2.82-.04.21-.45.37-.7.52-.23.14-.64.19-.71.38-.34.87-.56 1.79-.89 2.67-.21.57-.39 1.24-1.16 1.34-.44.06-.49.33-.36.64.19.45.1.77-.23 1.13-1.29 1.36-1.98 3.13-3.11 4.58-.55.7-.76 1.27.14 1.81-.1.97.61 1.93-.36 2.94-.68.7-.22 1.46.68 1.89 1.89.9 3.77 1.33 5.72.19.06-.03.26.04.27.08.02.16.05.38-.04.49-.33.41-.72.77-1.05 1.18-.46.59-.26 1.25.48 1.52.49.18 1.01.31 1.52.41 1.08.22 2.38-.31 3.16.97.03.05.54-.14.8-.27s.59-.54.71-.48c.75.41 1.43-.3 2.11-.07.71.24.96-.15 1.17-.67.27-.69.46-1.41.77-2.08.35-.76.35-1.4-.34-1.98-.42-.35-.23-.92.05-1.12 1.18-.87 1.18-2.09 1.27-3.37.06-.81.34-1.69.77-2.38 1.72-2.73 2.91-5.7 4.09-8.67.45-1.12.95-2.13 1.83-2.9.83-.72 1.48-1.49 1.69-2.59.23-1.19 1.97-1.29 1.95-2.69 0-.12.29-.29.47-.38 1.37-.61 2.07-1.66 2.27-3.14.05-.36.31-.81.6-.98 1.15-.68 2.36-1.26 3.53-1.9.55-.3 1.2-.54 1.58-1 .73-.88 1.64-1.29 2.69-1.55.79-1.4 1.83-.22 2.75-.28.53-.03 1.06-.05 1.59-.07.65-.03.91-.43.98-1.01.04-.31.13-.63.15-.94.06-1.03-.37-2-.02-3.11.29-.93.07-2.04.36-3.06.1-.36-.02-.84-.18-1.21-.66-1.6-.68-3.27-.49-4.94.13-1.19-.04-2.3-.43-3.42-.54-1.55-1.49-3.06-.75-4.83.07-.16-.04-.42-.12-.61-.51-1.32-1.53-2.52-.89-4.11.06-.14-.12-.4-.23-.57-.29-.42-.74-.78-.9-1.24-.2-.57-.15-1.23-.27-1.83-.45-2.3-1.25-4.43-2.67-6.34-.59-.79-.77-1.87-1.77-2.39-.57-.29-.54-.79-.37-1.36.04-.13-.46-.61-.59-.57-.88.27-1.74.64-2.6.98-1.72 2.56-5.14 3.25-6.66 6.03-.08.14-.43.1-.57.23-.3.26-.56.57-.8.89s-.37.77-.67 1c-1.16.89-2.35 1.76-3.59 2.56-.61.39-1.42.49-1.98.92-.55.42-.8 1.24-1.35 1.63-2.41 1.73-4.63 3.66-6.76 5.71-.36.35-.9.51-1.35.79-1.41.87-2.82 1.75-3.98 2.95-1.47 1.51-2.94 3-4.75 4.13-.61.38-1.23.92-1.55 1.55-.44.83-1.14 1.2-1.85 1.65-.35.22-.68.54-.4 1.04.3.53.72.72 1.31.5.49-.18.99-.32 1.49-.46.07-.02.19.09.25.17.04.06.05.19 0 .25-.7 1.07-4.34 4.14-5.48 4.63-.1.04-.21.04-.31.08-1.72.66-2.04.9-3.58 2.7-.56.66-1.68.82-2.22.22-.82-.9-2.03-1.61-1.81-3.14.02-.13-.39-.46-.62-.47-1.15-.07-2 .44-1.74 1.57.27 1.18-.41 2.53.69 3.57.17.16.2.62.1.87-.67 1.61.11 3.11.41 4.6.19.93.53 1.81.24 3.01zm76.41-61.38c-.06-.25-.16-.97-.39-1.66-.22-.68-.39-1.56-.89-1.91-1-.71-.05-1.52-.4-2.3-1.05-2.33-1.3-2.76-3.51-3.62-.27-.1-.59-.05-.88-.11-1.04-.2-1.96-.58-2.74-1.4-.57-.6-1.29-1.21-2.05-1.42-.92-.25-1.36-.79-1.9-1.48-1.54-1.94-3.26-2.93-5.02-2.54-.3.07-.76.06-.87.25-.64 1.06-1.5.64-2.42.66-.74.01-1.9-.22-2.29.35-.62.9.6 1.37 1.03 2.04q.42.66.87 1.29c.24.33.44.77.77.93 1.06.52 1.62 1.3 1.68 2.47.02.47.31.78.77.87.5.1.47.61.69.81.77.76.56 1.74.79 2.59.32 1.16.65 2.22 1.77 2.85.39.21.64.48.48 1-.34 1.1-.02 2.05.64 2.97.35.49.82 1.25.66 1.68-.43 1.2.23 2.02.57 3 .37 1.06.72 2.11.78 3.3.1 1.88.59 3.73 1.49 5.43.19.35.46.79.39 1.12-.16.84.22 1.39.66 2.02.29.4.44.95.52 1.45.29 1.83.09 3.78 1.6 5.26.24.24.18.8.24 1.21.09.51.14 1.03.25 1.54.2.86-.02 1.88.87 2.5.11 1.35.28 2.7.29 4.06 0 .65-.13 1.32.35 1.79.96.92 1.23 2.09 1.64 3.3.56 1.65 1.57 3.07 1.27 5.03-.18 1.15.45 2.43.75 3.65.07.27.24.6.47.73.7.41.98.97 1.16 1.76.26 1.12.81 2.16 1.15 3.26s.33 2.41.95 3.3c.73 1.05.42 2.23.92 3.24.05.09.04.21.08.31.04.09.14.26.16.25.15-.05.35-.11.42-.23 1.19-2.05 1.04-4.25.53-6.42-.17-.71-.33-1.41-.45-2.13-.12-.7-.49-1.36-.77-2.04-.32-.76.68-1.24.39-1.99-.04-.09.04-.28 0-.3-1.24-.7-.43-1.88-.65-2.81-.31-1.3.17-2.68-.28-3.99.72-1.43.14-2.86.13-4.3 0-.92-.59-1.72-.28-2.68.26-.82-.27-1.63-.39-2.43-.13-.88.33-1.83.43-2.76.04-.39-.21-.81-.27-1.22-.13-.83-.44-1.72-.28-2.5.33-1.62-.89-3.05-.4-4.64-.93-.87-.81-1.78-.16-2.76.13-.2.12-.7-.03-.83-.82-.72-.56-1.43-.24-2.28.44-1.18.78-2.47.17-3.67-.61-1.21-.51-2.43-.46-3.7.03-.72.1-1.54-.18-2.16-.71-1.59-1.14-3.16-.57-4.88.06-.19 0-.42 0-1.12zm-14.2 20.07c-.38-1.65.15-2.78-.8-3.61-.26-.23-.33-.78-.34-1.18-.03-.86-.11-1.67-.8-2.28.42-.97-.13-1.56-.74-2.22-.24-.26-.29-.8-.25-1.2.17-1.68-.54-3.05-1.4-4.4-.16-.25-.44-.58-.39-.79.42-1.49-.48-2.64-.94-3.91-.14-.4-.43-.84-.35-1.19.31-1.35-.53-2.21-1.32-2.98-.44-.43-.57-.74-.53-1.31.02-.37-.24-.75-.39-1.12-.55-1.33-1.82-2.33-1.84-3.92 0-.09-.09-.25-.16-.26-1.55-.23-1.8-1.96-3.02-2.58-.62-.31-1.28-.46-1.78 0-.67.62-1.38.76-2.25.9-1.22.2-2.37.81-3.55 1.27-.39.16-.49.7-.25 1.07.17.26.32.56.54.78 1.4 1.42 2.49 3.01 2.94 5 .2.91.85 1.38 1.85 1.42 1.25.05 1.91.75 1.98 2.01.02.31.03.66.18.92 1.31 2.34 2.93 4.49 4.26 6.82.15.26.43.46.66.68 1.51 1.46 2.62 3.13 3.09 5.17.28 1.21.78 2.19 1.84 2.8.52.3.36.58.24 1.01-.1.37-.08.85.07 1.2.57 1.35 1.22 2.67 1.84 4.01.17.38.41.76.43 1.15.07 1.28.18 2.52 1.05 3.58.16.2.22.65.1.88-.45.9 0 1.62.32 2.4.19.46.45 1.06.3 1.46-.28.75-.47 1.55.01 2.1.63.72-.19 1.34.06 1.87.79 1.68.95 3.41.79 5.23-.08.94-.04 1.91.08 2.85.14 1.13.46 2.22.77 3.32.32 1.13-.27 2.5-.1 3.7.14.98.11 1.89-.15 2.78-.4 1.32-.33 2.64-.23 3.97.04.52.27 1.09.12 1.55-.37 1.13-.34 2.23-.3 3.41.03 1.12-.47 2.24.16 3.37.11.2 0 .69-.19.87-.89.88-.55 2-.56 2.99 0 .73.12 1.41-.15 2.14-1.13 3.1-1.31 6.33-1.09 9.58.08 1.16.23 2.27-.62 3.24-.35.4-.15.83.21 1.08.41.29.89.66 1.42.23.74-.6 1.41-1.31 2.42-1.42.81-.09 1.37-.4 1.58-1.26.04-.17.49-.3.76-.33 1.04-.1 2.09-.16 3.14-.23.8-.05 1.44-.3 1.61-1.21.19-1.03.98-1.41 1.86-1.36 1.41.08 2.68-.43 3.98-.8.57-.16 1-.79 1.56-1.02.64-.27 1.38-.29 2.05-.51.21-.07.54-.46.16-.73-.61-.44-1.17-.81-1.06-1.75.06-.47-.3-.98-.46-1.48-.14-.44-.46-.37-.67-.15-.35.38-.97.93-.87 1.23.37 1.17-.6 1.48-1.14 1.98-1.31 1.23-3.51.57-4.01-1.15.39-1.17-.39-2.44.45-3.62 1.06-1.5 1.57-3.17.97-5.05-.15-.47-.15-1.07 0-1.53.24-.7.1-1.24-.36-1.74-.72-.78-.85-1.81-1.16-2.76-.03-.08-.23-.12-.23-.19-.04-.51 0-1.02-.07-1.52-.11-.73-.24-1.46-.48-2.15-.13-.35-.54-.88-.79-.87-1.04.07-1.01-.59-.89-1.2.41-2.14-.59-4.08-.83-6.13-.13-1.12-1.01-2.03-1.81-2.89-.33-.36-.69-1-.58-1.39.4-1.45-.22-2.67-.69-3.91-.46-1.23-.2-2.78-1.57-3.62.03-.91 0-1.79-.35-2.69-.82-2.06-1.42-4.19-1.56-6.42-.04-.6-.18-1.39-.58-1.72-.8-.66.1-1.4-.33-2.02-.85-1.23-1.45-2.51-.86-4.06.1-.26-.04-.62 0-.23zm-60.87 22.02c.03.5.03.71.05.92 0 .1.04.21.08.3.03.09.1.23.14.23.09 0 .23-.07.27-.14.71-1.46 1.53-2.78 3.38-2.92.06 0 .09-.35.14-.53.44-1.56.44-1.55 1.92-1.88.29-.06.64-.14.81-.34.41-.47.89-.98 1.06-1.56.2-.66.34-1.14 1.13-1.22.26-.02.57-.31.73-.55.72-1.12 1.75-1.79 2.96-2.29.47-.19.92-.55 1.27-.93.25-.26.22-.86.49-1.01.43-.25 1.02-.19 1.5-.38.37-.15.7-.44.97-.74.54-.61.78-1.53 1.83-1.58s1.11-1.33 2.17-1.64c1.27-.37 2.42-1.28 3.49-2.13 1.39-1.11 2.81-2.1 4.54-2.6.6-.17 1.24-.41 1.46-1.1.28-.89.93-1.37 1.72-1.75 1.63-.78 3.04-1.89 4.29-3.19 1.22-1.27 3.03-1.94 3.74-3.73.06-.15.35-.2.52-.32 1.38-.94 2.82-1.81 4.13-2.84.62-.49 1.59-.99 1.49-1.9-.05-.47-.87-.83-1.28-1.3-.26-.3-.37-.74-.6-1.07-.73-1.02-1.45-2.05-2.26-3-.54-.63-1.36-.69-1.99-.22-.68.5-1.23 1.35-1.97 1.54-.92.23-1.72.38-2.38 1.17-.29.36-.94.41-1.41.63-.38.17-.89.29-1.07.6-.59 1.04-1.76 1.11-2.61 1.7-.51.35-1.12.54-1.61.9-2.63 1.93-5.24 3.88-7.85 5.84-.42.31-.9.62-1.17 1.05-.7 1.1-1.79 1.73-2.76 2.5-.32.26-.8.43-.96.75-1.18 2.29-3.65 3.48-4.85 5.77-.26.49-1.01.71-1.46 1.13-.61.56-1.26 1.13-1.71 1.81-.63.96-1.08 2.03-1.62 3.05-.13.24-.23.64-.43.69-1.45.41-1.44 1.98-2.28 2.88-.41.44-.62.96-1.3 1.14-.88.23-1.49.78-1.34 1.84.04.3.02.66-.13.91-1.04 1.81-.58 3.92-1.22 5.52zm58.22 16.99c-.12-1.03-.24-2.07-.38-3.11-.06-.42-.66-.66-.99-.39-.64.54-1.36 1.04-1.85 1.71-.82 1.11-1.65 2.17-2.79 2.96-.33 1.44-1.68 2.07-2.5 3.12a45 45 0 0 1-3.73 4.23c-.87.88-1.4 1.77-1.23 3.04.19 1.38-.35 2.5-1.56 3.18-1.23.7-1.94 1.57-1.64 3.06.05.26-.03.62-.18.84-.52.73-.67 1.55-.7 2.4-.04 1.19-.36 2.28-1.07 3.23-.45.61-.89 1.17-.54 2.01.09.22-.05.64-.22.86-.8.99-.72 2.16-.78 3.32-.08 1.41.29 2.11 2.07 1.94.9-.08 1.6-.46 2.18-1.14.37-.44.65-.19 1.05.07.91.61 1.02.63 1.75-.31.76-.97 1.68-1.21 2.8-.98.93.19 1.84.47 2.76.68.29.06.65.11.89-.02.63-.35 1.51-.66 1.74-1.22.46-1.11 1.07-1.01 1.98-.81.77.17 1.15-.27 1.25-1.03.14-1.09-.11-2.08-.53-3.08-.45-1.05-.88-2.11-.19-3.32.28-.49.29-1.31.08-1.85-.39-1-.2-1.82.29-2.65.3-.5.1-.99.12-1.49.14-2.72.17-5.47 1.09-8.08.55-1.55.63-3.08.14-4.63-.14-.45-.21-.85.2-1.11.57-.37.29-.96.47-1.43zm40.4-12.22c-.06 1.27.21 2.66.66 3.45.14.24.46.46.74.52.92.21 2.06-.64 1.86-1.48-.38-1.57.66-3.33-.64-4.76.33-1.39-.04-2.95 1.06-4.17.17-.18.28-.72.21-.76-.8-.48-.33-1.08-.2-1.65.26-1.18-.18-2.54.89-3.51-.82-1.34 0-2.63.11-3.94.02-.19-.02-.49-.15-.56-.98-.6-.52-1.22-.03-1.82.44-.54.69-1.3.29-1.74-.84-.92-.31-1.94-.53-2.85-.32-1.34.45-3.01-1.07-4.07-.28-.19-.37-.75-.44-1.15-.31-1.77-.62-3.52-1.8-4.98-.12-.15.02-.57.13-.84.11-.29.52-.6.46-.79-.31-.88-.7-1.74-1.13-2.57-.27-.51-.81-.57-1.37-.62-.98-.1-1.33-.4-1.08-.99.79-1.83.18-3.45-.56-5.09-.22-.5-.44-.9-.99-1.13-.96-.41-1.2-1.1-.63-2.04.07-.12-.01-.47-.12-.52-.78-.39-.6-.98-.41-1.61.19-.65.05-1.18-.5-1.68-.93-.85-1.89-1.72-2.61-2.74-1.12-1.59-2.62-2.69-4.2-3.72-.36-.23-.74-.48-1.11-.05-.35.41-.03.77.14 1.14.59 1.23 1.45 2.42 1.65 3.72.18 1.17.73 2.15.99 3.23.37 1.56 1.91 2.48 2.05 4.14.14 1.55.42 3.08.61 4.62.14 1.09 1.15 2.11.29 3.29.71 1.05.61 2.37 1.16 3.49.61 1.23 1.2 2.48.31 3.87-.14.22-.1.61-.04.9.15.83.4 1.64.53 2.47.14.87-.1 1.9 1.18 2.13.08.01.19.42.11.55-.55.97.12 1.84.13 2.72 0 .92-.1 1.87.04 2.8.19 1.24.27 2.55.73 3.69.43 1.04.85 1.91.79 3.15-.07 1.3.61 2.63.9 3.96.11.49.22 1.1.04 1.52-.4.92-.22 1.59.43 2.29.43.46.73 1.04 1.08 1.57.36.55.57 1.1.24 1.77-.18.36-.19.81-.19.82zm-14.21-.56c.21 1.35.37 2.49.58 3.62.23 1.2.85 2.13 1.94 2.76.82.47 1.66.94 2.4 1.53 1.23.98 2.37 2.06 3.58 3.08.19.16.5.18.77.2.05 0 .18-.35.16-.54-.07-.83-.26-1.66-.25-2.49 0-1.1-.29-2.08-.83-3.01-.32-.55-.51-1.21-.95-1.64-.72-.71-.61-1.5-.57-2.34.02-.49.52-1.04-.03-1.47-.46-.36-.61-.68-.48-1.31.18-.81.14-1.67.12-2.51-.02-.81-.34-1.41-1.26-1.56-.47-.08-.68-.49-.68-.93 0-1.37.08-2.74.04-4.11-.04-1.47.04-2.99-.33-4.38-.4-1.53-.81-3.05-1.04-4.62-.06-.4-.23-.88-.08-1.19.37-.78.76-1.48-.11-2.16.77-1.36-.17-2.64-.2-3.97-.01-.8-.26-1.72-.72-2.36-.5-.72-.5-1.27-.21-2.02.2-.52.03-1.05-.51-1.35-.77-.43-.61-.89-.16-1.51.69-.94.69-1.04-.2-1.72-.52-.39-.8-.69-.3-1.2.75-.77.75-1.46-.1-2.13-.7-.55.28-1.69-.75-2.17-.13-.06-.24-.44-.17-.56.5-.92-.2-1.85.05-2.77.49-1.79-.54-3.24-1.15-4.77-.08-.19-.88.01-.81-.63.04-.4.25-.85-.29-1.04-1.2-.41-1.75-1.44-2.39-2.4-.94-1.39-1.63-2.98-2.95-4.09-.97-.81-1.05-1.74-.6-2.83.12-.29.23-.58.3-.88.1-.43-.26-.92-.63-.83-1.17.28-2.29.18-3.39-.3-1.28.51-2.43-.07-3.62-.38-.85-.22-1.19.05-1.56 1.07-.23.64.04 1.4.69 1.5 1.21.19 2.36.93 3.67.44.23-.08.73.02.82.19.84 1.6 2.52 2.21 3.81 3.25.52.42.96.8 1.06 1.48.05.31.13.62.16.94.13 1.35 1.64 1.59 2.11 2.66-.55 1.24-.44 2.38.22 3.59.45.81.87 1.81.81 2.69-.11 1.83.67 3.47.77 5.23.1 1.75.59 3.45.64 5.21.07 2.2 1.18 4.2 1.21 6.42.02 1.05 0 2.16.34 3.12.32.9.31 1.7-.11 2.41-.78 1.31-.12 2.43.22 3.62.82.38.75 1.2.78 1.86.04 1 .51 2.07-.21 3.02 0 2.1-.49 4.19.11 6.3.25.87.1 1.85.14 2.78 1.41.42.15 1.75.82 2.41.58.57.47 1.05-.06 1.62-.33.36-.47.88-.62 1.19zm-62.29-40.54c.57 0 1.29.19 1.82-.04 1.4-.6 3.09-.63 4.15-1.93.76-.93 1.78-1.41 2.9-1.74.49-.15 1.04-.27 1.42-.59.69-.58 1.44-.82 2.31-.9.29-.03.73-.11.84-.32.65-1.15 2.05-.97 2.93-1.73.37-.33 1.18-.33 1.35-.68.32-.66-.5-1.03-.79-1.54-.29-.53-.39-1.17-.53-1.77-.04-.19.15-.46.07-.61-.28-.54-.58-1.1-.98-1.54-.5-.54-.93.22-1.34.22-1.41 0-2.34 1.23-3.75 1.26-.82.02-1.48.79-1.78 1.63-.23.65-.68 1.02-1.25 1.34-.91.52-1.73 1.35-2.7 1.61-1.6.42-2.37 1.45-2.94 2.83-.29.7-.69 1.26-1.51 1.47-.38.1-.71.43-1.03.7-.62.53-1.2 1.09-1.8 1.64.63 1.06 1.71.46 2.62.71zm63.59 54.04c.08.85.02 1.72.25 2.51.41 1.36.37 2.64-.12 3.95-.14.38-.32.82-.25 1.19.34 1.73.89 3.42 1 5.21 0 .09.58.29.74.19.31-.19.78-.61.73-.83-.35-1.55.4-2.47 1.45-3.47 1.12-1.07 2-2.4 2.91-3.68.19-.26.14-.79.02-1.14-.31-.88-.62-1.78-1.53-2.29-.25-.14-.54-.46-.55-.72-.12-2.06-1.94-3.18-2.7-4.9-.32-.74-1.02-1.31-1.56-1.95-.29-.35-.74-.21-.99.26-.36.69-.47 1.34-.1 2.1.55 1.12 1.22 2.24.69 3.58zm-76.22-42.72c.1 0 .22.05.3.02 1.54-.72 2.66-1.95 3.81-3.14-.31-1.3.9-1.42 1.54-1.98.16-.14.34-.3.53-.34 2.46-.51 3.66-2.73 5.5-4.07.06-.05.08-.15.12-.23-.1-.04-.21-.14-.29-.12-1.31.33-2.83.36-3.88 1.08-1.71 1.17-3.12 2.79-4.65 4.23-.07 1.48-1.25 2.04-2.24 2.79-.39.29-.61.82-.86 1.27-.06.11.07.33.12.5zm74.86-28.97c-.04-.2-.03-.43-.14-.58-1.23-1.85-3-2.88-5.16-3.24-.14-.02-.33.18-.49.28.11.18.19.49.33.51 1.34.23 2.24 1.1 3.08 2.04.52.58 1.16.9 1.88 1.08.15.04.33-.05.5-.09m-78.87 88.48s-.29.16-.54.44c-.04.05.3.41.42.66.27.55.46 1.13.78 1.65.13.22.5.44.73.41s.51-.33.62-.58c.29-.65.53-1.32.73-2 .08-.28.01-.6-.45-.57-.61.03-1.22 0-2.29 0zm-8.04-32.45c.05.5.05 1.02.16 1.52.06.27.25.6.48.73.31.17.73.25 1.08.2.13-.02.27-.53.26-.81-.07-1.06-.64-1.9-1.33-2.66-.06-.07-.2-.1-.29-.08-.07.01-.16.11-.17.19-.07.29-.12.59-.18.9zm82.08 20.53c-.15-.33-.32-.77-.55-1.18-.04-.08-.44-.09-.47-.02-.39.8-.21 1.56.26 2.26.05.07.18.1.28.1.07 0 .17-.06.19-.12.09-.28.16-.57.29-1.03zm37.62-17.68c.09.16.15.4.27.44.13.05.33-.1.5-.17-.12-.2-.25-.4-.37-.6-.13.11-.27.21-.4.32zM210.072 74.825c-.08.18-.14.49-.26.52-1.63.37-3.28.71-4.92 1.03-.06.01-.24-.14-.22-.18.05-.17.12-.43.23-.46 1.42-.35 2.85-.69 4.28-.98.29-.06.62.08.93.13l-.05-.06zM215.982 53.225c-.23-.02-.34 0-.43-.04-.19-.06-.38-.15-.56-.22.15-.09.3-.19.46-.26.09-.04.21-.05.3-.03.29.06.58.14.87.21-.24.13-.49.26-.63.34zM457.232 97.125c.62.02 1.25.02 1.87.07.14.01.26.18.39.28-.18.07-.37.2-.55.19-.6-.04-1.27.05-1.66-.6zM311.972 203.855c-.28 0-.4.04-.48 0-1.11-.62-2.48 1.16-3.5-.39-.64-.98-2.23-.81-2.61-2.14-.04-.15-.29-.36-.44-.35-1.71.09-1.65-1.11-1.83-2.3-.27-1.77-.71-3.51-1.11-5.26-.4-1.72-.99-3.38-.63-5.23.23-1.19.18-2.5-.07-3.68-.18-.88-.1-1.59.13-2.43.46-1.72.94-3.45.88-5.27-.01-.42 0-.88.16-1.25.8-1.77.76-3.63.65-5.49-.04-.58.07-.99.5-1.39.21-.2.42-.57.39-.83-.17-1.55 1.12-2.73 1.05-4.24 1.12-2.61 1.27-5.56 2.82-8.02.27-.43.48-.98.5-1.48.04-1.43.69-2.61 1.34-3.82.49-.91 1.01-1.83.84-2.99-.06-.43.33-.97.62-1.39.26-.39.74-.51 1.09-.17.51.51 1.13 1.06 1.31 1.7.38 1.34 1.04 2.79-.28 4.05.09.95-.22 1.75-.76 2.54-.47.68-.99 1.48-1.03 2.25-.07 1.28-.29 2.44-1.01 3.5.03 1.93-1.41 3.53-1.24 5.5.02.2-.06.43-.16.61-1.22 2.19-1.07 4.69-1.57 7.04-.22 1.03-.41 2.07-.62 3.1s-.48 2.07.2 3.05c.1.15.17.47.09.57-.9 1.09-.76 2.28-.5 3.54.07.33-.35.75-.47 1.15-.44 1.51-1.12 2.99-.31 4.6.29.58.1 1.2-.19 1.81-.37.82-.29 1.63.42 2.31.22.21.48.5.51.78.21 1.59 1.41 2.13 2.61 2.87 1.23.75 2.4.77 3.61.4.67-.21.98.08 1.34.44.61.6 1.52.81 2 .28 1.05-1.16 2.63-1.15 3.81-2.07 1.36-1.07 3-1.77 4.11-3.21.38-.49.88-.92 1.4-1.27 1.68-1.13 2.91-2.42 3.76-4.01.44-.83.79-1.79 1.45-2.41.75-.71.48-1.22.19-1.93-.21-.52-.1-1.05.5-1.31.88-.38 1.23-1.08 1.35-1.98.15-1.25.34-2.49.51-3.74.04-.31.03-.67.19-.92.83-1.32.56-2.85.86-4.27.02-.1.06-.23.02-.31-.49-1.04.79-1.73.54-2.69-.23-.91-.58-1.8-.78-2.72-.08-.38 0-.87.2-1.21.61-1.09.54-2.16.2-3.32-.17-.58-.13-1.24-.07-1.85.21-1.97-.12-3.93-.1-5.9.02-1.94-.63-3.9-1.04-5.83-.24-1.11-.7-2.19-.36-3.36.05-.17-.01-.41-.1-.57-.19-.35-.67-.71-.63-.99.25-1.46-.43-2.87-.18-4.31.13-.76.2-1.45-.58-1.96-.17-.11-.19-.53-.18-.81.04-.85.14-1.66-.77-2.23-.25-.16-.38-.76-.33-1.13.29-1.85-.68-3.49-.81-5.28-.05-.75-.66-1.56-1.22-2.14-.82-.83-1.28-1.68-.98-2.82.17-.65-.1-1.18-.6-1.25-1.25-.17-1.7-1.13-2.33-1.96-.55-.72-1.17-1.18-2.17-.77-.36.15-.83.09-1.25.05-1.02-.09-1.85.23-2.59.93-.62.58-1.29 1.14-2.25.69-1.75.77-3.67.83-5.48 1.32-1.5.41-2.66 1.62-4.16 2.14-.98.34-1.91.87-2.79 1.42-.51.32-.61 1.37-1.58.85-.5.37-1.04.7-1.5 1.11-.55.49-1.01 1.08-1.56 1.56-.48.41-1.01.79-1.58 1.05-1.55.71-2.54 2.12-3.93 3.03-.95.62-1.67 1.61-2.64 2.2-2.03 1.25-3.3 3.2-4.8 4.95-.19.22-.17.61-.31.89-.07.15-.35.37-.4.34-.26-.16-.58-.35-.69-.61-.4-.93-.33-1.92.34-2.66.92-1.02 1.99-1.9 2.23-3.37.03-.18.24-.33.37-.5.57-.7 1.73-.95 1.63-2.15.72-.59 1.46-1.17 2.17-1.77.57-.47 1.11-.97 1.67-1.45-.4-1.26.86-.8 1.27-1.23q.75-.795 1.53-1.56c.37-.35.76-.68 1.16-.98.59-.43 1.33-.73 1.81-1.26 1.02-1.14 2.31-1.82 3.63-2.49 2.62-1.33 5.14-2.87 7.89-3.95.69-.27 1.5-.46 1.99-.96 1.37-1.37 3.08-1.3 4.73-1.27.94.01 1.79 0 2.74-.22 1.5-.36 3.09-.35 4.64-.43.38-.02.85.12 1.16.35 1.53 1.12 2.97 2.33 4.61 3.31.87.52 1.73 1.32 2.18 2.21.57 1.13.74 2.47 1.03 3.73.26 1.13.47 2.27.65 3.41.13.8 1.12 1.12.91 2.22-.14.69.56 1.54.85 2.33.29.78.61 1.55.23 2.44-.13.3.15.76.24 1.15.2.8.37 1.61.6 2.4.17.61 1.09.99.53 1.82.87.88.58 2.07.88 3.09.35 1.18.13 2.3.16 3.43.02.85.89 1.46.54 2.4-.56 1.5 1.32 2.92.18 4.47-.03 1.6.26 3.14.8 4.65.12.34.01.81-.12 1.17-.64 1.72-.64 3.49-.26 5.23.17.75.17 1.45.09 2.18-.14 1.33-.58 2.61-.06 3.99.19.49-.4 1.24-.29 1.8.43 2.22-.42 4.33-.41 6.51 0 .3.06.71-.11.89-1.16 1.24-.89 3.03-1.75 4.38-.16.24-.3.62.1.81.8.37.66 1.06.46 1.62-.42 1.19-.83 2.42-1.5 3.48-.47.74-.56 1.59-.97 2.27s-1.35 1.02-1.86 1.67c-.91 1.15-1.66 2.43-2.5 3.64-.3.42-.65 1.12-1.01 1.14-1.93.1-2.9 2.12-4.77 2.26-.2.02-.41.12-.59.21-.74.39-.45 1.65-1.59 1.77-.72.08-1.41.41-2.11.65-.8.27-1.57.62-2.39.83-2.14.53-4.23 1.41-6.34.98zM336.682 90.395c-.24-2.35.34-4.5.89-6.64.23-.92.41-1.86.75-2.74.69-1.77-.14-3.25-.77-4.78-.07-.16-.37-.38-.48-.35-1.37.46-2.13-.52-3.02-1.23-.84-.68-.86-.67-.37-1.79.18-.41.22-.79-.08-1.17-.13-.17-.68-.33-.09-.59 1.06-.46 2.1-1 3.2-1.31.97-.27 1.94-.51 3.06-.31.94.17 1.96-.48 2.99.25.43.31 1.27.27 1.85.1 1.09-.31 1.81.45 2.68.74.48.16.57.62.25 1.01-.97 1.19-1.77 2.51-2.73 3.71-1.11 1.4-1.89 3-1.54 4.95.21 1.13.2 2.31.21 3.47.01 1.69.61 3.34 1.88 4.19 1.28.87 1.02 1.88.88 2.82-.13.89-.69 2.08-1.6 2.18-1.01.11-1.9-.83-2.36-1.76-.93-1.86-2.28-3.59-2.04-5.86 0-.09-.07-.19-.11-.29-.1.1-.26.19-.28.31-.43 2.47-1.63 4.79-1.36 7.4.04.39-.17.82-.32 1.21-.15.4-.52.39-.77.18-.3-.26-.68-.62-.72-.97-.1-.94-.03-1.9-.03-2.75zM349.042 65.125c.32.92 1.42.05 1.84.91.4.83 1.14 1.5 1.55 2.33 1.14 2.32 3.24 2.43 5.36 2.36.62-.02 1.18-.13 1.82.04 2.48.67 4.96.57 7.46-.03 1.52-.36 3.06-.62 4.59-.92.58-.11.89.33.7.94-.33 1.02-.62 2.03-1.9 2.27-.28.05-.56.27-.78.47-.38.34-.74 1.07-1.05 1.03-1.26-.12-1.98 1.01-3.22 1.07-2.28.1-4.54.6-6.82.9-.29.04-.71.07-.89-.1-.77-.72-1.55-1.07-2.54-.43-.08.05-.43-.13-.5-.28-.38-.83-1.09-1.07-1.87-1.46-1.38-.68-2.72-1.65-3.76-2.78-.72-.79-1.18-1.99-.94-3.22.18-.93.4-1.85.63-2.76.03-.13.21-.23.33-.36zM271.112 71.055c1.42.5 3.09.71 4.77.52 2.73-.31 5.43.27 8.14.21 2.32-.04 4.56.5 6.85.76 2.19.25 4.36.65 6.54.91 1.25.15 2.55 0 3.78.24 4.32.86 8.62 1.85 12.78 3.33.18.06.32.26.45.41.06.07.11.2.09.27-.03.08-.16.19-.24.19-.31 0-.64 0-.92-.1-.89-.32-1.76-.7-2.65-1.02-3.1-1.08-6.34-1.53-9.57-1.97-2.29-.32-4.56-.83-6.9-.65-2.74-.89-5.67-.32-8.42-1.15-4.83-.19-9.64-.97-14.5-.64-.31.02-.63 0-.95-.02-.59-.02-1.04-.39-.78-.65.27-.27.65-.43 1-.63.08-.05.21-.02.52-.04z"/></svg>