<svg xmlns="http://www.w3.org/2000/svg" fill="none" viewBox="0 0 105 47"><path fill="#fff" d="M102.749 23.552c0 6.477-1.475 12.644-4.139 18.25v.001c-.778 1.64-2.63 2.775-4.76 2.776H11.427c-1.997 0-3.749-1-4.603-2.475l-.159-.302C4 36.196 2.525 30.03 2.525 23.552c0-6.476 1.475-12.642 4.14-18.249.771-1.623 2.611-2.776 4.969-2.776h.821a1.086 1.086 0 0 0 0-2.172h-.821c-3.05 0-5.74 1.511-6.93 4.016h-.002C1.905 10.257.354 16.74.354 23.552c0 6.812 1.551 13.296 4.348 19.183h.001c1.183 2.488 3.86 4.015 6.723 4.016H93.85c2.861 0 5.54-1.528 6.721-4.016 2.797-5.887 4.35-12.371 4.35-19.183 0-6.598-1.457-12.89-4.091-18.628l-.259-.553C99.391 1.882 96.712.355 93.851.355H19.2a1.086 1.086 0 1 0 0 2.172h74.65c2.13 0 3.981 1.136 4.76 2.775 2.663 5.607 4.138 11.774 4.138 18.25Z"/><path fill="#fff" d="M18.34 13.059h3.927c1.896 0 2.957 1.195 2.957 2.628 0 .94-.552 1.583-1.434 1.865 1.388.33 2.06 1.255 2.06 2.524 0 1.806-1.284 3.135-3.404 3.135h-4.105V13.059Zm3.704 3.747c.671 0 1.12-.372 1.12-.955s-.374-.956-1.017-.956h-1.715v1.91h1.612Zm.313 4.569c.85 0 1.388-.568 1.388-1.404 0-.821-.552-1.388-1.508-1.388h-1.805v2.792h1.925ZM28.835 19.538V13.06h2.09v6.36c0 1.478.642 2.044 2.03 2.044 1.373 0 2.001-.566 2.001-2.045V13.06h2.09v6.48c0 2.567-1.776 3.806-4.091 3.806-2.343 0-4.12-1.239-4.12-3.807ZM48.123 23.21h-2.42l-1.671-2.567c-.195.029-.403.045-.597.045h-.716v2.523h-2.091V13.059h2.807c2.837 0 4.538 1.358 4.538 3.837 0 1.583-.701 2.583-1.956 3.15l2.106 3.165Zm-4.748-4.343c1.702 0 2.449-.538 2.449-1.971s-.777-2.001-2.45-2.001h-.655v3.972h.656ZM58.691 23.21h-2.418L54.6 20.644a4.1 4.1 0 0 1-.598.045h-.716v2.523h-2.09V13.059h2.806c2.836 0 4.54 1.358 4.54 3.837 0 1.583-.702 2.583-1.957 3.15l2.105 3.165Zm-4.748-4.343c1.703 0 2.45-.538 2.45-1.971s-.778-2.001-2.45-2.001h-.656v3.972h.656ZM61.796 13.059h2.09V23.21h-2.09V13.059ZM69.454 14.895h-2.896V13.06h7.882v1.836h-2.896v8.316h-2.09v-8.316ZM76.424 18.134c0-3 2.33-5.21 5.255-5.21 2.927 0 5.256 2.21 5.256 5.21 0 3.002-2.33 5.211-5.256 5.211-2.925 0-5.255-2.21-5.255-5.21Zm8.36 0c0-1.896-1.253-3.344-3.105-3.344-1.85 0-3.105 1.448-3.105 3.345 0 1.895 1.254 3.343 3.105 3.343 1.852 0 3.105-1.448 3.105-3.344ZM29.273 31.453c0-1.556 1.2-2.694 2.71-2.694.952 0 1.633.34 2.105 1.076l-.828.588c-.248-.402-.673-.69-1.277-.69-.952 0-1.595.737-1.595 1.72 0 .982.643 1.734 1.595 1.734.681 0 1.061-.325 1.354-.774l.844.58c-.456.713-1.184 1.16-2.198 1.16-1.51 0-2.71-1.145-2.71-2.7ZM36.163 31.453c0-1.556 1.208-2.702 2.725-2.702 1.517 0 2.724 1.145 2.724 2.701s-1.207 2.702-2.724 2.702c-1.517 0-2.725-1.146-2.725-2.702Zm4.334 0c0-.983-.65-1.734-1.61-1.734-.96 0-1.61.75-1.61 1.733 0 .983.65 1.735 1.61 1.735.96 0 1.61-.752 1.61-1.734ZM52.154 28.82h1.456c1.47 0 2.353.767 2.353 2.037 0 1.269-.89 2.028-2.353 2.028h-.372v1.2h-1.084V28.82Zm1.424 3.113c.883 0 1.27-.357 1.27-1.076 0-.729-.402-1.084-1.27-1.084h-.34v2.16h.34ZM59.801 28.774h.094l2.406 5.31h-1.137l-.248-.596H58.78l-.248.596h-1.045l2.314-5.31Zm.728 3.81-.38-.914-.313-.764-.313.764-.38.913h1.386ZM67.82 31.852V28.82h1.015v5.31h-.11l-3.203-3.082v3.036h-1.015v-5.31h.108l3.205 3.077ZM73.037 32.412 71.04 28.82h1.2l.929 1.696.427.76.409-.76.89-1.696h1.107l-1.873 3.515v1.75h-1.092v-1.673ZM45.133 31.316V34.088h-1.037V28.77h.086l2.577 2.857 2.57-2.857h.094v5.317h-1.046v-2.773l-.526.62-1.041 1.126h-.1l-1.577-1.745Z"/></svg>
