<svg xmlns="http://www.w3.org/2000/svg" fill="none" viewBox="0 0 153 33"><g clip-path="url(#a)"><path fill="#000" fill-rule="evenodd" d="M7.763 30.557c0 .612-.055 1.04-.165 1.286-.112.245-.271.368-.48.368H1.42c-.21 0-.4-.031-.572-.092a1.185 1.185 0 0 1-.443-.276 1.32 1.32 0 0 1-.295-.478 1.977 1.977 0 0 1-.11-.698V1.526c0-.258.036-.483.11-.68C.184.65.282.487.405.358.527.231.68.136.848.083c.185-.057.378-.085.572-.083h5.697a.51.51 0 0 1 .278.083.595.595 0 0 1 .212.275c.054.13.094.298.12.506.024.208.036.471.036.79 0 .625-.055 1.057-.165 1.296-.112.239-.271.358-.48.358H4.331v25.594h2.785c.1 0 .192.027.278.074.1.066.174.163.212.277.054.134.094.306.12.514.024.208.036.47.036.791Zm14.919-16.132c-.665-.835-1.3-1.471-1.909-1.913-.61-.44-1.245-.66-1.908-.66-.604 0-1.122.15-1.558.451a3.282 3.282 0 0 0-1.051 1.203 6.367 6.367 0 0 0-.59 1.681 9.254 9.254 0 0 0-.194 1.902c0 .684.055 1.354.165 2.003a6.32 6.32 0 0 0 .543 1.736c.253.51.588.916 1.007 1.221.416.308.946.46 1.585.46.32 0 .63-.046.931-.137.301-.094.61-.242.922-.45.35-.24.674-.514.968-.819.333-.337.695-.75 1.089-1.24v-5.438Zm4.61 10.952c0 .134-.031.247-.093.34a.68.68 0 0 1-.314.227 2.112 2.112 0 0 1-.599.13c-.31.026-.62.039-.93.037-.394 0-.714-.014-.96-.038a2.249 2.249 0 0 1-.6-.127.738.738 0 0 1-.33-.23.555.555 0 0 1-.101-.34v-1.82c-.85.908-1.738 1.611-2.666 2.113a6.388 6.388 0 0 1-3.09.754c-1.251 0-2.313-.242-3.18-.727a6.05 6.05 0 0 1-2.12-1.956c-.547-.82-.944-1.78-1.19-2.876a15.76 15.76 0 0 1-.369-3.462c0-1.46.157-2.769.47-3.933.314-1.163.772-2.156 1.374-2.976A6.088 6.088 0 0 1 14.845 8.6c.897-.443 1.93-.663 3.098-.663.922 0 1.758.188 2.507.561.75.375 1.494.922 2.232 1.644V1.268c0-.12.033-.232.102-.331A.762.762 0 0 1 23.15.69c.179-.067.416-.12.712-.157a9.521 9.521 0 0 1 1.123-.054c.456 0 .83.018 1.126.054.295.037.528.09.7.157.143.047.27.133.368.247a.538.538 0 0 1 .112.331V25.377Zm15.36-9.998c.038-1.298-.224-2.318-.784-3.06-.56-.74-1.422-1.11-2.59-1.11-.59 0-1.103.11-1.54.33a3.149 3.149 0 0 0-1.088.892c-.288.374-.51.814-.664 1.323a6.54 6.54 0 0 0-.268 1.625h6.934Zm4.5 1.325c0 .562-.126.98-.378 1.248-.253.27-.599.404-1.042.404H35.72c0 .698.083 1.333.25 1.902.164.57.429 1.053.791 1.452.363.398.831.7 1.403.909.572.209 1.256.312 2.056.312.81 0 1.523-.056 2.138-.174a14.31 14.31 0 0 0 2.71-.772c.296-.115.536-.174.72-.174a.54.54 0 0 1 .277.064c.074.043.135.12.184.23.05.11.083.267.102.468.018.203.026.456.026.764 0 .268-.005.499-.017.688-.013.19-.03.352-.055.487-.02.119-.057.233-.111.34a1.228 1.228 0 0 1-.194.265c-.08.086-.298.202-.655.35-.357.147-.81.29-1.364.432-.627.155-1.26.277-1.9.367-.71.105-1.475.156-2.285.156-1.463 0-2.745-.183-3.847-.55-1.1-.368-2.018-.925-2.756-1.672-.736-.748-1.289-1.691-1.65-2.83-.362-1.14-.545-2.475-.545-4.006 0-1.457.192-2.771.573-3.942.38-1.167.934-2.16 1.66-2.976a7.121 7.121 0 0 1 2.646-1.865c1.039-.429 2.209-.644 3.512-.644 1.377 0 2.554.204 3.533.608.977.403 1.78.965 2.405 1.68a6.777 6.777 0 0 1 1.383 2.545c.296.98.443 2.047.443 3.198v.736Zm14.808-2.279c-.665-.835-1.302-1.471-1.909-1.913-.608-.44-1.245-.66-1.908-.66-.604 0-1.122.15-1.557.451a3.277 3.277 0 0 0-1.052 1.203 6.396 6.396 0 0 0-.59 1.681 9.303 9.303 0 0 0-.194 1.902c0 .684.054 1.354.165 2.003.111.65.293 1.228.545 1.736.25.51.586.916 1.004 1.221.419.308.947.46 1.586.46.32 0 .63-.046.931-.137.328-.105.638-.257.923-.45.312-.21.636-.483.967-.819.332-.337.694-.75 1.089-1.24v-5.438Zm4.61 10.952c0 .134-.031.247-.093.34a.677.677 0 0 1-.314.227 2.146 2.146 0 0 1-.598.13c-.31.027-.62.04-.932.037-.393 0-.711-.014-.958-.038a2.268 2.268 0 0 1-.6-.127.737.737 0 0 1-.332-.23.56.56 0 0 1-.102-.34v-1.82c-.848.908-1.736 1.611-2.664 2.113a6.386 6.386 0 0 1-3.09.754c-1.253 0-2.313-.242-3.18-.727a6.05 6.05 0 0 1-2.12-1.956c-.547-.82-.944-1.78-1.19-2.876a15.76 15.76 0 0 1-.369-3.462c0-1.46.157-2.769.47-3.933.314-1.163.772-2.156 1.376-2.976A6.093 6.093 0 0 1 54.122 8.6c.898-.443 1.93-.663 3.099-.663.922 0 1.758.188 2.508.561.749.375 1.492.922 2.23 1.644V1.268c0-.12.034-.232.103-.331a.765.765 0 0 1 .367-.247c.23-.08.47-.132.712-.157a9.524 9.524 0 0 1 1.123-.054c.456 0 .83.018 1.126.054.295.037.528.09.7.157.144.047.271.133.37.247a.537.537 0 0 1 .11.331V25.377Zm24.783-4.63c0 .93-.174 1.75-.525 2.46a4.897 4.897 0 0 1-1.485 1.783 6.707 6.707 0 0 1-2.269 1.074c-.925.246-1.88.367-2.838.36-.59.001-1.18-.045-1.762-.139a10.591 10.591 0 0 1-1.503-.349 7.757 7.757 0 0 1-1.106-.432c-.296-.148-.51-.285-.646-.415-.134-.127-.239-.328-.313-.604-.073-.276-.111-.684-.111-1.222 0-.356.013-.64.038-.855.024-.215.061-.385.11-.516.05-.127.11-.212.185-.255a.535.535 0 0 1 .275-.064c.136 0 .335.075.601.228.263.155.592.322.987.506.445.204.903.375 1.373.514.523.16 1.115.24 1.78.24.417 0 .79-.044 1.116-.13.3-.075.587-.198.847-.366.241-.161.42-.363.545-.607.122-.245.184-.527.184-.845 0-.368-.114-.683-.341-.947a3.036 3.036 0 0 0-.905-.688 10.475 10.475 0 0 0-1.272-.553c-.49-.177-.976-.366-1.456-.568-.5-.21-.986-.45-1.457-.718-.47-.267-.899-.601-1.272-.993a4.492 4.492 0 0 1-.904-1.413c-.229-.55-.341-1.213-.341-1.985 0-.784.153-1.503.461-2.158a4.661 4.661 0 0 1 1.329-1.682c.577-.466 1.279-.827 2.11-1.084.83-.258 1.76-.385 2.794-.385.515 0 1.017.036 1.503.11.485.073.924.165 1.318.275.393.11.725.23.996.358.268.129.463.239.581.332.1.074.185.167.248.275.054.104.091.215.112.33.024.129.045.288.063.478.019.19.027.427.027.707 0 .332-.008.6-.027.81a2.07 2.07 0 0 1-.091.496c-.043.12-.102.204-.175.247a.51.51 0 0 1-.26.064c-.11 0-.282-.064-.514-.192a9.485 9.485 0 0 0-.877-.414c-.397-.163-.803-.3-1.217-.414a5.888 5.888 0 0 0-1.577-.193c-.417 0-.781.044-1.087.13a2.054 2.054 0 0 0-.757.367 1.567 1.567 0 0 0-.59 1.249c0 .38.118.698.35.956.233.257.542.483.923.679.38.197.813.38 1.3.553.485.171.976.357 1.474.56.497.2.99.438 1.477.707.484.268.918.6 1.299.991.38.394.688.862.922 1.406.233.546.35 1.191.35 1.939v.001Zm12.798 3.012c0 .54-.034.952-.102 1.24-.067.288-.157.49-.267.607-.14.135-.306.24-.488.311a4.655 4.655 0 0 1-.757.24c-.289.066-.601.119-.94.156a9.48 9.48 0 0 1-1.022.054c-.924 0-1.722-.115-2.399-.348a3.985 3.985 0 0 1-1.677-1.075c-.443-.484-.77-1.093-.979-1.829-.209-.735-.312-1.604-.312-2.609v-8.398h-1.973c-.234 0-.414-.143-.537-.43-.12-.289-.183-.77-.183-1.443 0-.354.014-.655.046-.9.02-.198.066-.393.138-.578a.68.68 0 0 1 .23-.304.575.575 0 0 1 .323-.093h1.956V4.704a.57.57 0 0 1 .1-.33.76.76 0 0 1 .37-.248c.232-.08.474-.13.719-.148.3-.03.67-.046 1.115-.046.456 0 .832.017 1.135.047.3.03.537.08.71.147a.819.819 0 0 1 .368.248c.073.095.112.21.112.33v3.657h3.576a.561.561 0 0 1 .322.094c.094.06.169.161.233.302.06.141.107.334.136.579.031.245.047.546.047.899 0 .675-.061 1.155-.183 1.444-.125.287-.302.43-.537.43h-3.594v7.7c0 .896.14 1.565.424 2.014.282.447.786.668 1.512.668.246 0 .467-.02.663-.063.196-.044.372-.091.526-.148.153-.053.282-.104.387-.146a.754.754 0 0 1 .286-.064c.075 0 .149.023.212.064.067.042.121.128.155.256.038.13.073.304.102.524.035.28.051.563.047.845Zm15.103-6.487c0-.698-.052-1.37-.157-2.012a5.954 5.954 0 0 0-.534-1.718 3.29 3.29 0 0 0-.996-1.203c-.412-.3-.926-.45-1.539-.45-.309 0-.612.045-.913.138a3.505 3.505 0 0 0-.923.45 6.446 6.446 0 0 0-.968.809 11.82 11.82 0 0 0-1.051 1.23v5.402c.665.82 1.289 1.455 1.872 1.902.584.448 1.195.671 1.834.671.604 0 1.116-.153 1.54-.46a3.578 3.578 0 0 0 1.042-1.203c.271-.496.47-1.056.6-1.681a9.242 9.242 0 0 0 .193-1.875Zm-2.249 9.151c-.555 0-1.07-.053-1.55-.157a5.278 5.278 0 0 1-1.373-.504 7.528 7.528 0 0 1-1.291-.883c-.465-.396-.9-.825-1.3-1.286v1.784c0 .268-.145.457-.434.569-.289.11-.808.165-1.557.165-.764 0-1.282-.055-1.56-.165-.275-.112-.413-.301-.413-.57V8.987c0-.245.138-.43.413-.55.278-.124.796-.186 1.56-.186.749 0 1.261.062 1.539.184.277.123.415.307.415.55v1.93c.479-.489.95-.92 1.41-1.295a8.13 8.13 0 0 1 1.411-.926c.962-.5 2.032-.76 3.116-.753 1.206-.001 2.231.235 3.08.706a5.799 5.799 0 0 1 2.075 1.938c.534.821.924 1.777 1.171 2.867s.369 2.254.369 3.49c0 1.458-.157 2.773-.47 3.942-.314 1.17-.773 2.165-1.374 2.986a6.167 6.167 0 0 1-2.222 1.893c-.88.44-1.885.661-3.015.661Zm26.074-1.029a.532.532 0 0 1-.102.322c-.067.091-.189.165-.369.219a3.75 3.75 0 0 1-.727.129c-.399.034-.799.049-1.199.045-.504 0-.912-.012-1.226-.036a4.29 4.29 0 0 1-.775-.12 1.155 1.155 0 0 1-.47-.227c-.12-.111-.22-.242-.295-.387l-5.476-8.636v8.674a.505.505 0 0 1-.111.32.807.807 0 0 1-.38.23 3.17 3.17 0 0 1-.709.137c-.373.033-.749.049-1.124.045-.376.004-.751-.011-1.125-.045a3.298 3.298 0 0 1-.711-.137.81.81 0 0 1-.376-.23.496.496 0 0 1-.111-.322V1.215a.534.534 0 0 1 .11-.333c.1-.116.23-.202.375-.248.18-.068.417-.119.712-.156.374-.041.75-.06 1.126-.055.453 0 .829.019 1.124.055.296.037.532.09.709.156.18.067.306.15.38.248a.543.543 0 0 1 .11.331v14.388l4.869-6.523c.097-.148.208-.276.33-.386.143-.12.31-.209.49-.258a4.09 4.09 0 0 1 .756-.137c.384-.034.769-.05 1.154-.047.454 0 .837.016 1.15.047.316.03.565.076.757.137.191.062.322.138.397.23a.53.53 0 0 1 .109.34c0 .184-.046.38-.137.588-.094.208-.231.43-.415.66l-4.814 5.44 5.57 8.581c.148.245.255.457.322.634a1.4 1.4 0 0 1 .102.487ZM153 30.667c0 .269-.042.502-.121.698a1.43 1.43 0 0 1-.303.48 1.185 1.185 0 0 1-.443.274c-.173.06-.362.092-.572.092h-5.717c-.208 0-.369-.123-.478-.367-.111-.245-.166-.675-.166-1.287 0-.32.013-.582.045-.79.023-.176.066-.35.129-.516a.564.564 0 0 1 .203-.275.5.5 0 0 1 .268-.072h2.804V3.308h-2.805c-.208 0-.369-.12-.478-.36-.111-.237-.166-.67-.166-1.294a5.4 5.4 0 0 1 .045-.79c.022-.173.065-.343.129-.506a.625.625 0 0 1 .203-.275.454.454 0 0 1 .268-.083h5.718c.206 0 .397.027.571.083.168.053.32.148.442.275.122.13.224.292.303.488.079.197.121.422.121.68v29.141Z" clip-rule="evenodd"/></g><defs><clipPath id="a"><path fill="currentColor" d="M0 0h153v32.211H0z"/></clipPath></defs></svg>
