<svg xmlns="http://www.w3.org/2000/svg" fill="none" viewBox="0 0 5319 766"><path fill="#000" d="M0 499q0-73 33-133.5t91-96T252 234q55 0 105.5 25.5t82.5 74T472 449l-38 51q0-49-22-91t-61-66.5-89-24.5q-49 0-87.5 24T114 407.5 92 499q0 49 22 91t61 67 87 25q49 0 88.5-25t61.5-66.5 22-90.5h90q0 74-33.5 135T397 731t-135 35-135-35.5-93.5-97T0 499M524 0v500h-90v-9l-2-126 2-14V0Zm113 500q0-74 33.5-134.5t93.5-96T899 234t135 35.5 93.5 96T1161 500t-33.5 135-93 96T899 766t-135.5-35-93-96T637 500m432 0q0-49-21.5-91T987 342.5 899 318t-87.5 24.5T751 409t-22 91q0 50 21.5 92t60.5 66 88 24 88-24 60.5-66 21.5-92m184 0q0-75 33-135.5t92.5-95.5 136.5-35q94 0 160.5 52t87.5 136h-97q-17-47-57-75.5t-94-28.5q-50 0-89 24t-60 65.5-21 92.5 21 92.5 60 65.5 89 24q54 0 94-28.5t57-75.5h97q-21 84-87.5 136T1515 766q-77 0-136.5-35t-92.5-95.5-33-135.5m622 25V250h90v275q0 74 32.5 115.5T2094 682t96.5-42 32.5-115h90q0 112-59 176.5T2094 766t-160-64.5-59-176.5m348-275h90v275h-90Zm217 214h90v286h-90Zm202-146q-36 0-61 16.5t-38 49-13 80.5h-90q0-112 54-171t145-59q65 0 111 31.5t70 84 24 114.5v286h-90V464q0-72-28.5-109t-83.5-37m314 0q-55 0-83.5 37T2844 464h-64q0-114 48.5-172t137.5-58q90 0 141 58.5t51 171.5v286h-90V464q0-72-28.5-109t-83.5-37m310 181q0-74 33-134.5t93-95.5 137-35q75 0 134 35.5t92 96.5 33 134v14h-476v-74h432l-49 43q0-43-20-81.5t-58-62-88-23.5q-51 0-91 24.5t-62 66.5-22 92q0 51 22.5 92.5t62.5 66 90 24.5q48 0 89-26t56-62h101q-13 47-48 86.5t-86 62.5-112 23q-77 0-137-35t-93-95.5-33-136.5m854-181q-44 0-74 19t-45 54.5-15 83.5h-90q0-74 27.5-128.5t78-83.5 118.5-29q103 0 163.5 64.5T4344 475v275h-90V475q0-73-34-115t-100-42m-224 157h90v275h-90Zm618-225V0h92v250h131v84h-131v416h-92V334h-87v-84Zm283 250q0-55 19-103.5t53-85 79-56.5q23-10 48.5-15.5t52.5-5.5l14 84q-22 0-41.5 4.5T4985 336q-44 22-70 65.5t-26 98.5q0 51 21.5 92.5T4971 658t88 24q50 0 89.5-24.5t61.5-66 21-90.5l-3-166 3-10v-75h88v500h-88V646l10 14q-27 47-76.5 76.5T5049 766q-70 0-128-35.5t-91-96.5-33-134m316-173q-13-5-26.5-7t-27.5-2l-10-84q21 0 42 4t40 11q61 22 99.5 74t38.5 126v51h-38v-1q0-59-32.5-106.5T5113 327"/></svg>