<svg xmlns="http://www.w3.org/2000/svg" fill="none" viewBox="0 0 43 45"><path fill="#fff" d="M41.595 14.589c-1.002-.662-1.533.235-2.24.732-.8.575-1.672 1.106-2.587 1.437-1.681.61-3.407 1.098-5.132 1.551-.845.227-1.838.593-2.587.349-1.525-.488-3.059-1.16-4.348-2.1-2.823-2.056-5.681-3.825-9.297-4.139-1.986-.174-2.875-1.359-2.997-3.363-.052-.871-.009-1.743-.009-2.623h-.017c0-1.002.008-2.012 0-3.014a3.368 3.368 0 0 0-.087-.654C11.875.84 10.168.09 8.652 1.31 7.519 2.216 6.29 2.54 4.905 2.643c-1.22.105-2.43.262-3.642.497-.357.061-.67.41-1.01.627.33.218.644.584 1.001.654 1.717.305 3.45.557 5.185.767.88.113 1.246.6 1.202 1.402-.078 1.743.07 3.564-.383 5.21-1.037 3.825-.41 7.537.235 11.284.07.418.287.819.47 1.21.558 1.23 1.194 2.432 1.673 3.695.48 1.237 1.15 2.204 2.388 2.797.819.392 1.646.88 2.265 1.525 2.117 2.23 4.4 4.103 7.554 4.661.314.052.75.767.723 1.15-.043.871-.34 1.725-.575 2.57-.009.027-.558-.06-.836-.156-1.116-.392-2.205-.846-3.329-1.203-3.337-1.054-4.243-.714-4.286 3.215-.01.924.33 1.36 1.29 1.386 2.883.078 5.758.183 8.642.313 1.168.053 1.708-.357 1.656-1.577-.061-1.437.008-2.884-.061-4.33-.053-1.124.34-1.612 1.516-1.481.584.06 1.307.043 1.76-.253 1.934-1.237 3.894-2.483 5.663-3.947 1.473-1.21 3.137-2.448 3.023-4.748-.095-2.022 1.011-3.546 2.074-5.106.305-.453.593-.993.671-1.525.21-1.403.366-2.736 1.716-3.642.724-.47.697-2.657.105-3.05ZM9.906 3.61a.653.653 0 0 1-.653-.653c0-.366.287-.653.653-.653.366 0 .654.287.654.653a.653.653 0 0 1-.654.653Z"/></svg>
