<svg xmlns="http://www.w3.org/2000/svg" viewBox="0 0 400 64.958">
  <defs><style>.a{fill:#fff}.b{fill:#ed1c24}</style></defs>
  <path class="a" d="M85.022 62.254h-3.818v-.432c.138 0 .316-.018.534-.043a1.332 1.332 0 00.447-.1.783.783 0 00.276-.265.712.712 0 00.089-.374v-6.286h-.092l-2.946 7.36h-.305L76.401 54.6h-.079v5.156a5.174 5.174 0 00.094 1.139 1.056 1.056 0 00.289.56 1.4 1.4 0 00.554.243 3.368 3.368 0 00.548.122v.432h-3.488v-.432a4.548 4.548 0 00.575-.091 1.127 1.127 0 00.466-.2.9.9 0 00.293-.524 6.242 6.242 0 00.079-1.181v-4.42a1.837 1.837 0 00-.092-.627.985.985 0 00-.262-.395 1.2 1.2 0 00-.463-.244 2.3 2.3 0 00-.542-.091v-.432h2.947l2.474 6.485 2.112-5.425a5.112 5.112 0 00.2-.624 3.245 3.245 0 00.089-.435h2.816v.432a3.036 3.036 0 00-.435.055 2.84 2.84 0 00-.386.091.446.446 0 00-.281.244.941.941 0 00-.073.371v6.228a.808.808 0 00.073.359.624.624 0 00.281.256 1.425 1.425 0 00.389.112 3.175 3.175 0 00.445.058zM91.949 62.145q-.287.1-.5.167a1.719 1.719 0 01-.491.064 1.2 1.2 0 01-.758-.222 1.029 1.029 0 01-.362-.649h-.036a2.95 2.95 0 01-.85.67 2.364 2.364 0 01-1.092.232 1.55 1.55 0 01-1.112-.414 1.428 1.428 0 01-.434-1.084 1.874 1.874 0 01.1-.621 1.514 1.514 0 01.293-.493 1.465 1.465 0 01.4-.326 3.622 3.622 0 01.469-.228q.273-.1 1.111-.384a8.52 8.52 0 001.129-.438v-.6a2.6 2.6 0 00-.033-.3 1.329 1.329 0 00-.143-.427 1.23 1.23 0 00-.345-.392 1.031 1.031 0 00-.63-.168 1.409 1.409 0 00-.52.095.95.95 0 00-.338.2 1.7 1.7 0 00.058.359 1.835 1.835 0 01.058.438.524.524 0 01-.192.39.756.756 0 01-.532.177.5.5 0 01-.449-.217.866.866 0 01-.142-.484.856.856 0 01.2-.535 1.98 1.98 0 01.514-.457 2.767 2.767 0 01.664-.289 2.607 2.607 0 01.76-.119 5.044 5.044 0 01.892.07 1.631 1.631 0 01.691.3 1.394 1.394 0 01.472.611 2.606 2.606 0 01.161 1q0 .87-.017 1.543t-.019 1.47a.757.757 0 00.082.378.661.661 0 00.253.237.613.613 0 00.289.061q.2.006.405.006zm-2.125-3.215q-.516.153-.907.3a3.638 3.638 0 00-.724.365 1.65 1.65 0 00-.481.491 1.251 1.251 0 00-.177.675.952.952 0 00.265.744.967.967 0 00.673.238 1.383 1.383 0 00.761-.21 2.194 2.194 0 00.553-.5zM97.927 61.633a1.785 1.785 0 01.383.524 1.66 1.66 0 01.14.724 1.775 1.775 0 01-.76 1.474 3.206 3.206 0 01-.975.444 5.255 5.255 0 01-1.4.159 4.1 4.1 0 01-2.039-.4 1.275 1.275 0 01-.676-1.166 1.151 1.151 0 01.487-.98 2.182 2.182 0 011.241-.39v-.085a4.156 4.156 0 01-.377-.137 1.486 1.486 0 01-.335-.192 1.049 1.049 0 01-.255-.3.868.868 0 01-.1-.43.9.9 0 01.228-.593 1.813 1.813 0 01.692-.466v-.091a2.35 2.35 0 01-.907-.7 1.607 1.607 0 01-.324-1 1.766 1.766 0 01.637-1.4 2.408 2.408 0 011.629-.548 2.773 2.773 0 01.544.055c.181.036.364.083.552.14h2.093v.584h-1.411v.041a1.745 1.745 0 01.335.578 1.876 1.876 0 01.11.621 1.7 1.7 0 01-.643 1.34 2.232 2.232 0 01-1.494.547h-.737a.966.966 0 00-.292.177.428.428 0 00-.153.347.447.447 0 00.128.344.677.677 0 00.311.161 1.9 1.9 0 00.411.061c.156.009.317.014.484.019s.423.016.734.036.53.033.66.037a1.593 1.593 0 01.563.133 1.826 1.826 0 01.516.332zm-.476 1.474a.933.933 0 00-.158-.561.794.794 0 00-.48-.3c-.115-.017-.348-.035-.7-.056s-.763-.03-1.23-.03a1.7 1.7 0 00-.935.429 1.107 1.107 0 00-.277.777.931.931 0 00.092.407.957.957 0 00.316.36 1.769 1.769 0 00.573.259 3.331 3.331 0 00.876.1 2.518 2.518 0 001.41-.344 1.171 1.171 0 00.513-1.041zm-1.169-5.035a1.97 1.97 0 00-.289-1.135.925.925 0 00-.812-.424.956.956 0 00-.49.119.921.921 0 00-.332.338 1.411 1.411 0 00-.173.484 3.182 3.182 0 00-.052.582 1.9 1.9 0 00.295 1.1.894.894 0 00.765.426.914.914 0 00.806-.423 1.878 1.878 0 00.282-1.067zM105.056 62.145a9.13 9.13 0 01-.5.167 1.716 1.716 0 01-.49.064 1.193 1.193 0 01-.758-.222 1.02 1.02 0 01-.362-.649h-.037a2.933 2.933 0 01-.849.67 2.369 2.369 0 01-1.093.232 1.549 1.549 0 01-1.111-.414 1.429 1.429 0 01-.435-1.084 1.848 1.848 0 01.1-.621 1.48 1.48 0 01.293-.493 1.445 1.445 0 01.4-.326 3.622 3.622 0 01.469-.228q.274-.1 1.111-.384a8.4 8.4 0 001.129-.438v-.6a2.6 2.6 0 00-.033-.3 1.282 1.282 0 00-.143-.427 1.238 1.238 0 00-.344-.392 1.036 1.036 0 00-.63-.168 1.411 1.411 0 00-.521.095.959.959 0 00-.338.2 1.7 1.7 0 00.058.359 1.839 1.839 0 01.059.438.525.525 0 01-.193.39.755.755 0 01-.532.177.5.5 0 01-.448-.217.852.852 0 01.055-1.019 1.98 1.98 0 01.514-.457 2.785 2.785 0 01.664-.289 2.613 2.613 0 01.761-.119 5.044 5.044 0 01.892.07 1.637 1.637 0 01.691.3 1.408 1.408 0 01.472.611 2.626 2.626 0 01.161 1q0 .87-.018 1.543a51.36 51.36 0 00-.018 1.47.746.746 0 00.082.378.647.647 0 00.253.237.61.61 0 00.289.061q.2.006.405.006zm-2.125-3.215q-.517.153-.907.3a3.674 3.674 0 00-.725.365 1.646 1.646 0 00-.48.491 1.242 1.242 0 00-.177.675.955.955 0 00.264.744.968.968 0 00.673.238 1.383 1.383 0 00.761-.21 2.2 2.2 0 00.554-.5zM110.644 62.254h-4.859v-.322l3.4-5.187h-.842q-.531 0-.829.018a1.7 1.7 0 00-.55.122.713.713 0 00-.32.384 3.847 3.847 0 00-.259.827h-.371v-1.845h4.59v.25l-3.451 5.26c.146 0 .306.008.481.01h.566c.162 0 .331 0 .508-.005s.4-.015.679-.031a.482.482 0 00.368-.164 1.117 1.117 0 00.191-.347q.068-.177.162-.488c.063-.207.119-.407.168-.6h.365zM114.571 62.254h-2.9v-.4l.289-.025a1.109 1.109 0 00.259-.048.442.442 0 00.253-.192.682.682 0 00.082-.356v-3.7a.728.728 0 00-.088-.356.8.8 0 00-.247-.27 1.126 1.126 0 00-.334-.125 2.638 2.638 0 00-.4-.064v-.4l2.119-.134.085.085v4.895a.7.7 0 00.081.353.486.486 0 00.257.207 2.1 2.1 0 00.26.088 1.6 1.6 0 00.285.046zm-.761-8.443a.881.881 0 01-.229.6.72.72 0 01-.563.259.71.71 0 01-.539-.247.8.8 0 01-.228-.563.833.833 0 01.228-.584.706.706 0 01.539-.25.747.747 0 01.569.235.765.765 0 01.223.55zM122.18 62.254h-2.935v-.4l.308-.025a1.106 1.106 0 00.276-.049.43.43 0 00.253-.191.684.684 0 00.082-.357v-3.087a1.457 1.457 0 00-.3-.986.94.94 0 00-.736-.347 1.675 1.675 0 00-.592.1 2.134 2.134 0 00-.476.247 1.369 1.369 0 00-.32.3 2.716 2.716 0 00-.174.259v3.452a.616.616 0 00.086.341.543.543 0 00.255.207 1.2 1.2 0 00.277.091 2.339 2.339 0 00.307.043v.4h-2.94v-.4l.289-.025a1.119 1.119 0 00.259-.048.445.445 0 00.253-.192.682.682 0 00.082-.356v-3.7a.812.812 0 00-.089-.38.764.764 0 00-.246-.283.839.839 0 00-.275-.106 2.588 2.588 0 00-.34-.046v-.4l2-.134.085.085v.846h.025q.146-.145.365-.35a3.142 3.142 0 01.413-.332 2.214 2.214 0 01.536-.243 2.337 2.337 0 01.7-.1 1.518 1.518 0 011.281.539 2.28 2.28 0 01.417 1.434v3.123a.7.7 0 00.073.344.487.487 0 00.25.2 1.659 1.659 0 00.252.085 1.852 1.852 0 00.3.037zM130.866 53.561a.729.729 0 01-.146.462.526.526 0 01-.444.189.671.671 0 01-.332-.079 1.052 1.052 0 01-.265-.213 2.069 2.069 0 01-.226-.3c-.068-.114-.128-.2-.175-.275q-.41.02-.631.569a5.037 5.037 0 00-.222 1.752v.614h1.546v.584h-1.546v4.311a.653.653 0 00.082.347.5.5 0 00.259.2 1.886 1.886 0 00.39.088c.162.022.3.038.419.046v.4h-3.166v-.4l.289-.025a1.056 1.056 0 00.259-.049.43.43 0 00.253-.191.684.684 0 00.082-.357V56.86h-1.186v-.584h1.188v-.383a3.335 3.335 0 01.71-2.215 2.221 2.221 0 011.775-.848 1.313 1.313 0 01.815.213.638.638 0 01.272.518z"/>
  <path class="a" d="M137.123 62.145l-1.96.134-.091-.086v-.76h-.037c-.1.1-.207.21-.328.325a2.291 2.291 0 01-.419.314 2.663 2.663 0 01-.529.249 2.379 2.379 0 01-.724.086 1.464 1.464 0 01-1.212-.52 2.379 2.379 0 01-.417-1.512v-2.87a.75.75 0 00-.082-.368.725.725 0 00-.517-.365 2.694 2.694 0 00-.35-.045v-.4l2-.146.091.085v4.17a1.433 1.433 0 00.293.98.9.9 0 00.7.329 1.618 1.618 0 00.6-.1 1.687 1.687 0 00.437-.244 1.983 1.983 0 00.29-.27 1.577 1.577 0 00.192-.265v-3.4a.729.729 0 00-.085-.356.827.827 0 00-.237-.264.684.684 0 00-.327-.088c-.144-.01-.305-.019-.484-.027v-.4l2.186-.146.091.085v4.761a.7.7 0 00.085.353.752.752 0 00.238.249.672.672 0 00.261.089 3.273 3.273 0 00.335.027zm-3.968-8.195a.743.743 0 01-.21.53.7.7 0 01-1.017 0 .77.77 0 010-1.059.7.7 0 011.017 0 .74.74 0 01.21.529zm2.617 0a.738.738 0 01-.21.53.7.7 0 01-1.017 0 .773.773 0 010-1.059.7.7 0 011.017 0 .736.736 0 01.21.529zM142.694 57.025a1 1 0 01-.153.551.516.516 0 01-.469.24.713.713 0 01-.52-.176.538.538 0 01-.18-.39 1.229 1.229 0 01.022-.244l.039-.218a1.351 1.351 0 00-.67.231 1.976 1.976 0 00-.651.657v3.495a.644.644 0 00.083.347.5.5 0 00.257.2 1.654 1.654 0 00.394.091c.16.021.3.035.417.043v.4h-3.169v-.4l.289-.025a1.119 1.119 0 00.259-.048.445.445 0 00.253-.192.692.692 0 00.082-.356v-3.7a.843.843 0 00-.089-.371.747.747 0 00-.246-.292.839.839 0 00-.275-.106 2.588 2.588 0 00-.34-.046v-.4l2-.134.085.085v.846h.031a2.722 2.722 0 01.84-.749 1.779 1.779 0 01.845-.256.829.829 0 01.624.25.919.919 0 01.242.667zM154.108 59.709l-.164 2.545h-7.172v-.432a8.31 8.31 0 00.487-.051 1.646 1.646 0 00.4-.083.567.567 0 00.271-.237.808.808 0 00.075-.371v-6.21a.883.883 0 00-.066-.356.519.519 0 00-.28-.253 2.083 2.083 0 00-.442-.14 3.225 3.225 0 00-.441-.073v-.432h6.684V55.7h-.456a2.828 2.828 0 00-.527-.984 1.3 1.3 0 00-.77-.569c-.126-.016-.276-.028-.451-.037s-.373-.011-.6-.011h-1.362v3.431h.975a1.959 1.959 0 00.684-.088.925.925 0 00.381-.3 1.59 1.59 0 00.229-.471 3.1 3.1 0 00.124-.557h.457V59.5h-.45a2.71 2.71 0 00-.131-.617 1.543 1.543 0 00-.222-.472.866.866 0 00-.43-.31 2.231 2.231 0 00-.635-.074h-.982v2.59a2.726 2.726 0 00.055.613.568.568 0 00.214.341.906.906 0 00.431.149 6.983 6.983 0 00.78.033h.53a5.374 5.374 0 00.554-.024 3.3 3.3 0 00.477-.088.74.74 0 00.351-.174 3.912 3.912 0 00.587-.886 5.8 5.8 0 00.392-.874zM157.98 62.254h-2.9v-.4l.289-.025a1.109 1.109 0 00.259-.048.442.442 0 00.253-.192.682.682 0 00.082-.356v-3.7a.728.728 0 00-.088-.356.776.776 0 00-.247-.27 1.126 1.126 0 00-.334-.125 2.638 2.638 0 00-.4-.064v-.4l2.119-.134.085.085v4.895a.7.7 0 00.081.353.493.493 0 00.257.207 2.111 2.111 0 00.261.088 1.591 1.591 0 00.284.046zm-.761-8.443a.881.881 0 01-.229.6.719.719 0 01-.563.259.71.71 0 01-.539-.247.805.805 0 01-.228-.563.838.838 0 01.228-.584.706.706 0 01.539-.25.747.747 0 01.569.235.765.765 0 01.223.55zM162.922 59.314a1.518 1.518 0 01.384.505 1.651 1.651 0 01.134.7 1.707 1.707 0 01-.624 1.363 2.665 2.665 0 01-2.581.341 2.669 2.669 0 01-.63-.347l-.122.395h-.457l-.061-2.087h.42a2.333 2.333 0 00.207.555 2.628 2.628 0 00.384.574 2.084 2.084 0 00.569.453 1.518 1.518 0 00.746.183 1.364 1.364 0 00.9-.266.942.942 0 00.316-.763.9.9 0 00-.1-.441.972.972 0 00-.294-.326 2.365 2.365 0 00-.494-.253 9.588 9.588 0 00-.651-.222 6.065 6.065 0 01-.636-.234 2.547 2.547 0 01-.6-.35 1.7 1.7 0 01-.439-.524 1.489 1.489 0 01-.171-.73 1.644 1.644 0 01.548-1.248 2.061 2.061 0 011.468-.512 3.031 3.031 0 01.721.091 2.491 2.491 0 01.6.22l.141-.317h.438l.091 1.93h-.42a1.937 1.937 0 00-.551-1.055 1.433 1.433 0 00-1.032-.406 1.146 1.146 0 00-.785.251.783.783 0 00-.286.607.976.976 0 00.095.457.834.834 0 00.283.31 2.278 2.278 0 00.459.228c.184.072.413.152.685.241a5.776 5.776 0 01.758.3 2.446 2.446 0 01.587.377zM166.757 62.042a1.8 1.8 0 01-.2.827 2.991 2.991 0 01-.454.67 4.133 4.133 0 01-.554.518 3.76 3.76 0 01-.536.353l-.276-.41a5.714 5.714 0 00.523-.365 2.274 2.274 0 00.377-.365 2.353 2.353 0 00.311-.462 1.674 1.674 0 00.165-.567h-.311a.9.9 0 01-.637-.213.746.746 0 01-.228-.572.76.76 0 01.207-.5.709.709 0 01.566-.24.915.915 0 01.785.35 1.59 1.59 0 01.262.976zM179.967 62.254h-2.423a26.311 26.311 0 00-1.55-2.154q-.857-1.068-1.793-2.073h-.159v3.008a.813.813 0 00.077.359.563.563 0 00.277.256 2.319 2.319 0 00.362.1 2.367 2.367 0 00.442.067v.432h-3.586v-.432l.408-.036a1.29 1.29 0 00.377-.074.509.509 0 00.264-.234.786.786 0 00.082-.374V54.87a.869.869 0 00-.069-.36.54.54 0 00-.277-.249 2.272 2.272 0 00-.39-.14 2.082 2.082 0 00-.4-.073v-.432h3.585v.432a2.833 2.833 0 00-.427.055 2.869 2.869 0 00-.377.091.444.444 0 00-.28.244.924.924 0 00-.074.371v2.983h.122q.549-.464 1.078-.965t.961-1a9.449 9.449 0 00.7-.887 1.1 1.1 0 00.222-.587.171.171 0 00-.112-.149 1.284 1.284 0 00-.259-.1 2.231 2.231 0 00-.3-.045l-.218-.015v-.432h3.238v.432l-.079.006-.14.012a1.278 1.278 0 00-.171.024c-.056.013-.13.027-.218.043a2.273 2.273 0 00-.442.155 1.209 1.209 0 00-.374.265q-.627.713-1.307 1.474t-1.349 1.389q.925 1.047 1.532 1.8t1.289 1.613a2.953 2.953 0 00.522.526 3.293 3.293 0 00.448.3 1.434 1.434 0 00.394.121 2.866 2.866 0 00.394.049zM186.006 62.145a9.13 9.13 0 01-.5.167 1.707 1.707 0 01-.49.064 1.2 1.2 0 01-.758-.222 1.029 1.029 0 01-.362-.649h-.036a2.95 2.95 0 01-.85.67 2.369 2.369 0 01-1.093.232 1.549 1.549 0 01-1.111-.414 1.429 1.429 0 01-.435-1.084 1.874 1.874 0 01.1-.621 1.5 1.5 0 01.293-.493 1.46 1.46 0 01.4-.326 3.686 3.686 0 01.469-.228q.275-.1 1.112-.384a8.431 8.431 0 001.128-.438v-.6a2.386 2.386 0 00-.033-.3 1.3 1.3 0 00-.142-.427 1.242 1.242 0 00-.345-.392 1.033 1.033 0 00-.63-.168 1.409 1.409 0 00-.52.095.941.941 0 00-.338.2 1.686 1.686 0 00.057.359 1.839 1.839 0 01.059.438.525.525 0 01-.193.39.753.753 0 01-.532.177.5.5 0 01-.448-.217.851.851 0 01.056-1.019 1.959 1.959 0 01.513-.457 2.8 2.8 0 01.664-.289 2.613 2.613 0 01.761-.119 5.044 5.044 0 01.892.07 1.631 1.631 0 01.691.3 1.408 1.408 0 01.472.611 2.626 2.626 0 01.161 1q0 .87-.018 1.543t-.018 1.47a.746.746 0 00.082.378.661.661 0 00.253.237.61.61 0 00.289.061c.132 0 .266.006.405.006zm-2.125-3.215q-.518.153-.907.3a3.674 3.674 0 00-.725.365 1.646 1.646 0 00-.48.491 1.251 1.251 0 00-.177.675.952.952 0 00.265.744.965.965 0 00.673.238 1.377 1.377 0 00.76-.21 2.181 2.181 0 00.554-.5zM191.436 57.025a1 1 0 01-.153.551.514.514 0 01-.468.24.714.714 0 01-.521-.176.537.537 0 01-.179-.39 1.233 1.233 0 01.021-.244c.014-.072.027-.146.039-.218a1.354 1.354 0 00-.67.231 1.976 1.976 0 00-.651.657v3.495a.644.644 0 00.083.347.494.494 0 00.258.2 1.633 1.633 0 00.393.091c.16.021.3.035.417.043v.4h-3.166v-.4l.289-.025a1.119 1.119 0 00.259-.048.445.445 0 00.253-.192.682.682 0 00.082-.356v-3.7a.829.829 0 00-.089-.371.747.747 0 00-.246-.292.842.842 0 00-.274-.106 2.627 2.627 0 00-.341-.046v-.4l2-.134.085.085v.846h.031a2.722 2.722 0 01.84-.749 1.782 1.782 0 01.846-.256.832.832 0 01.624.25.922.922 0 01.238.667zM195.894 61.993q-.4.163-.748.277a2.884 2.884 0 01-.865.112 1.3 1.3 0 01-1.062-.38 1.67 1.67 0 01-.308-1.075V56.86h-1.087v-.584h1.109v-1.869h1.107v1.869h1.724v.584h-1.711v3.355a6.086 6.086 0 00.027.63 1.168 1.168 0 00.131.442.628.628 0 00.292.267 1.25 1.25 0 00.524.092c.1 0 .251-.01.447-.028a1.91 1.91 0 00.417-.07zM202.582 59.192a3.966 3.966 0 01-.2 1.245 2.975 2.975 0 01-.572 1.038 2.667 2.667 0 01-.976.725 3.134 3.134 0 01-1.243.237 2.805 2.805 0 01-1.091-.216 2.748 2.748 0 01-.92-.63 3.024 3.024 0 01-.631-1 3.513 3.513 0 01-.235-1.318 3.278 3.278 0 01.82-2.3 3 3 0 014.23-.045 3.118 3.118 0 01.818 2.264zm-1.259.012a5.558 5.558 0 00-.092-.965 3.07 3.07 0 00-.275-.861 1.673 1.673 0 00-.512-.606 1.292 1.292 0 00-.775-.228 1.371 1.371 0 00-.8.231 1.732 1.732 0 00-.54.633 2.841 2.841 0 00-.274.846 5.57 5.57 0 00-.079.92 5.69 5.69 0 00.095 1.08 3.093 3.093 0 00.3.886 1.714 1.714 0 00.522.612 1.313 1.313 0 00.777.222 1.357 1.357 0 001.208-.736 3.929 3.929 0 00.445-2.038zM208.828 61.633a1.785 1.785 0 01.383.524 1.66 1.66 0 01.141.724 1.779 1.779 0 01-.758 1.474 3.2 3.2 0 01-.975.444 5.245 5.245 0 01-1.4.159 4.1 4.1 0 01-2.039-.4 1.276 1.276 0 01-.676-1.166 1.15 1.15 0 01.488-.98 2.182 2.182 0 011.241-.39v-.085a4.156 4.156 0 01-.377-.137 1.464 1.464 0 01-.335-.192 1.037 1.037 0 01-.256-.3.879.879 0 01-.1-.43.9.9 0 01.229-.593 1.809 1.809 0 01.691-.466v-.091a2.365 2.365 0 01-.907-.7 1.606 1.606 0 01-.323-1 1.768 1.768 0 01.636-1.4 2.408 2.408 0 011.629-.548 2.766 2.766 0 01.544.055q.272.054.552.14h2.094v.584h-1.416v.041a1.78 1.78 0 01.335.578 1.9 1.9 0 01.109.621 1.7 1.7 0 01-.643 1.34 2.228 2.228 0 01-1.494.547h-.737a.978.978 0 00-.292.177.428.428 0 00-.152.347.447.447 0 00.128.344.674.674 0 00.31.161 1.9 1.9 0 00.411.061c.157.009.318.014.485.019s.423.016.733.036.53.033.66.037a1.6 1.6 0 01.564.133 1.836 1.836 0 01.517.332zm-.475 1.474a.94.94 0 00-.158-.561.8.8 0 00-.481-.3c-.114-.017-.348-.035-.7-.056s-.763-.03-1.23-.03a1.691 1.691 0 00-.934.429 1.1 1.1 0 00-.277.777.945.945 0 00.091.407.96.96 0 00.317.36 1.763 1.763 0 00.572.259 3.331 3.331 0 00.876.1 2.516 2.516 0 001.41-.344 1.171 1.171 0 00.514-1.041zm-1.169-5.035a1.978 1.978 0 00-.289-1.135.928.928 0 00-.813-.424.961.961 0 00-.49.119.921.921 0 00-.332.338 1.411 1.411 0 00-.173.484 3.182 3.182 0 00-.052.582 1.9 1.9 0 00.295 1.1.9.9 0 00.765.426.916.916 0 00.807-.423 1.886 1.886 0 00.282-1.067zM214.866 57.025a1 1 0 01-.152.551.516.516 0 01-.469.24.713.713 0 01-.52-.176.538.538 0 01-.18-.39 1.229 1.229 0 01.022-.244l.039-.218a1.351 1.351 0 00-.67.231 1.988 1.988 0 00-.652.657v3.495a.653.653 0 00.083.347.5.5 0 00.258.2 1.654 1.654 0 00.394.091c.16.021.3.035.417.043v.4h-3.166v-.4l.289-.025a1.14 1.14 0 00.259-.048.445.445 0 00.253-.192.692.692 0 00.082-.356v-3.7a.843.843 0 00-.089-.371.747.747 0 00-.246-.292.848.848 0 00-.275-.106 2.6 2.6 0 00-.341-.046v-.4l2-.134.085.085v.846h.032a2.722 2.722 0 01.84-.749 1.779 1.779 0 01.845-.256.829.829 0 01.624.25.922.922 0 01.238.667zM221.301 62.145a9.13 9.13 0 01-.5.167 1.712 1.712 0 01-.49.064 1.2 1.2 0 01-.758-.222 1.024 1.024 0 01-.362-.649h-.036a2.95 2.95 0 01-.85.67 2.369 2.369 0 01-1.093.232 1.549 1.549 0 01-1.111-.414 1.429 1.429 0 01-.435-1.084 1.874 1.874 0 01.1-.621 1.48 1.48 0 01.293-.493 1.46 1.46 0 01.4-.326 3.686 3.686 0 01.469-.228q.274-.1 1.111-.384a8.4 8.4 0 001.129-.438v-.6a2.386 2.386 0 00-.033-.3 1.3 1.3 0 00-.142-.427 1.242 1.242 0 00-.345-.392 1.036 1.036 0 00-.63-.168 1.415 1.415 0 00-.521.095.944.944 0 00-.337.2 1.686 1.686 0 00.057.359 1.839 1.839 0 01.059.438.525.525 0 01-.193.39.755.755 0 01-.532.177.5.5 0 01-.448-.217.851.851 0 01.056-1.019 1.959 1.959 0 01.513-.457 2.8 2.8 0 01.664-.289 2.613 2.613 0 01.761-.119 5.044 5.044 0 01.892.07 1.631 1.631 0 01.691.3 1.408 1.408 0 01.472.611 2.626 2.626 0 01.161 1q0 .87-.018 1.543t-.018 1.47a.746.746 0 00.082.378.647.647 0 00.253.237.61.61 0 00.289.061c.132 0 .266.006.405.006zm-2.125-3.215q-.517.153-.907.3a3.674 3.674 0 00-.725.365 1.646 1.646 0 00-.48.491 1.251 1.251 0 00-.177.675.952.952 0 00.265.744.964.964 0 00.672.238 1.38 1.38 0 00.761-.21 2.181 2.181 0 00.554-.5zM228.371 61.8a1.43 1.43 0 00.285.049v.4h-2.874v-.4c.093-.008.185-.018.277-.028a1.147 1.147 0 00.246-.052.436.436 0 00.253-.191.685.685 0 00.082-.356v-3.838a.9.9 0 00-.043-.3 1.082 1.082 0 00-.134-.25h-2.3v4.335a.665.665 0 00.082.347.494.494 0 00.259.2 2.258 2.258 0 00.292.092 2.022 2.022 0 00.323.049v.4h-2.971v-.4c.093-.008.19-.018.289-.028a1.172 1.172 0 00.259-.052.436.436 0 00.253-.191.7.7 0 00.082-.356v-4.37h-1.187v-.584h1.187v-.14a4.047 4.047 0 01.219-1.406 3.275 3.275 0 01.706-1.108 2.543 2.543 0 01.826-.563 2.57 2.57 0 011.085-.241 2.657 2.657 0 011.34.274.836.836 0 01.463.749.725.725 0 01-.158.469.5.5 0 01-.4.194.768.768 0 01-.439-.115.838.838 0 01-.267-.292 1.7 1.7 0 01-.164-.411q-.068-.242-.117-.387h-.331a1.517 1.517 0 00-.609.118 1.418 1.418 0 00-.524.43 2.108 2.108 0 00-.365.773 4.384 4.384 0 00-.134 1.151v.505h2.015l1.51-.1.086.085v4.888a.7.7 0 00.081.353.477.477 0 00.257.207 2.46 2.46 0 00.26.091zM235.994 62.254h-1.811l-1.019-1.471a30.836 30.836 0 00-1.127-1.527l-.5.466v1.424a.756.756 0 00.079.363.472.472 0 00.256.21 1.757 1.757 0 00.281.091 1.915 1.915 0 00.31.043v.4h-2.94v-.4l.29-.028a1.352 1.352 0 00.254-.046.449.449 0 00.254-.192.672.672 0 00.084-.356V54.25a.985.985 0 00-.094-.424.752.752 0 00-.247-.3.82.82 0 00-.4-.128q-.27-.03-.435-.042v-.39l2.222-.134.085.091v6.351c.318-.316.659-.656 1.027-1.019s.677-.687.929-.97a1.283 1.283 0 00.107-.144.291.291 0 00.057-.143c0-.11-.087-.192-.264-.245a3.194 3.194 0 00-.509-.11v-.39h2.641v.378a4.09 4.09 0 00-.9.381 3.9 3.9 0 00-.6.41c-.1.082-.237.213-.415.4s-.429.421-.749.717q.5.615 1.123 1.474t.911 1.243a1.6 1.6 0 00.481.469 1.623 1.623 0 00.621.134zM246.229 62.145l-1.96.134-.092-.086v-.76h-.036c-.1.1-.207.21-.328.325a2.326 2.326 0 01-.419.314 2.716 2.716 0 01-.529.249 2.384 2.384 0 01-.724.086 1.463 1.463 0 01-1.212-.52 2.379 2.379 0 01-.417-1.512v-2.87a.75.75 0 00-.082-.368.791.791 0 00-.242-.259.773.773 0 00-.276-.106 2.678 2.678 0 00-.349-.045v-.4l2-.146.09.085v4.17a1.433 1.433 0 00.293.98.907.907 0 00.7.329 1.612 1.612 0 00.6-.1 1.694 1.694 0 00.438-.244 2.035 2.035 0 00.29-.27 1.566 1.566 0 00.191-.265v-3.4a.729.729 0 00-.085-.356.8.8 0 00-.237-.264.68.68 0 00-.326-.088c-.145-.01-.306-.019-.485-.027v-.4l2.186-.146.092.085v4.761a.686.686 0 00.085.353.749.749 0 00.237.249.671.671 0 00.262.089 3.249 3.249 0 00.335.027zM253.832 62.254h-2.938v-.4c.093-.008.195-.017.307-.025a1.115 1.115 0 00.277-.049.436.436 0 00.253-.191.694.694 0 00.082-.357v-3.087a1.457 1.457 0 00-.3-.986.936.936 0 00-.735-.347 1.672 1.672 0 00-.592.1 2.121 2.121 0 00-.477.247 1.369 1.369 0 00-.32.3 2.924 2.924 0 00-.174.259v3.452a.616.616 0 00.086.341.553.553 0 00.255.207 1.233 1.233 0 00.277.091 2.355 2.355 0 00.308.043v.4H247.2v-.4l.289-.025a1.119 1.119 0 00.259-.048.442.442 0 00.253-.192.682.682 0 00.082-.356v-3.7a.812.812 0 00-.089-.38.747.747 0 00-.246-.283.842.842 0 00-.274-.106 2.627 2.627 0 00-.341-.046v-.4l2-.134.085.085v.846h.031q.146-.145.366-.35a3.078 3.078 0 01.413-.332 2.2 2.2 0 01.536-.243 2.331 2.331 0 01.7-.1 1.518 1.518 0 011.281.539 2.274 2.274 0 01.417 1.434v3.123a.714.714 0 00.073.344.487.487 0 00.25.2 1.659 1.659 0 00.252.085 1.868 1.868 0 00.3.037zM261.381 62.145l-2.1.134-.092-.086v-.56l-.048-.012a2.526 2.526 0 01-.781.579 2.181 2.181 0 01-.958.225 2.275 2.275 0 01-.989-.228 2.5 2.5 0 01-.829-.643 3.166 3.166 0 01-.568-1.011 3.832 3.832 0 01-.21-1.3 3.413 3.413 0 01.225-1.236 3.244 3.244 0 01.62-1.023 2.723 2.723 0 01.909-.651 2.623 2.623 0 011.1-.244 3.223 3.223 0 01.824.107 2.929 2.929 0 01.7.271v-2.094a1.229 1.229 0 00-.085-.467.739.739 0 00-.237-.321 1.217 1.217 0 00-.46-.167 6.186 6.186 0 00-.624-.077v-.377l2.459-.134.092.091v8.092a.737.737 0 00.082.362.687.687 0 00.24.252.745.745 0 00.335.092q.219.018.4.024zm-2.2-1.053v-3.513a1.545 1.545 0 00-.158-.341 1.47 1.47 0 00-.274-.335 1.56 1.56 0 00-.413-.253 1.424 1.424 0 00-.552-.1 1.257 1.257 0 00-.672.189 1.792 1.792 0 00-.543.541 2.777 2.777 0 00-.356.868 4.8 4.8 0 00-.131 1.166 4.139 4.139 0 00.1.928 2.482 2.482 0 00.328.777 1.683 1.683 0 00.544.547 1.448 1.448 0 00.787.207 1.418 1.418 0 00.805-.212 2.62 2.62 0 00.531-.469zM270.981 58.291a2.016 2.016 0 01.4.667 2.455 2.455 0 01.131.843 2.4 2.4 0 01-.846 1.887 3.065 3.065 0 01-2.1.743 3.882 3.882 0 01-1.158-.18 4.5 4.5 0 01-1-.435l-.261.444h-.488l-.085-2.958h.493a6.463 6.463 0 00.357.989 3.471 3.471 0 00.538.825 2.449 2.449 0 00.74.572 2.148 2.148 0 00.984.213 2.227 2.227 0 00.733-.109 1.237 1.237 0 00.8-.784 1.924 1.924 0 00.094-.625 1.743 1.743 0 00-.292-.966 1.811 1.811 0 00-.871-.68q-.4-.158-.907-.348t-.882-.361a2.853 2.853 0 01-1.136-.861 2.231 2.231 0 01-.406-1.391 2.126 2.126 0 01.2-.919 2.388 2.388 0 01.575-.757 2.6 2.6 0 01.834-.5 2.838 2.838 0 011-.179 2.914 2.914 0 011.068.183 5 5 0 01.861.425l.25-.413h.487l.049 2.867h-.494a10.632 10.632 0 00-.3-.943 3.35 3.35 0 00-.436-.816 2 2 0 00-.639-.564 1.888 1.888 0 00-.925-.21 1.413 1.413 0 00-.987.372 1.179 1.179 0 00-.408.907 1.558 1.558 0 00.262.928 1.919 1.919 0 00.761.606 9.466 9.466 0 00.874.368q.429.156.831.332a6.364 6.364 0 01.7.359 2.685 2.685 0 01.599.469zM278.535 59.192a3.966 3.966 0 01-.2 1.245 2.975 2.975 0 01-.572 1.038 2.667 2.667 0 01-.976.725 3.134 3.134 0 01-1.243.237 2.805 2.805 0 01-1.091-.216 2.748 2.748 0 01-.92-.63 3.006 3.006 0 01-.63-1 3.493 3.493 0 01-.236-1.318 3.274 3.274 0 01.821-2.3 3 3 0 014.229-.045 3.118 3.118 0 01.818 2.264zm-1.259.012a5.558 5.558 0 00-.092-.965 3.038 3.038 0 00-.275-.861 1.663 1.663 0 00-.512-.606 1.292 1.292 0 00-.775-.228 1.366 1.366 0 00-.8.231 1.714 1.714 0 00-.54.633 2.813 2.813 0 00-.275.846 5.57 5.57 0 00-.079.92 5.69 5.69 0 00.095 1.08 3.093 3.093 0 00.3.886 1.714 1.714 0 00.522.612 1.313 1.313 0 00.777.222 1.357 1.357 0 001.208-.736 3.929 3.929 0 00.446-2.038zM284.394 62.254h-4.859v-.322l3.4-5.187h-.841q-.531 0-.829.018a1.7 1.7 0 00-.55.122.713.713 0 00-.32.384 3.847 3.847 0 00-.259.827h-.371v-1.845h4.59v.25l-3.45 5.26c.145 0 .305.008.48.01h.566c.163 0 .331 0 .508-.005s.4-.015.679-.031a.482.482 0 00.368-.164 1.14 1.14 0 00.192-.347q.066-.177.161-.488c.063-.207.119-.407.168-.6h.365zM288.319 62.254h-2.9v-.4l.289-.025a1.109 1.109 0 00.259-.048.442.442 0 00.253-.192.682.682 0 00.082-.356v-3.7a.728.728 0 00-.088-.356.8.8 0 00-.247-.27 1.126 1.126 0 00-.334-.125 2.638 2.638 0 00-.4-.064v-.4l2.119-.134.085.085v4.895a.7.7 0 00.081.353.489.489 0 00.257.207 2.1 2.1 0 00.26.088 1.6 1.6 0 00.285.046zm-.761-8.443a.881.881 0 01-.229.6.719.719 0 01-.563.259.71.71 0 01-.539-.247.8.8 0 01-.228-.563.833.833 0 01.228-.584.706.706 0 01.539-.25.747.747 0 01.569.235.765.765 0 01.223.55zM294.985 62.145a9.737 9.737 0 01-.5.167 1.719 1.719 0 01-.491.064 1.192 1.192 0 01-.757-.222 1.025 1.025 0 01-.363-.649h-.036a2.946 2.946 0 01-.849.67 2.369 2.369 0 01-1.093.232 1.549 1.549 0 01-1.111-.414 1.425 1.425 0 01-.435-1.084 1.848 1.848 0 01.1-.621 1.48 1.48 0 01.293-.493 1.445 1.445 0 01.4-.326 3.622 3.622 0 01.469-.228q.273-.1 1.111-.384a8.4 8.4 0 001.129-.438v-.6a2.6 2.6 0 00-.033-.3 1.329 1.329 0 00-.143-.427 1.23 1.23 0 00-.345-.392 1.03 1.03 0 00-.629-.168 1.411 1.411 0 00-.521.095.959.959 0 00-.338.2 1.7 1.7 0 00.058.359 1.835 1.835 0 01.058.438.524.524 0 01-.192.39.756.756 0 01-.532.177.5.5 0 01-.448-.217.852.852 0 01.055-1.019 1.98 1.98 0 01.514-.457 2.767 2.767 0 01.664-.289 2.613 2.613 0 01.761-.119 5.04 5.04 0 01.891.07 1.635 1.635 0 01.692.3 1.4 1.4 0 01.471.611 2.606 2.606 0 01.161 1q0 .87-.017 1.543t-.019 1.47a.757.757 0 00.082.378.661.661 0 00.253.237.616.616 0 00.289.061c.132 0 .267.006.406.006zm-2.125-3.215q-.518.153-.908.3a3.666 3.666 0 00-.724.365 1.662 1.662 0 00-.481.491 1.251 1.251 0 00-.176.675.951.951 0 00.264.744.968.968 0 00.673.238 1.383 1.383 0 00.761-.21 2.2 2.2 0 00.554-.5zM298.63 62.254h-2.929v-.4l.3-.028a1.359 1.359 0 00.262-.046.45.45 0 00.256-.192.672.672 0 00.085-.356v-6.958a.907.907 0 00-.1-.412.777.777 0 00-.246-.3 1.229 1.229 0 00-.4-.134 3.561 3.561 0 00-.469-.073v-.39l2.259-.134.086.091v8.238a.692.692 0 00.079.35.5.5 0 00.255.21 1.411 1.411 0 00.265.091 1.846 1.846 0 00.3.043zM308.566 56.641a1.268 1.268 0 00-.551.214 1.065 1.065 0 00-.43.565q-.3.9-.575 1.7t-.605 1.8a19.062 19.062 0 00-.423 1.382h-.519l-1.62-4.424-1.626 4.422h-.5q-.456-1.351-.892-2.682t-.77-2.316a.824.824 0 00-.371-.451 1.373 1.373 0 00-.529-.2v-.4h2.676v.427a1.946 1.946 0 00-.434.067c-.156.04-.235.108-.235.2a.48.48 0 00.022.1c.014.053.031.11.052.171q.193.638.44 1.425t.636 2.044l1.531-4.315h.59l1.563 4.255q.262-.815.522-1.577t.454-1.431c.028-.105.056-.2.082-.289a.9.9 0 00.04-.258.253.253 0 00-.1-.2.786.786 0 00-.237-.14 1.256 1.256 0 00-.265-.073 1.328 1.328 0 00-.21-.025v-.39h2.283zM311.962 62.254h-2.9v-.4l.289-.025a1.129 1.129 0 00.259-.048.442.442 0 00.253-.192.692.692 0 00.082-.356v-3.7a.739.739 0 00-.088-.356.8.8 0 00-.247-.27 1.148 1.148 0 00-.334-.125 2.669 2.669 0 00-.4-.064v-.4l2.119-.134.085.085v4.895a.709.709 0 00.081.353.493.493 0 00.257.207 2.111 2.111 0 00.261.088 1.606 1.606 0 00.284.046zm-.761-8.443a.885.885 0 01-.228.6.721.721 0 01-.564.259.711.711 0 01-.539-.247.8.8 0 01-.227-.563.837.837 0 01.227-.584.708.708 0 01.539-.25.75.75 0 01.57.235.768.768 0 01.222.55zM316.905 59.314a1.515 1.515 0 01.383.505 1.651 1.651 0 01.134.7 1.707 1.707 0 01-.624 1.363 2.665 2.665 0 01-2.581.341 2.669 2.669 0 01-.63-.347l-.122.395h-.457l-.06-2.087h.419a2.378 2.378 0 00.207.555 2.664 2.664 0 00.384.574 2.089 2.089 0 00.57.453 1.513 1.513 0 00.746.183 1.363 1.363 0 00.9-.266.942.942 0 00.316-.763.912.912 0 00-.1-.441.975.975 0 00-.3-.326 2.38 2.38 0 00-.493-.253q-.292-.113-.652-.222a5.974 5.974 0 01-.635-.234 2.534 2.534 0 01-.6-.35 1.7 1.7 0 01-.438-.524 1.478 1.478 0 01-.171-.73 1.64 1.64 0 01.548-1.248 2.058 2.058 0 011.467-.512 3.024 3.024 0 01.721.091 2.517 2.517 0 01.6.22l.14-.317h.439l.091 1.93h-.42a1.944 1.944 0 00-.551-1.055 1.433 1.433 0 00-1.032-.406 1.149 1.149 0 00-.786.251.783.783 0 00-.286.607.989.989 0 00.1.457.842.842 0 00.283.31 2.306 2.306 0 00.459.228c.185.072.413.152.686.241a5.889 5.889 0 01.758.3 2.486 2.486 0 01.587.377zM322.529 59.314a1.515 1.515 0 01.383.505 1.651 1.651 0 01.134.7 1.707 1.707 0 01-.624 1.363 2.665 2.665 0 01-2.581.341 2.669 2.669 0 01-.63-.347l-.122.395h-.457l-.06-2.087h.419a2.378 2.378 0 00.207.555 2.664 2.664 0 00.384.574 2.089 2.089 0 00.57.453 1.513 1.513 0 00.746.183 1.363 1.363 0 00.9-.266.943.943 0 00.317-.763.912.912 0 00-.1-.441.965.965 0 00-.3-.326 2.38 2.38 0 00-.493-.253 9.44 9.44 0 00-.652-.222 5.974 5.974 0 01-.635-.234 2.534 2.534 0 01-.6-.35 1.7 1.7 0 01-.438-.524 1.478 1.478 0 01-.171-.73 1.64 1.64 0 01.548-1.248 2.058 2.058 0 011.467-.512 3.024 3.024 0 01.721.091 2.517 2.517 0 01.6.22l.14-.317h.439l.091 1.93h-.42a1.944 1.944 0 00-.551-1.055 1.433 1.433 0 00-1.032-.406 1.144 1.144 0 00-.785.251.781.781 0 00-.287.607.989.989 0 00.095.457.842.842 0 00.283.31 2.306 2.306 0 00.459.228c.185.072.413.152.686.241a5.889 5.889 0 01.758.3 2.486 2.486 0 01.591.377zM329.524 60.842a3.068 3.068 0 01-1.011 1.144 2.538 2.538 0 01-1.455.427 2.953 2.953 0 01-1.27-.256 2.5 2.5 0 01-.9-.694 2.938 2.938 0 01-.526-1.023 4.274 4.274 0 01-.168-1.24 3.629 3.629 0 01.185-1.147 3.243 3.243 0 01.545-1.014 2.647 2.647 0 01.861-.7 2.48 2.48 0 011.154-.265 2.783 2.783 0 011.127.207 2 2 0 01.76.567 2.233 2.233 0 01.417.8 3.5 3.5 0 01.137 1v.4h-3.975a4.727 4.727 0 00.113 1.074 2.58 2.58 0 00.355.848 1.719 1.719 0 00.621.558 1.912 1.912 0 00.914.205 1.677 1.677 0 00.934-.254 2.51 2.51 0 00.759-.915zm-1.346-2.289a5.031 5.031 0 00-.058-.728 2.255 2.255 0 00-.185-.65 1.243 1.243 0 00-.384-.455 1.045 1.045 0 00-.627-.176 1.3 1.3 0 00-1.062.531 2.466 2.466 0 00-.46 1.478zM337.085 62.254h-2.934v-.4c.093-.008.195-.017.307-.025a1.115 1.115 0 00.277-.049.436.436 0 00.253-.191.694.694 0 00.082-.357v-3.087a1.457 1.457 0 00-.3-.986.937.937 0 00-.736-.347 1.67 1.67 0 00-.591.1 2.121 2.121 0 00-.477.247 1.369 1.369 0 00-.32.3 2.924 2.924 0 00-.174.259v3.452a.616.616 0 00.086.341.553.553 0 00.255.207 1.233 1.233 0 00.277.091 2.355 2.355 0 00.308.043v.4h-2.941v-.4l.289-.025a1.119 1.119 0 00.259-.048.445.445 0 00.253-.192.682.682 0 00.082-.356v-3.7a.812.812 0 00-.089-.38.747.747 0 00-.246-.283.842.842 0 00-.274-.106 2.627 2.627 0 00-.341-.046v-.4l2-.134.085.085v.846h.031q.146-.145.365-.35a3.146 3.146 0 01.414-.332 2.2 2.2 0 01.536-.243 2.331 2.331 0 01.7-.1 1.518 1.518 0 011.281.539 2.28 2.28 0 01.417 1.434v3.123a.714.714 0 00.073.344.487.487 0 00.25.2 1.659 1.659 0 00.252.085 1.868 1.868 0 00.3.037zM342.021 59.314a1.518 1.518 0 01.384.505 1.667 1.667 0 01.133.7 1.707 1.707 0 01-.624 1.363 2.665 2.665 0 01-2.581.341 2.669 2.669 0 01-.63-.347l-.122.395h-.457l-.06-2.087h.42a2.29 2.29 0 00.207.555 2.624 2.624 0 00.383.574 2.1 2.1 0 00.57.453 1.518 1.518 0 00.746.183 1.361 1.361 0 00.9-.266.943.943 0 00.317-.763.912.912 0 00-.1-.441.965.965 0 00-.295-.326 2.38 2.38 0 00-.493-.253 9.588 9.588 0 00-.651-.222 5.9 5.9 0 01-.636-.234 2.555 2.555 0 01-.6-.35 1.715 1.715 0 01-.438-.524 1.489 1.489 0 01-.171-.73 1.644 1.644 0 01.548-1.248 2.059 2.059 0 011.468-.512 3.023 3.023 0 01.72.091 2.5 2.5 0 01.6.22l.14-.317h.439l.091 1.93h-.42a1.944 1.944 0 00-.551-1.055 1.433 1.433 0 00-1.032-.406 1.144 1.144 0 00-.785.251.78.78 0 00-.286.607.989.989 0 00.094.457.845.845 0 00.284.31 2.3 2.3 0 00.458.228q.277.108.686.241a5.776 5.776 0 01.758.3 2.486 2.486 0 01.586.377zM346.459 62.413a2.535 2.535 0 01-2.04-.865 3.9 3.9 0 01-.539-3.5 3.261 3.261 0 01.576-1 2.679 2.679 0 01.9-.7 2.647 2.647 0 011.181-.265 2.3 2.3 0 011.437.423 1.376 1.376 0 01.554 1.154 1 1 0 01-.146.539.524.524 0 01-.481.234.789.789 0 01-.557-.182.545.545 0 01-.2-.407 2.269 2.269 0 01.073-.561 3 3 0 00.085-.422.538.538 0 00-.325-.252 1.647 1.647 0 00-.464-.063 1.29 1.29 0 00-.556.124 1.437 1.437 0 00-.513.46 2.479 2.479 0 00-.365.822 4.84 4.84 0 00-.139 1.236 3.145 3.145 0 00.5 1.848 1.536 1.536 0 001.315.715 1.639 1.639 0 00.988-.288 2.792 2.792 0 00.739-.862l.389.255a3.157 3.157 0 01-1.059 1.139 2.5 2.5 0 01-1.353.418zM356.115 62.254h-2.953v-.4l.31-.025a1.125 1.125 0 00.28-.049.436.436 0 00.253-.191.684.684 0 00.082-.357v-3.087a1.452 1.452 0 00-.3-.986.936.936 0 00-.735-.347 1.682 1.682 0 00-.589.1 2.229 2.229 0 00-.485.247 1.436 1.436 0 00-.318.3c-.073.1-.129.187-.17.256v3.452a.643.643 0 00.082.341.528.528 0 00.253.207 1.322 1.322 0 00.277.091 2.151 2.151 0 00.313.043v.4h-2.94v-.4l.29-.028a1.337 1.337 0 00.254-.046.449.449 0 00.254-.192.672.672 0 00.085-.356v-6.99a1.006 1.006 0 00-.1-.414.735.735 0 00-.247-.311.872.872 0 00-.386-.113 9.747 9.747 0 00-.448-.045v-.39l2.223-.134.085.091v4.189h.024q.2-.2.366-.356a2.907 2.907 0 01.433-.326 2.312 2.312 0 01.546-.243 2.367 2.367 0 01.7-.1 1.537 1.537 0 011.238.509 2.2 2.2 0 01.433 1.464v3.123a.669.669 0 00.077.344.506.506 0 00.254.2 1.6 1.6 0 00.552.122zM362.762 62.145a9.13 9.13 0 01-.5.167 1.716 1.716 0 01-.49.064 1.193 1.193 0 01-.758-.222 1.024 1.024 0 01-.362-.649h-.036a2.95 2.95 0 01-.85.67 2.369 2.369 0 01-1.093.232 1.549 1.549 0 01-1.111-.414 1.429 1.429 0 01-.435-1.084 1.848 1.848 0 01.1-.621 1.48 1.48 0 01.293-.493 1.445 1.445 0 01.4-.326 3.686 3.686 0 01.469-.228q.274-.1 1.111-.384a8.4 8.4 0 001.129-.438v-.6a2.386 2.386 0 00-.033-.3 1.282 1.282 0 00-.143-.427 1.238 1.238 0 00-.344-.392 1.036 1.036 0 00-.63-.168 1.415 1.415 0 00-.521.095.959.959 0 00-.338.2 1.7 1.7 0 00.058.359 1.839 1.839 0 01.059.438.525.525 0 01-.193.39.755.755 0 01-.532.177.5.5 0 01-.448-.217.851.851 0 01.056-1.019 1.959 1.959 0 01.513-.457 2.785 2.785 0 01.664-.289 2.613 2.613 0 01.761-.119 5.044 5.044 0 01.892.07 1.637 1.637 0 01.691.3 1.408 1.408 0 01.472.611 2.626 2.626 0 01.161 1q0 .87-.018 1.543t-.018 1.47a.746.746 0 00.082.378.647.647 0 00.253.237.61.61 0 00.289.061c.132 0 .266.006.405.006zm-2.125-3.215q-.518.153-.907.3a3.674 3.674 0 00-.725.365 1.646 1.646 0 00-.48.491 1.242 1.242 0 00-.177.675.952.952 0 00.265.744.964.964 0 00.672.238 1.383 1.383 0 00.761-.21 2.2 2.2 0 00.554-.5zM368.064 53.561a.73.73 0 01-.147.462.525.525 0 01-.444.189.674.674 0 01-.332-.079 1.052 1.052 0 01-.265-.213 2 2 0 01-.225-.3c-.069-.114-.128-.2-.176-.275q-.409.02-.631.569a5.061 5.061 0 00-.222 1.752v.614h1.546v.584h-1.546v4.311a.662.662 0 00.082.347.5.5 0 00.259.2 1.9 1.9 0 00.39.088c.162.022.3.038.42.046v.4h-3.166v-.4l.289-.025a1.075 1.075 0 00.259-.049.431.431 0 00.252-.191.683.683 0 00.083-.357V56.86h-1.187v-.584h1.191v-.383a3.335 3.335 0 01.709-2.215 2.221 2.221 0 011.775-.848 1.311 1.311 0 01.815.213.639.639 0 01.271.518z"/>
  <path class="a" d="M371.594 61.993q-.4.163-.748.277a2.875 2.875 0 01-.865.112 1.3 1.3 0 01-1.062-.38 1.67 1.67 0 01-.307-1.075V56.86h-1.084v-.584h1.108v-1.869h1.107v1.869h1.724v.584h-1.711v3.355a6.086 6.086 0 00.027.63 1.168 1.168 0 00.131.442.628.628 0 00.292.267 1.25 1.25 0 00.524.092c.1 0 .251-.01.447-.028a1.91 1.91 0 00.417-.07z"/>
  <path class="b" d="M55.821.332h10.22v20.307L84.894.332h12.34L78.32 20.043l19.774 26.745H85.818l-14.4-19.777-5.376 5.575v14.2H55.821z"/>
  <path class="a" d="M121.563 0h9.424l19.907 46.788h-10.682l-4.247-10.42H116.32l-4.247 10.42h-10.42zm10.752 27.343l-6.172-15.066-6.173 15.066zM161.674 9.756h-14.136V.332h38.492v9.424h-14.136v37.032h-10.22zM202.588 0h9.424l19.91 46.788h-10.685l-4.243-10.42h-19.649l-4.251 10.42h-10.42zm10.752 27.343l-6.172-15.066-6.174 15.066zM237.782.332h18.98a22.347 22.347 0 017.466 1.161 15.868 15.868 0 015.576 3.285 14.375 14.375 0 013.517 5.077 16.884 16.884 0 011.228 6.537v.133a16.286 16.286 0 01-1.46 7.1 14.491 14.491 0 01-4.016 5.11 17.4 17.4 0 01-5.972 3.087 25.332 25.332 0 01-7.334 1.028h-7.765v13.938h-10.22zm18.317 23.427a8.312 8.312 0 005.973-2.024 6.648 6.648 0 002.124-5.011v-.133a6.339 6.339 0 00-2.223-5.243 9.42 9.42 0 00-6.073-1.791H248v14.2zM300.736 47.518q-9.357 0-14.732-5.177t-5.376-15.463V.332h10.22v26.281q0 5.707 2.655 8.594a9.5 9.5 0 007.366 2.887 9.685 9.685 0 007.367-2.788q2.654-2.787 2.655-8.362V.332h10.22v26.214a26.967 26.967 0 01-1.426 9.225 17.408 17.408 0 01-4.082 6.537 16.713 16.713 0 01-6.438 3.916 25.947 25.947 0 01-8.429 1.294zM331.278.332h10.216v37.231h23.162v9.225h-33.378zM375.643 9.756h-14.136V.332H400v9.424h-14.136v37.032h-10.221zM5.026 33.215h23.255C25.927 39.942 17.264 64.6 16.653 64.6c-.559 0-9.259-24.658-11.627-31.385z"/>
  <path class="b" d="M32.517 30.681a28.4 28.4 0 00.778-5.173c-.19-3.849-2.322-5.647-5.262-5.449-.571.036 1.412-1.692.8-4.84-.365-1.891-1.371-4.04-5.308-4.836 0 0 1.973-6.016-2.075-8.555a7.986 7.986 0 00-8.074 0s2.526 0 1.973 1.973-6.443 1.577-4.6 6.12c.315.786-2.263.288-3.608.977a4.153 4.153 0 00-1.472 6.576 25.572 25.572 0 01-2.119 1.5A6.849 6.849 0 00.023 25.65s.291 3.85 2.549 5.027h27.3s.044-.114-.392 1.892c-.772 3.618-1.5 11.5 1.069 11.461 3.751-.052 1.735-11.938 1.968-13.349zM143.851 58.357c-.081.029.049.1-.052.046.009-.046.02-.079.052-.046zM166.376 57.738c-.262.293-.627.017-.918.206-.029.013.008-.154-.072-.114-.277.229-.735.11-1.085-.048l.015-.047c-.066-.029-.139.121-.212.1 0-.028.022-.043 0-.082-.014.088-.124.044-.153.111-.028-.035-.028-.1-.065-.142l-.036.1c-.1.241-.27-.01-.423.12.008-.024.023-.044.008-.066a2.519 2.519 0 01-.823.2.231.231 0 000-.14c-.009.106-.095.135-.167.157-.037-.107-.124.1-.213.046l.009-.023c-.058.114-.1-.064-.145.074l-.045-.083c-.021.153-.1-.078-.145 0l.006.033c-.049.039-.081-.038-.124-.011l-.006-.018c-.1.043-.167-.039-.161.08-.043-.094.1-.047.037-.183a3.328 3.328 0 01-1.076.132c-.047-.045-.067-.06-.081-.105-.037.024-.133.026-.161.088.008 0-.03-.06-.043-.065-.073-.044-.073.133-.145.082a.138.138 0 00.029-.116c-.059.094-.138.083-.213.114.008-.02.03-.032.023-.068-.072.107-.147-.019-.211.05l.021-.071c-.109-.08-.029.146-.124.1.023-.024.015-.048.015-.077-.087.126-.233.091-.32.136a.053.053 0 00.008-.028c-.1.018-.2-.017-.308.041-.043-.032.009-.17-.092-.141.006.138-.176.062-.109.216-.089-.02-.234-.067-.291-.02.043-.051-.046-.167.028-.179l-.06-.084c.008-.057.06.017.038-.053-.038.007-.138.065-.175.043-.065.087-.124.248-.232.269.05-.056-.037-.152 0-.177l-.146.269c-.037.009-.015-.109-.067-.072.009.038-.014.06-.028.091-.015-.015-.153.039-.176-.1-.014-.056.061-.031.017-.078-.067 0-.067.049-.132.054l-.008-.019c-.045-.019-.124.062-.073.135.028 0-.015-.079.028-.043a.181.181 0 01-.173.108.21.21 0 00.03-.1.673.673 0 01-.285.194c0 .064.037-.117.051-.085-.138-.086-.27.135-.38.007.015-.01.015.091.009.073-.058-.005-.058-.1-.1-.064-.006-.055-.049.02-.087.038-.02.041-.014-.027.023-.035a.484.484 0 01-.43.064c.006.038-.08.136-.109.136l.006-.087c-.029-.051-.1.01-.109-.064-.066.106.255-.094.167-.011-.029-.072-.122.14-.109.023-.058 0-.116.1-.182.024.023.012.051-.119 0-.111-.087.018-.021.04-.094.071l-.044.036c0 .085-.08-.008-.043.085-.015-.071-.131.045-.124-.093l.008-.108c-.037.009-.058.114-.088.163a.092.092 0 01-.015-.049c0 .166-.1-.011-.13.118-.089-.054-.213 0-.248-.1-.058.052-.118.114-.19.081.014-.016.038-.023.038-.058-.043-.047-.06 0-.1.025.006-.025-.095-.1-.146-.151-.058.051-.035.14-.035.194-.066-.161-.176.111-.248-.036.021-.022.086-.082.035-.122-.064-.162-.107.124-.2.049l.029.135c-.045-.084-.132.081-.132-.057-.029.05-.11-.041-.095.091-.153-.107-.355.078-.458-.156-.021.024-.072 0-.058.07.037.071.043-.055.058 0-.015.007-.021.04-.021.06-.045-.029-.081-.037-.045-.149-.1-.08-.1.227-.231.18.006-.054-.009-.077-.045-.065l-.073.1c-.081-.02-.051-.124-.051-.217-.044.017-.1.015-.124.085l-.058-.116c.043.085-.038.059-.051.08l.013-.021c-.006-.041-.057-.014-.086 0 .008.058.066.077.095.094-.022.042-.058.032-.087.081.006-.091-.074-.062-.11-.07s-.043.083-.06.08c0-.045-.063-.005-.034-.074.015-.014.029.046.051 0-.028-.035-.022-.116-.08-.056s.014.18-.066.125c.022-.024.022-.06.037-.093l-.075-.045v.091c-.013-.022-.006-.029-.013-.039-.015.089-.111.031-.124.128-.044.012-.087-.054-.124-.063l.008-.008c-.044-.047-.1-.012-.138.044v-.019a.125.125 0 00-.11.059c-.066-.06-.029-.31-.095-.2-.065.005-.095.155-.065.207-.116-.052-.24.088-.349-.038-.015.033 0 .054-.038.074-.158-.026-.34.109-.481-.051.052-.035 0-.08 0-.128-.034.074-.049-.076-.058.051.009.076 0 .111.052.141a.3.3 0 01-.305-.021c.029.034.006.058-.014.081.006-.12-.067-.137-.118-.093l-.006.074-.037-.074c-.021.024-.021.154-.081.086l-.015-.078c-.058.062-.13.165-.2.1l-.052-.1c-.029.012-.072.078-.021.108-.109-.062-.175-.069-.211-.16a.707.707 0 01-.647.238v-.055c-.052-.049-.023.1-.067.06.021-.053-.043-.111 0-.177-.088-.054-.1.1-.152.124-.009.07.035-.047.029.043-.008.027-.11-.052-.124.057a.25.25 0 01.007-.166l-.051.054c-.065-.124.13-.23.065-.384l-.05.018c-.045-.111.115-.131.006-.167-.051.056-.086.214-.043.26-.1.031-.037.26-.153.255-.029-.062.095-.019.066-.106-.051-.088-.1.051-.146.021.051.041.008.151-.021.171-.06-.048.029-.1-.051-.112-.009.064-.081.112-.015.154-.029.142-.088-.038-.124.076-.028-.1.073-.236-.014-.281.014.095-.11.132-.058.274a.173.173 0 01-.016-.161c-.049-.059-.116.178-.137-.012l-.017.1a.576.576 0 00-.062-.107c-.045 0-.133.136-.133-.011-.015.014-.115.011-.072.112.066.062.066-.076.1.06-.043-.11-.086.018-.115.058l-.009-.058c-.019.024-.071.013-.079.075a.082.082 0 00-.013-.085l-.023.087c-.08.047-.022-.154-.109-.124l.066-.071c-.015.014-.045-.066-.088-.036a5.53 5.53 0 01-.051.238c-.043.037-.022-.088-.065-.006l.058-.1c.007-.028-.044-.132-.11-.126-.035.027-.095.145-.029.186a.072.072 0 01-.058-.1c-.072.031.015.085-.043.138-.044-.053-.1-.126-.161-.2l.058-.135h-.043c.051-.109-.029-.081 0-.195-.029-.016-.067.025-.095.054.095.178-.087.249-.058.413-.115.049-.081-.4-.2-.137.021.042-.037.17.034.121-.071-.017-.043.165-.129.1.067-.069-.072-.163.014-.265 0 .056.053.04.066.023-.028-.062 0-.165-.074-.163-.044.018-.107.022-.093.109s.073-.013.043.083c-.086.035-.109-.107-.146.06.06-.015.081.082.081.149l-.066.038.008-.061c-.11-.042-.029.116-.132.1l-.049-.122c.019-.107.152.045.129-.129-.072-.006-.086.084-.153.039l.043-.035c-.019 0-.049-.233-.143-.1-.052.053-.015.061-.015.127-.1.023-.133.091-.2.1.007-.128-.124-.007-.051-.14.037.073.2.062.225-.06-.044-.148.089.019.11-.134-.088 0-.088-.149-.11-.245-.021-.007-.044.034-.058.05-.007.092.023.089.029.184a.224.224 0 00-.24.122c-.029-.044-.022-.136.015-.146a.748.748 0 01-.349 0c.072.147-.123.039-.065.161a.186.186 0 01.079.2c-.036-.009 0-.065-.014-.095-.046.082-.08-.129-.123 0 .109-.052.014-.182.034-.3-.08.068 0-.083-.08-.083a.661.661 0 01-.245.151c-.109-.108-.263 0-.357.012-.052-.056-.024-.19-.081-.211-.058 0 .051.141-.043.083l.006-.026c-.021.031-.167-.085-.188.1l.021-.144c-.021-.011-.038.022-.05.037 0-.045-.023-.087.006-.118-.058-.1-.124.018-.182.024l.044.083c-.109.068-.181-.011-.284.021v-.083l-.058.051c.014-.08-.044-.129-.072-.062l.152-.207c.043.047-.052.1-.015.181.021.071.116.046.13-.035-.034-.008-.034.011-.064.042-.014-.116.044-.112.064-.19-.02.005-.049-.029-.049.009a.141.141 0 01.138-.073c-.046.045.021.071.007.1 0-.1.065-.135.138-.108.057.116.146-.079.233-.049a.423.423 0 01-.13.229c.058.051.064 0 .123.045.021-.076.044-.2.116-.242v.075c.066-.041.066-.153.153-.135a2.281 2.281 0 00.409.034l.006.076c.052-.163.2-.064.285-.141.138.07.305-.08.377.047a2.125 2.125 0 01.722-.109l-.036.111c.043-.082.028.064.072.045-.052-.086.066-.116.095-.184.117.083.262-.016.357-.1l.008.077c.1-.146.225-.026.355-.005.015.03.045.1.08.09.066-.124.1-.116.205-.2a.562.562 0 01.267.069c.278-.181.571-.08.862-.192l.02.089c.277-.2.634-.037.867-.142l-.014.153c.072.045.167-.046.146-.151.078.043.188-.08.239.043.081.026.095-.072.162-.1a.5.5 0 00.357.006l-.038-.007c-.015.032-.015.1.021.106.051-.044.2.036.146-.144.162.1.357-.1.519.039-.017-.048.02-.06.035-.093.138-.006.284.09.393 0 .021.026-.037.087.021.09.037-.019 0-.064.037-.095.226-.1.459.082.654.053a4.957 4.957 0 011.08-.1v.036c.107-.142.276.134.355-.078.028.035.109.012.088.085.088-.1.263.084.393-.045-.015 0-.021.005-.036.021.139.075.254-.037.393.032-.015.016-.038.026-.044.064.058.069.13-.157.159.019.037-.005.023-.091.009-.086a2.927 2.927 0 00.953-.112c.241.1.029.295.2.158.015.033.007-.066.015-.031.065-.05.116.194.161.1-.023-.107.028-.062.028-.128.145.066.174.162.284.077l-.006.056c.123-.164.282-.081.385-.271l2.111-.221c.692.015 1.368-.089 2.074-.013.175.145.184.141.366.074-.009.026-.015.031-.009.052.009-.121.133-.014.147-.132.262.016.5-.026.764-.035-.036.015-.058.115-.007.1l.05-.078.008.033c.037-.019.072-.08.037-.117a17.144 17.144 0 011.993.048 1.358 1.358 0 00.554-.038 2.712 2.712 0 001.478.136s-.051.345-.262.424zM143.952 58.343c.023.06.081.093.037.176-.008-.057-.046-.119-.037-.176z"/>
  <path class="b" d="M145.539 58.924c0-.018.023.023.029.034-.021.006-.036.059-.058.026.022-.005.022-.032.029-.06zM145.939 58.95c-.007.053-.087.1-.138.107zM146.319 59.162c.034.044.028.07-.015.07-.01-.032.006-.044.015-.07zM146.34 59.036c.037 0 .051.029.065.06 0-.047-.071.031-.065-.06zM147.155 59.17c.022 0 .066-.051.08.009-.022-.041-.086.072-.08-.009zM147.534 59.077c.007 0 .015.013.029 0a.046.046 0 01-.022.068zM154.386 58.65l-.045.029.008-.053.037.024zM157.384 58.558c.043-.036.029.049.037.057-.037.007.015-.068-.037-.057zM159.001 58.237l-.015.003v-.114l.015.111z"/>
</svg>
