<svg xmlns="http://www.w3.org/2000/svg" fill="none" viewBox="0 0 809 187"><path fill="#fff" d="M64.7 90.3 35 43.9l28.1-29.8H47.3L12 51.9V14.1H0v76.2h12V68.5L26.5 53 50 90.3h14.7ZM130.2 78.8H85.6V56.6h40.2V45.1H85.6V25.6h43.5V14.1H73.6v76.2h56.6V78.8ZM176.2 91.4c14.1 0 22.7-6.8 27.6-17.3v16.2H214V50h-43.3v11.5h28.6c-1.4 7.4-7.8 18.5-22.1 18.5-14.9 0-26.1-11.4-26.1-27.7 0-16.9 11.8-27.7 25.9-27.7 12.6 0 22.4 6 25.6 17.5l11-6.3c-5-12.8-17.5-22.6-36.9-22.6-21.8 0-38.1 16.9-38.1 39.2.1 22.7 15.8 39 37.6 39ZM289.8 90.3H300V50h-43.3v11.5h28.6c-1.4 7.4-7.8 18.5-22.1 18.5-14.9 0-26.1-11.4-26.1-27.7 0-16.9 11.8-27.7 25.9-27.7 12.6 0 22.4 6 25.6 17.5l11-6.3c-5-12.8-17.5-22.6-37-22.6-21.8 0-38.1 16.9-38.1 39.2 0 22.8 15.8 39.1 37.5 39.1 14.1 0 22.7-6.8 27.6-17.3l.2 16.1ZM326 56.6h40.2V45.1H326V25.6h43.5V14.1H314v76.2h56.6V78.8H326V56.6ZM395.8 22.8l35.4 67.5H452V14.1h-11.9v67.6l-35.5-67.6h-20.8v76.2h12V22.8ZM521 45.1h-41.4v-31h-11.9v76.2h11.9V56.6H521v33.7h12V14.1h-12v31ZM585 13.1c-22.3 0-39.7 17.4-39.7 39.2 0 21.8 17.4 39.2 39.7 39.2 22.3 0 39.7-17.4 39.7-39.2 0-21.8-17.4-39.2-39.7-39.2Zm0 66.8c-14.9 0-27.2-10.9-27.2-27.6 0-16.7 12-27.9 27.2-27.9s27.2 11.1 27.2 27.7S600 79.9 585 79.9ZM637.1 90.3h12V56.6h39.7V45.1h-39.7V25.6h43V14.1h-55v76.2ZM705.1 90.3h12V56.6h39.7V45.1h-39.7V25.6H760V14.1h-54.9v76.2ZM799 0h10v104.2h-10V0ZM34.3 155.2c18.5 0 26.7-10.1 26.7-22.9C61 121 53.4 110 32.5 110H0v4.2c7.3.2 11.1 1.3 11.1 8v52.1c0 6.6-3.8 7.7-11.1 7.9v4.2h35.6v-4.2c-8.7-.4-13.9-1.3-13.9-7.9v-19.1h12.6ZM21.7 115h8.6c13.4 0 19.1 7.4 19.1 17.8 0 12-5.7 17.4-19.1 17.4h-8.6V115ZM130.8 178.2 101.3 110h-12l2.9 6.2s-24.4 58.7-25.8 62c-1.4 3.3-5.5 3.9-10.3 4v4.2h28v-4.2c-7.5-.2-10.2-1.4-10.2-4.8.1-1.5.6-3 1.2-4.4l4.8-11.9H112l5.1 12c.7 1.4 1.1 2.8 1.2 4.4 0 3.4-2.6 4.5-10.1 4.7v4.2h29.2v-4.2c-3.2-.4-5.4-1.1-6.6-4Zm-49-21.8 13.8-34.1 14.4 34.1H81.8ZM200.6 174.5l-18.3-22.8c10.4-1 21-8 21-20.3 0-12.6-8.5-21.5-27.9-21.5h-32v4.2c7.3.2 11.1 1.3 11.1 8v52.1c0 6.6-3.8 7.7-11.1 7.9v4.2H176v-4.2c-7.1-.2-11-1.3-11-7.9V153h5.8l18.4 23.7c3.6 4.7 5.9 7.1 9.9 9.6h15.6v-4.2c-5.9-.2-10.6-3.3-14.1-7.6ZM165 148.3V115h7.2c13.8 0 19.6 7.2 19.6 16.4 0 11.2-6.2 16.9-19.2 16.9H165ZM216 110l-1.6 22.8h3.4c6.5-14.9 7.7-17.9 17.6-17.9h8.1v59.4c0 6.6-4.1 7.7-11.4 7.9v4.2h33.5v-4.2c-7.3-.2-11.6-1.3-11.6-7.9v-59.4h8.3c9.9 0 11.1 2.9 17.5 17.9h3.5l-1.7-22.8H216ZM342 114.2c7.3.2 11.1 1.3 11.1 8v45.2L307.8 110h-18.6v4.2c5.3.1 6.8 1.7 11.1 6.9v53.2c0 6.6-3.8 7.7-11.1 7.9v4.2h28.5v-4.2c-7.3-.2-11.1-1.3-11.1-7.9V126l48.4 60.4h4.5v-64.3c0-6.6 3.8-7.7 11.1-8V110H342v4.2ZM421.1 181.4h-10.9c-7.7 0-11-1.5-11-7.4v-24.2h18.5c4.8 0 6.8 3.3 7.9 9.8h3.7V135h-3.7c-1.1 6.5-3 9.8-7.9 9.8h-18.5V115H420c8.8 0 11.9 3.7 15.8 13.2h2.9V110h-61.1v4.2c7.3.2 11.1 1.3 11.1 8v52.1c0 6.6-3.8 7.7-11.1 7.9v4.2h61.6l3.3-19.6h-3c-6.9 11.5-8.8 14.6-18.4 14.6ZM508 174.5l-18.3-22.8c10.3-1 21-8 21-20.3 0-12.6-8.5-21.5-27.9-21.5h-32v4.2c7.3.2 11.1 1.3 11.1 8v52.1c0 6.6-3.8 7.7-11.1 7.9v4.2h32.6v-4.2c-7.1-.2-11-1.3-11-7.9V153h5.8l18.4 23.7c3.6 4.7 5.9 7.1 9.9 9.6h15.6v-4.2c-5.9-.2-10.6-3.3-14.1-7.6Zm-35.6-26.2V115h7.2c13.8 0 19.6 7.2 19.6 16.4 0 11.2-6.2 16.9-19.2 16.9h-7.6Z"/></svg>
