<svg xmlns="http://www.w3.org/2000/svg" fill="none" viewBox="0 0 212 48"><path fill="#fff" d="M0 0h212v48H0z"/><path fill="#000" d="M130.032 22.96a8.44 8.44 0 0 0 2.139-5.63c0-4.65-3.704-8.417-8.276-8.417h-13.239v29.006h14.19c4.571 0 8.276-3.768 8.276-8.418a8.44 8.44 0 0 0-3.09-6.555zm-12.414-8.473h4.334c1.705 0 3.075 1.4 3.075 3.137s-1.384 3.138-3.075 3.138h-4.334v-6.275m5.201 17.927h-5.201v-6.372h5.201c1.733 0 3.131 1.428 3.131 3.193s-1.412 3.194-3.131 3.194zM99.723 17.792c0-4.902-3.914-8.88-8.737-8.88H77.509v29.02h6.962V25.917l12.568 12.773 4.544-4.608-7.76-7.885c3.44-1.205 5.9-4.496 5.9-8.404m-10.625 3.782h-4.627v-7.087h4.627c1.916 0 3.481 1.583 3.481 3.544 0 1.96-1.551 3.543-3.48 3.543M8.824 37.919h7.536V8.913H8.824zM31.387 8.156 16.373 23.423l15.014 15.252 5.02-5.098-9.997-10.154 9.996-10.168zM46.933 8.913h-1.258v29.006h20.103V32.12H52.651v-6.036h11.422V20.51H52.65V14.71h13.127V8.913H46.933M194.943 25.993c3.571-1.254 6.126-4.68 6.126-8.748 0-5.104-4.065-9.245-9.074-9.245H178v30.213h7.23V25.702L198.282 39 203 34.203zm-4.908-4.811h-4.805v-7.379h4.805c1.989 0 3.615 1.648 3.615 3.69 0 2.04-1.611 3.689-3.615 3.689M146.314 8H145v30h21v-5.997h-13.727v-6.244h11.931v-5.765h-11.931v-5.997H166V8h-19.686"/></svg>
