<svg xmlns="http://www.w3.org/2000/svg" fill="none" viewBox="0 0 104 38"><path fill="#fff" d="M42.8 9.5c2.6 0 4.7-2.1 4.7-4.7S45.4 0 42.8 0s-4.7 2.1-4.7 4.8c0 2.6 2.1 4.7 4.7 4.7Z"/><path fill="#fff" d="M101.4 23.1c-2.2-1.5-4.8-2.1-7.4-3-3.6-1.2-5.5-1.4-5.5-3.3 0-1.1 1.2-1.9 3.3-1.9 3 0 5.5 1.4 7 3.9h4.1V11H99l-.7 1.5c-2.8-1.3-5.8-1.9-9-1.9-7.5 0-11.7 3.4-11.7 8.4 0 4.7 3.2 6.1 9.5 8.1 4.1 1.3 6.3 1.5 6.3 3.3 0 1.5-1.1 2.1-3.5 2.1-3.7 0-6-1.6-7.2-4.8H78c-.3-1.9-1.2-3.5-2.6-4.5-2.2-1.5-4.8-2.1-7.4-3-3.6-1.2-5.5-1.4-5.5-3.3 0-1.1 1.2-1.9 3.3-1.9 3 0 5.5 1.4 7 3.9h4.1V11H73l-.7 1.5c-2.8-1.3-5.8-1.9-9-1.9-7.5 0-11.7 3.4-11.7 8.4 0 4.7 3.2 6.1 9.5 8.1 4.1 1.3 6.3 1.5 6.3 3.3 0 1.5-1.1 2.1-3.5 2.1-3.7 0-6-1.6-7.2-4.8H52v4.1h-.8c-2.1 0-2.5-.5-2.5-2.5V11.5H34.9v4.6H36c2.1 0 2.5.5 2.5 2.5v10.6c0 2-.4 2.5-2.5 2.5h-1c-2 0-3.2-.6-4-1.9l-6-9.6 3.5-2.7c1-.8 2.4-1.2 4.2-1.2v-4.6h-15v4.6h.6c1.1 0 1.5.2 1.5.7 0 .4-.2.7-.7 1.1l-5.3 4.2v-21H0v4.6h1.2c2.1 0 2.5.5 2.5 2.5v21c0 2-.4 2.5-2.5 2.5H.1v4.6h16.2v-4.6h-.2c-1.7 0-2.3-.6-2.3-2.3v-1.2l3.7-2.7 2.1 3.3c.6.9.9 1.6.9 2.1 0 .6-.5.6-1.8.7v4.6h37l.8-1.6c2.6 1.6 6 2.5 9.9 2.5 6.5 0 10.6-2.6 11.4-6.8v6h3.7l.9-1.6c2.6 1.6 6 2.5 9.9 2.5 7.4 0 11.6-3.3 11.6-8.4.2-2.7-.8-4.8-2.5-5.9Z"/></svg>
