<svg xmlns="http://www.w3.org/2000/svg" fill="none" viewBox="0 0 180 34"><g clip-path="url(#a)"><path fill="#8e75fa" d="M21.88 27.358v.663c0 2.795-2.257 5.068-5.033 5.068H5.033C2.257 33.09 0 30.816 0 28.021V16.123c0-2.796 2.257-5.069 5.033-5.069h.658v16.307h16.192z"/><path fill="#571efa" d="M22.1 23.39H9.628V9.506c0-4.74 3.829-8.595 8.535-8.595h3.94c5.428 0 9.847 4.45 9.847 9.916v2.644c0 5.466-4.419 9.916-9.847 9.916zm-6.784-5.73h6.783c2.292 0 4.157-1.879 4.157-4.186V10.83c0-2.308-1.865-4.186-4.157-4.186h-3.94c-1.568 0-2.843 1.284-2.843 2.864v8.153z"/><path fill="#000" d="M48.028 11.947c4.585 0 7.516 3.39 7.516 7.54 0 4.152-2.93 7.542-7.516 7.542-4.585 0-7.547-3.39-7.547-7.541 0-4.152 2.93-7.541 7.547-7.541m0 13.24c3.51 0 5.37-2.63 5.37-5.7 0-3.068-1.86-5.7-5.37-5.7s-5.398 2.632-5.398 5.7c0 3.07 1.856 5.7 5.398 5.7M58.332 12.24h2.15v3.681c1.015-2.426 3.164-3.974 6.298-3.974 4.036 0 6.763 3.07 6.763 7.569s-2.727 7.513-6.763 7.513c-3.193 0-5.31-1.608-6.299-3.974v9.002h-2.149zm7.778 12.948c2.903 0 5.283-1.813 5.283-5.672s-2.38-5.728-5.283-5.728c-2.902 0-5.542 1.9-5.542 5.728s2.67 5.672 5.542 5.672M82.655 11.947c4.122 0 6.88 2.603 6.88 7.043v.877h-11.58c.087 3.041 1.624 5.377 4.817 5.377 2.64 0 4.18-1.403 4.703-3.567h2.118c-.608 2.572-2.35 5.349-6.762 5.349-4.672 0-6.936-3.508-6.936-7.747 0-4.677 2.7-7.335 6.763-7.335zm4.758 6.225c-.204-2.836-2.09-4.443-4.79-4.443-2.525 0-4.412 1.635-4.643 4.443zM92.55 12.24h2.15v4.032c.784-2.69 2.816-4.325 5.978-4.325s5.166 2.105 5.166 5.905v8.884h-2.177v-8.71c0-3.01-1.161-4.238-3.715-4.238-3.251 0-5.252 2.749-5.252 6.636v6.312h-2.15zM109.472 6.129h7.518q3.191 0 5.633.79 2.437.787 3.989 3.069 1.552 2.28 1.553 6.43c0 2.768-.519 4.942-1.553 6.46q-1.552 2.28-3.989 3.069c-1.628.525-3.502.79-5.633.79h-7.518zm7.518 16.487q2.206 0 3.527-.351 1.32-.349 2.149-1.683.828-1.33.827-4.163c0-1.888-.281-3.253-.84-4.152q-.842-1.343-2.149-1.695-1.306-.35-3.51-.351h-2.875v12.395h2.875zM131.198 15.234a6.53 6.53 0 0 1 2.699-2.616q1.728-.904 3.962-.904 3.658 0 5.718 1.959t2.06 5.407v1.229h-10.971q.116 1.577.988 2.469.87.891 2.381.892 1.305.002 2.161-.556.855-.555 1.09-1.58h4.382q-.35 2.456-2.338 3.974-1.987 1.52-5.268 1.52-2.407 0-4.18-.979a6.7 6.7 0 0 1-2.715-2.733c-.63-1.17-.941-2.513-.941-4.033s.324-2.908.972-4.05m10.144 2.674q-.115-1.404-1.032-2.164-.913-.76-2.365-.76c-.966 0-1.717.256-2.307.76q-.884.76-1 2.164zM149.555 25.595q-1.917-1.431-1.917-4.21h4.412q.001 1.26.784 1.856.783.6 2.409.6 1.19 0 1.726-.308.537-.307.537-.98 0-.467-.318-.758-.32-.293-1.016-.498l-4.471-1.228a5.9 5.9 0 0 1-2.553-1.359q-1.075-.98-1.075-2.705 0-2.074 1.698-3.187 1.7-1.11 4.746-1.11 3.368 0 5.253 1.358t1.886 3.93h-4.412q0-2.131-2.699-2.132-.958.001-1.51.32-.552.322-.553.849 0 .905 1.597 1.315l3.424.85q2.003.497 3.208 1.535 1.205 1.035 1.205 2.908.001 2.136-1.699 3.259c-1.133.75-2.809 1.126-5.036 1.126q-3.715-.002-5.632-1.434zM164.357 5.252h4.413v12.45l5.833-5.7H180l-7.284 7.162 7.256 7.572h-5.369l-5.833-6.197v6.197h-4.413z"/></g><defs><clipPath id="a"><path fill="#fff" d="M0 0h180v34H0z"/></clipPath></defs></svg>
