<svg xmlns="http://www.w3.org/2000/svg" fill="none" viewBox="0 0 147 32"><g clip-path="url(#a)"><path fill="#ca2317" d="m24.376 11.137 8.415-2.582-4.985 3.167z"/><path fill="#e84f83" d="m29.502 17.432-1.695-5.71 4.984-3.167-1.493 5.125z"/><path fill="#ca2317" d="m35.253 7.002-.928 1.554-3.027 5.124 1.493-5.124z"/><path fill="#e54011" d="m35.556 8.01-2.341 2.4 1.11-1.855zM24.88 9.543l6.882-.686-4.782 1.473z"/><path fill="#ca2317" d="m25.144 13.438 2.663-1.715 1.695 5.71-.888 1.816z"/><path fill="#b7dff2" d="M21.168 20.218 19.897 4.682l8.717 14.567z"/><path fill="#e54011" d="m17.556 24.191 3.612-3.974 7.446-.969z"/><path fill="#ffce33" d="m0 32 17.556-7.81 3.612-3.974-5.731-.585z"/><path fill="#d6b12d" d="m.666 25.624 9.02-1.372 2.805-2.26-1.372-.605z"/><path fill="#ffde85" d="m3.915 18.26 8.576 3.732 2.946-2.36z"/><path fill="#009ec6" d="m19.25 10.31-1.09.182-2.723 9.14 2.946-1.856z"/><path fill="#5eafce" d="m20.845 16.202-2.462 1.574 1.513-13.094z"/><path fill="#045972" d="m11.542 11.541 7.708-1.23.343-3.047z"/><path fill="#5a8591" d="m10.715 4.398 6.7 4.036 2.18-1.17.06-.424z"/><path fill="#009ec6" d="m12.026 0 6.095 6.416 1.533.424.242-2.159z"/><path fill="#f39804" d="m15.437 19.631 5.408-3.43.322 4.015z"/><path fill="#000" d="M46.33 24v-2.19l8.71-12.222h-8.727V6.545h13.363v2.19l-8.719 12.222h8.736V24zm19.86.247q-1.254 0-2.233-.434a3.6 3.6 0 0 1-1.551-1.304q-.563-.87-.563-2.165 0-1.091.4-1.833a3.26 3.26 0 0 1 1.091-1.193 5.3 5.3 0 0 1 1.569-.682 12 12 0 0 1 1.858-.323 47 47 0 0 0 1.84-.222q.7-.111 1.015-.324t.315-.63v-.052q0-.81-.511-1.253-.503-.443-1.432-.443-.98 0-1.56.435a2 2 0 0 0-.767 1.074l-3.358-.273c.154-.762.5-1.472 1.006-2.063q.75-.878 1.935-1.346 1.193-.477 2.761-.477a8.4 8.4 0 0 1 2.088.255q1.005.255 1.781.793.785.537 1.236 1.38.452.835.452 2.004V24h-3.443v-1.815h-.103q-.315.614-.843 1.082c-.374.32-.805.565-1.27.724q-.743.256-1.713.256m1.04-2.506q.8 0 1.414-.315.614-.323.963-.87.35-.545.35-1.235v-1.39a1.9 1.9 0 0 1-.47.205 8 8 0 0 1-.655.162q-.367.069-.733.128l-.665.094c-.384.05-.76.151-1.117.298a1.8 1.8 0 0 0-.741.554q-.264.341-.264.852 0 .743.537 1.134.545.383 1.38.383zM76.378 24V10.91h3.46v2.309h.153q.409-1.15 1.364-1.816.954-.664 2.284-.664 1.347 0 2.293.673a3.17 3.17 0 0 1 1.26 1.807h.137q.4-1.126 1.45-1.798 1.056-.682 2.496-.682 1.832 0 2.975 1.167 1.15 1.16 1.15 3.29V24h-3.62v-8.088q0-1.091-.58-1.636-.58-.546-1.448-.546-.99 0-1.543.63-.554.624-.554 1.646V24h-3.52v-8.165q0-.963-.554-1.534-.545-.57-1.44-.57a2 2 0 0 0-1.091.306q-.477.298-.759.844-.28.537-.28 1.261V24h-3.633m21.89 0V10.91h3.46v2.309h.154q.41-1.15 1.363-1.816.955-.664 2.285-.664 1.345 0 2.292.673a3.17 3.17 0 0 1 1.262 1.807h.136q.4-1.126 1.449-1.798 1.056-.682 2.497-.682 1.832 0 2.974 1.167 1.15 1.16 1.151 3.29V24h-3.622v-8.088q0-1.091-.58-1.636-.579-.546-1.449-.546-.989 0-1.542.63-.555.624-.554 1.646V24h-3.52v-8.165q0-.963-.554-1.534-.546-.57-1.44-.57-.606 0-1.091.306-.478.298-.759.844-.28.537-.281 1.261V24zm25.624.247q-1.253 0-2.233-.434a3.6 3.6 0 0 1-1.551-1.304q-.563-.87-.563-2.165 0-1.091.401-1.833.4-.741 1.091-1.193a5.3 5.3 0 0 1 1.568-.682 12 12 0 0 1 1.858-.323q1.142-.12 1.841-.222.699-.111 1.014-.324t.315-.63v-.052q0-.81-.511-1.253-.503-.443-1.432-.443-.98 0-1.56.435c-.37.261-.64.64-.767 1.074l-3.358-.273a4.6 4.6 0 0 1 1.006-2.063q.75-.878 1.935-1.346 1.193-.477 2.761-.477a8.4 8.4 0 0 1 2.088.255q1.006.255 1.781.793c.518.353.942.826 1.236 1.38q.452.835.452 2.004V24h-3.443v-1.815h-.103q-.315.614-.843 1.082a3.9 3.9 0 0 1-1.27.724q-.742.256-1.713.256m1.04-2.506q.8 0 1.414-.315.614-.323.963-.87.35-.545.35-1.235v-1.39a2 2 0 0 1-.469.205 8 8 0 0 1-.656.162q-.367.069-.733.128l-.665.094c-.383.05-.758.151-1.116.298a1.8 1.8 0 0 0-.742.554q-.264.341-.264.852 0 .743.537 1.134.545.383 1.381.383m13.973 2.472a4.94 4.94 0 0 1-2.702-.767q-1.202-.776-1.909-2.276-.699-1.508-.699-3.698 0-2.25.724-3.742.725-1.5 1.926-2.241 1.21-.75 2.651-.75 1.1 0 1.832.375.742.366 1.194.92.46.546.698 1.074h.111V6.545h3.622V24h-3.579v-2.097h-.154q-.255.546-.724 1.083a3.6 3.6 0 0 1-1.202.878q-.733.35-1.789.35zm1.15-2.89q.878 0 1.483-.476.614-.486.938-1.356.332-.87.332-2.037t-.324-2.028q-.324-.86-.937-1.33-.615-.468-1.492-.468-.894 0-1.508.486-.614.485-.929 1.346t-.316 1.994q0 1.143.316 2.02.323.87.929 1.364.614.486 1.508.485"/></g><defs><clipPath id="a"><path fill="#fff" d="M0 0h147v32H0z"/></clipPath></defs></svg>
